<?xml version="1.0" standalone="no"?>
<!DOCTYPE svg PUBLIC "-//W3C//DTD SVG 20010904//EN"
 "http://www.w3.org/TR/2001/REC-SVG-20010904/DTD/svg10.dtd">
<svg version="1.0" xmlns="http://www.w3.org/2000/svg"
 width="512.000000pt" height="512.000000pt" viewBox="0 0 512.000000 512.000000"
 preserveAspectRatio="xMidYMid meet">
<metadata>
Created by potrace 1.14, written by Peter Selinger 2001-2017
</metadata>
<g transform="translate(0.000000,512.000000) scale(0.100000,-0.100000)"
fill="#000000" stroke="none">
<path d="M2542 4165 c-7 -8 -10 -15 -6 -15 4 0 -6 -11 -22 -25 -16 -14 -25
-25 -20 -25 5 0 -1 -8 -12 -19 -12 -10 -22 -23 -22 -29 0 -5 -7 -13 -16 -16
-9 -4 -14 -9 -11 -12 3 -3 -6 -17 -20 -30 -14 -13 -23 -24 -19 -24 3 0 -2 -8
-11 -18 -32 -33 -58 -67 -58 -74 0 -4 -9 -14 -20 -22 -11 -9 -17 -16 -12 -16
4 0 -1 -8 -10 -18 -29 -31 -58 -67 -58 -73 0 -19 -58 -53 -70 -41 -4 4 -11 8
-16 8 -5 1 -10 2 -11 4 -4 2 -40 10 -60 12 -10 1 -18 6 -18 11 0 5 -7 7 -15 3
-8 -3 -15 -2 -15 3 0 4 -6 8 -12 9 -23 2 -43 7 -55 15 -7 5 -17 5 -23 2 -5 -3
-10 -1 -10 5 0 6 -5 8 -10 5 -6 -4 -17 -1 -25 5 -8 7 -15 9 -15 5 0 -4 -7 -2
-15 5 -9 7 -18 10 -22 7 -3 -4 -12 -2 -20 4 -7 6 -13 9 -13 6 0 -3 -16 1 -35
9 -19 8 -35 11 -35 8 0 -4 -7 -1 -15 6 -8 6 -19 9 -25 5 -5 -3 -10 -1 -10 5 0
6 -4 8 -10 5 -5 -3 -16 -3 -22 1 -7 5 -20 9 -28 9 -14 1 -16 -16 -15 -119 1
-67 -2 -125 -5 -131 -4 -5 -7 -81 -6 -168 1 -86 -2 -157 -6 -157 -5 0 -8 -6
-8 -14 0 -13 -65 -43 -82 -38 -5 1 -8 -3 -8 -9 0 -6 -7 -9 -15 -5 -8 3 -15 1
-15 -4 0 -5 -7 -7 -15 -4 -8 4 -15 1 -15 -6 0 -6 -4 -9 -9 -5 -5 3 -12 1 -16
-5 -4 -6 -10 -8 -15 -5 -5 3 -11 1 -15 -5 -4 -6 -11 -8 -16 -5 -5 4 -9 1 -9
-5 0 -6 -4 -9 -9 -5 -5 3 -12 1 -16 -5 -4 -6 -10 -8 -15 -5 -5 3 -11 1 -15 -5
-4 -6 -11 -8 -16 -5 -5 4 -9 2 -9 -4 0 -6 -7 -8 -15 -5 -8 4 -15 2 -15 -3 0
-5 -12 -10 -27 -11 -15 -1 -30 -8 -35 -15 -4 -6 -8 -8 -8 -3 0 5 -7 3 -15 -4
-8 -7 -15 -9 -15 -5 0 4 -7 2 -15 -5 -8 -7 -15 -9 -15 -5 0 4 -7 2 -15 -5 -8
-7 -15 -9 -15 -5 0 4 -6 2 -13 -4 -8 -6 -16 -8 -20 -5 -3 3 -10 -4 -17 -15 -9
-17 -8 -22 5 -27 8 -3 15 -10 15 -15 0 -15 92 -149 102 -149 5 0 7 -4 4 -8 -3
-5 6 -20 19 -34 13 -14 21 -28 18 -32 -3 -3 2 -8 11 -12 9 -3 13 -10 10 -15
-3 -5 2 -12 10 -15 9 -3 14 -9 11 -13 -2 -4 7 -19 20 -33 13 -14 21 -28 18
-32 -3 -3 2 -8 11 -12 9 -3 16 -13 16 -20 0 -8 7 -17 15 -20 8 -4 13 -9 10
-14 -2 -4 5 -17 17 -30 11 -12 17 -25 11 -29 -5 -3 -22 -27 -38 -53 -17 -27
-33 -48 -37 -48 -5 0 -8 -7 -8 -15 0 -8 -5 -15 -11 -15 -5 0 -8 -4 -5 -9 3 -5
-1 -12 -10 -15 -8 -3 -13 -10 -10 -15 3 -5 -1 -12 -10 -15 -8 -3 -13 -10 -10
-15 3 -5 -1 -12 -10 -15 -9 -4 -14 -9 -11 -12 3 -4 -5 -18 -19 -32 -13 -15
-24 -32 -24 -39 0 -7 -4 -13 -8 -13 -5 0 -17 -16 -28 -35 -10 -19 -21 -35 -25
-35 -4 0 -12 -13 -19 -30 -7 -17 -16 -30 -20 -30 -4 0 -10 -8 -14 -17 -3 -10
-9 -24 -12 -32 -4 -9 -2 -11 5 -7 6 4 11 2 11 -5 0 -7 3 -9 7 -6 3 4 12 2 20
-4 7 -6 13 -9 13 -5 0 4 14 -1 30 -9 17 -9 34 -13 39 -11 5 3 14 -1 21 -9 6
-7 18 -11 26 -8 8 3 14 0 14 -7 0 -7 7 -10 15 -6 8 3 15 0 15 -6 0 -6 3 -8 7
-5 3 4 12 2 20 -5 7 -6 16 -8 20 -5 3 4 13 1 21 -5 8 -7 21 -13 29 -14 8 -1
22 -6 31 -10 9 -4 19 -8 22 -9 3 -1 14 -5 25 -9 75 -29 93 -34 99 -29 3 4 6 1
6 -5 0 -6 7 -9 15 -6 8 4 15 1 15 -4 0 -6 9 -13 20 -17 11 -3 19 -9 19 -13 -1
-4 0 -9 1 -12 1 -3 4 -77 6 -165 8 -364 10 -404 16 -410 4 -4 13 -3 20 1 7 4
19 9 28 10 32 5 50 10 56 16 3 4 12 4 20 1 8 -3 14 0 14 7 0 7 7 10 15 6 8 -3
15 -1 15 3 0 5 8 8 18 6 9 -1 22 0 27 4 6 3 13 6 18 7 4 1 8 2 10 4 1 1 10 3
20 5 10 2 26 7 35 11 16 6 41 12 70 16 6 1 12 5 12 9 0 4 9 6 20 4 11 -2 20 1
20 7 0 6 3 9 6 6 3 -4 20 -2 37 4 18 5 39 11 47 13 8 2 16 4 18 5 1 2 5 3 10
4 4 1 12 5 19 9 7 5 21 -1 33 -13 11 -11 17 -20 14 -20 -4 0 5 -11 20 -25 15
-14 23 -25 19 -25 -4 0 1 -7 12 -16 11 -8 20 -18 20 -22 0 -7 26 -41 58 -74 9
-10 14 -18 10 -18 -5 0 4 -11 19 -24 15 -12 25 -26 22 -29 -3 -3 4 -10 15 -17
12 -6 19 -15 16 -20 -3 -4 6 -17 20 -28 14 -11 25 -25 25 -30 0 -6 8 -16 18
-21 9 -6 13 -11 8 -11 -5 0 2 -10 15 -22 14 -13 26 -27 27 -33 1 -5 11 -10 22
-10 11 0 19 3 18 7 -2 3 9 16 25 28 15 12 27 28 27 35 0 8 8 19 18 24 9 6 13
11 8 11 -5 0 3 10 18 21 15 12 25 23 22 26 -5 5 27 46 57 72 9 8 17 19 17 23
0 8 22 36 50 66 8 9 15 18 15 21 0 7 33 46 59 72 11 11 16 19 12 19 -11 0 16
25 35 32 9 4 22 1 28 -5 6 -6 11 -7 11 -1 0 5 4 4 8 -3 4 -6 19 -13 34 -15 15
-2 30 -7 34 -10 3 -4 12 -4 20 -1 8 3 14 1 14 -4 0 -5 6 -10 13 -11 6 0 23 -3
37 -7 14 -4 32 -8 40 -10 8 -1 23 -5 32 -9 9 -4 25 -9 35 -11 10 -2 20 -4 23
-6 3 -1 10 -3 15 -4 6 -2 13 -4 18 -5 4 -1 10 -3 15 -5 4 -1 14 -5 22 -8 8 -4
26 -9 40 -11 14 -3 26 -5 28 -7 1 -1 5 -2 10 -3 4 -1 13 -5 20 -9 6 -5 16 -6
21 -2 5 3 12 1 15 -4 4 -5 14 -8 24 -7 15 3 17 17 18 124 1 67 3 125 4 130 2
4 4 75 5 157 2 83 3 157 4 166 1 13 39 40 61 43 3 1 28 9 55 19 64 24 74 27
79 24 1 -1 10 4 19 12 10 7 17 11 17 7 0 -4 15 1 33 11 17 9 41 18 52 20 11 2
24 8 29 13 4 4 15 6 22 3 8 -3 14 0 14 6 0 6 7 8 15 5 8 -4 15 -1 15 6 0 6 4
9 9 5 5 -3 12 -1 16 5 4 6 11 8 16 5 5 -4 9 -1 9 6 0 7 3 10 6 6 4 -3 22 0 40
8 19 8 34 11 34 8 0 -3 7 0 15 7 13 11 13 16 -2 41 -10 16 -21 29 -26 29 -4 0
-6 4 -3 8 3 5 -3 18 -12 28 -10 10 -28 36 -41 57 -12 20 -27 37 -32 37 -6 0
-8 4 -5 8 3 5 -6 20 -20 35 -14 15 -21 27 -17 27 4 0 0 5 -10 11 -9 6 -15 14
-12 20 4 5 -1 12 -9 15 -9 3 -13 10 -10 15 3 5 -2 12 -10 15 -9 3 -13 10 -10
15 3 5 0 9 -5 9 -6 0 -11 7 -11 15 0 8 -9 20 -20 27 -11 7 -20 18 -20 24 0 5
-8 19 -18 30 -23 24 -35 54 -22 54 6 0 10 7 10 15 0 8 5 15 11 15 5 0 7 5 4
10 -3 6 1 13 9 16 9 3 16 12 16 19 0 7 7 16 16 19 9 4 14 9 11 12 -3 4 5 18
18 32 13 14 22 29 19 34 -3 4 -1 8 3 8 5 0 17 15 27 33 11 17 28 42 39 55 11
12 18 22 14 22 -3 0 7 14 23 32 16 17 28 34 26 36 -3 2 5 14 16 27 11 13 20
26 19 29 0 3 9 17 21 31 22 25 34 60 18 50 -5 -3 -11 -1 -15 5 -4 6 -11 8 -16
5 -5 -4 -9 -2 -9 3 0 8 -39 20 -75 23 -5 0 -18 7 -27 16 -9 8 -22 12 -27 8 -6
-3 -11 -1 -11 5 0 7 -7 10 -15 6 -8 -3 -15 -1 -15 4 0 5 -7 7 -15 4 -8 -4 -15
-1 -15 5 0 6 -3 10 -7 10 -5 -1 -11 0 -15 1 -5 1 -11 3 -15 4 -5 1 -18 7 -31
14 -12 7 -27 10 -32 7 -6 -3 -10 -1 -10 5 0 6 -4 9 -9 5 -5 -3 -12 -1 -16 5
-4 6 -11 8 -16 5 -5 -4 -9 -1 -9 5 0 7 -7 10 -15 6 -8 -3 -15 -1 -15 4 0 6 -3
9 -7 9 -5 -1 -11 0 -15 1 -5 1 -12 4 -18 5 -5 1 -12 4 -15 5 -6 3 -12 5 -42
15 -13 4 -23 14 -23 21 0 8 -3 14 -8 14 -4 0 -7 71 -6 158 0 86 -2 162 -6 167
-3 6 -6 65 -5 131 0 103 -2 121 -15 119 -8 -2 -16 -4 -17 -5 -2 -2 -12 -4 -23
-5 -11 -1 -21 -3 -22 -5 -4 -2 -41 -11 -55 -12 -7 -1 -13 -4 -13 -7 0 -4 -12
-8 -27 -9 -15 -1 -29 -5 -32 -10 -6 -7 -10 -8 -54 -16 -12 -3 -24 -5 -27 -6
-3 -2 -9 -2 -14 -1 -4 1 -13 -3 -20 -8 -6 -5 -24 -11 -41 -14 -16 -2 -47 -11
-67 -20 -20 -8 -39 -13 -42 -10 -3 3 -12 1 -19 -5 -8 -7 -17 -9 -20 -5 -4 3
-7 1 -7 -4 0 -6 -8 -10 -17 -8 -10 1 -24 -2 -31 -8 -10 -8 -19 -3 -35 18 -12
16 -29 36 -38 45 -8 9 -18 24 -22 33 -3 9 -11 17 -17 17 -5 0 -10 4 -10 10 0
10 -20 37 -52 72 -10 10 -18 22 -18 28 0 5 -9 14 -20 20 -11 6 -19 14 -17 19
1 5 -9 18 -22 30 -13 12 -20 21 -16 21 5 0 0 9 -11 20 -31 31 -44 49 -44 59 0
5 -12 19 -26 30 -15 12 -24 21 -20 21 4 0 1 7 -8 15 -18 18 -18 18 -34 0z m78
-466 c0 -3 23 -5 51 -4 27 1 52 -2 55 -7 3 -4 16 -6 29 -4 14 3 27 1 30 -4 3
-5 14 -7 25 -5 11 2 20 0 20 -4 0 -4 6 -8 13 -9 23 -1 56 -11 77 -22 12 -6 24
-9 28 -6 3 3 14 -1 24 -11 10 -9 18 -13 18 -9 0 4 10 1 23 -6 12 -7 25 -11 30
-10 4 1 7 -2 7 -6 0 -5 20 -17 45 -28 25 -10 45 -22 45 -27 0 -4 4 -6 8 -3 7
4 24 -7 79 -54 7 -5 15 -10 17 -10 9 0 44 -31 119 -107 90 -90 116 -121 109
-127 -3 -3 3 -8 12 -12 9 -3 16 -10 16 -15 0 -11 40 -70 53 -80 5 -3 9 -9 9
-12 0 -19 12 -47 19 -47 5 0 9 -7 9 -15 0 -15 4 -24 34 -82 9 -18 14 -33 11
-33 -3 0 0 -10 7 -22 14 -27 19 -46 19 -70 0 -10 4 -18 9 -18 4 0 7 -8 5 -17
-1 -10 0 -22 3 -27 7 -12 13 -67 14 -121 0 -22 3 -44 7 -50 8 -10 6 -77 -4
-170 -3 -27 -7 -61 -8 -75 -1 -14 -5 -29 -9 -35 -3 -5 -4 -18 -3 -27 2 -10 -1
-18 -7 -18 -6 0 -8 -6 -5 -14 3 -7 0 -19 -6 -25 -6 -6 -7 -11 -3 -11 5 0 3 -7
-4 -15 -7 -8 -9 -15 -5 -15 4 0 2 -7 -5 -15 -6 -8 -9 -19 -5 -25 3 -5 1 -10
-4 -10 -6 0 -11 -4 -11 -9 0 -5 -5 -22 -12 -38 -6 -15 -11 -31 -10 -35 1 -5
-1 -8 -5 -8 -5 0 -17 -20 -28 -45 -11 -25 -23 -45 -28 -45 -4 0 -5 -4 -2 -10
3 -5 1 -10 -4 -10 -6 0 -11 -7 -11 -15 0 -8 -5 -15 -12 -15 -6 0 -8 -3 -5 -7
4 -3 -2 -12 -13 -20 -11 -8 -20 -20 -20 -27 0 -8 -7 -16 -15 -20 -8 -3 -14 -9
-13 -13 1 -4 -33 -42 -75 -83 -112 -108 -127 -122 -127 -113 0 4 -9 -2 -20
-13 -30 -30 -49 -45 -54 -42 -3 2 -16 -6 -28 -17 -13 -10 -25 -19 -28 -18 -13
1 -60 -20 -60 -28 0 -5 -3 -8 -7 -7 -5 1 -21 -5 -38 -12 -16 -7 -33 -14 -37
-15 -5 -2 -10 -4 -13 -5 -3 -1 -9 -4 -15 -5 -5 -1 -13 -4 -17 -5 -5 -1 -11 -2
-15 -1 -5 0 -8 -3 -8 -8 0 -6 -9 -8 -20 -6 -11 2 -20 0 -20 -5 0 -5 -7 -7 -15
-4 -8 4 -15 2 -15 -3 0 -5 -8 -10 -17 -11 -10 -1 -36 -3 -58 -6 -22 -2 -40 -5
-40 -6 0 -4 -95 -10 -155 -10 -58 0 -165 6 -165 10 0 1 -11 4 -25 6 -78 11
-94 15 -106 25 -8 6 -21 9 -29 5 -8 -3 -15 -1 -15 5 0 6 -4 8 -9 4 -5 -3 -12
-1 -16 5 -4 6 -10 8 -15 5 -5 -3 -11 -1 -15 5 -4 6 -11 8 -16 5 -5 -4 -9 -2
-9 4 0 6 -7 8 -15 5 -8 -4 -15 -1 -15 6 0 6 -4 8 -10 5 -5 -3 -10 -3 -10 2 0
9 -48 33 -67 33 -7 0 -13 5 -13 11 0 5 -4 8 -9 5 -5 -3 -12 1 -15 10 -3 8 -10
13 -15 10 -5 -3 -14 1 -21 9 -7 8 -18 15 -24 15 -6 0 -17 9 -24 21 -7 12 -16
19 -19 16 -6 -7 -26 11 -132 118 -102 103 -110 112 -104 119 3 3 -2 8 -11 12
-9 3 -16 12 -16 19 0 7 -7 16 -16 19 -8 3 -13 10 -10 15 4 5 0 15 -7 23 -7 7
-23 36 -37 63 -14 28 -27 52 -30 55 -6 6 -30 67 -35 90 -2 8 -4 17 -5 20 -1 3
-2 8 -1 13 0 4 -3 7 -9 7 -5 0 -7 7 -4 15 4 8 2 15 -4 15 -6 0 -8 9 -5 20 3
11 1 20 -5 20 -6 0 -9 8 -7 18 1 9 0 22 -3 27 -7 11 -11 36 -16 110 -2 28 -5
50 -6 50 -6 0 -5 127 1 131 4 2 6 26 4 54 -2 27 1 50 5 50 5 0 7 11 5 25 -1
14 1 28 6 30 4 3 8 13 8 23 0 14 4 40 10 60 1 1 1 4 1 7 0 3 7 19 15 35 9 17
13 30 9 30 -4 0 -1 6 5 13 6 8 8 17 4 20 -3 4 -1 7 5 7 6 0 9 7 6 15 -4 8 -1
15 5 15 6 0 11 9 11 20 0 11 5 20 11 20 5 0 7 5 4 10 -3 6 -3 10 2 10 4 0 14
13 21 30 17 38 101 163 116 172 6 4 8 8 4 8 -7 0 118 127 166 168 14 12 31 22
36 22 6 0 13 7 16 15 4 8 12 15 19 15 7 0 16 7 19 16 3 8 10 13 15 9 5 -3 13
-1 16 5 7 11 188 100 214 105 9 2 17 4 19 4 1 1 4 0 5 -1 2 -2 11 3 20 11 10
7 17 11 17 7 0 -3 15 0 34 8 19 8 37 12 40 9 2 -3 11 -1 18 3 7 5 24 9 38 9
14 0 30 3 35 6 6 3 29 5 53 4 23 0 42 1 42 5 0 3 27 5 60 5 33 0 60 -3 60 -6z"/>
<path d="M2485 3268 c-17 -10 -27 -18 -23 -18 4 0 0 -9 -9 -20 -11 -12 -18
-39 -19 -69 -2 -47 -28 -96 -46 -85 -4 3 -8 0 -8 -5 0 -6 -7 -11 -15 -11 -9 0
-18 -7 -21 -15 -4 -8 -10 -15 -16 -15 -5 0 -15 -6 -23 -12 -30 -29 -55 -47
-55 -40 -1 4 -10 -4 -20 -17 -11 -13 -20 -20 -20 -17 0 4 -10 -2 -22 -14 -12
-11 -25 -20 -28 -20 -4 0 -20 -11 -36 -25 -50 -44 -54 -47 -54 -36 0 11 -37
23 -80 26 -71 5 -124 -50 -126 -131 -1 -30 3 -54 7 -54 5 0 8 -3 6 -8 -3 -11
41 -52 57 -52 8 0 17 -4 21 -10 3 -5 12 -7 19 -4 7 3 19 -2 26 -11 7 -8 9 -15
5 -15 -4 0 -2 -6 4 -13 6 -8 13 -24 15 -38 3 -13 5 -24 6 -24 1 0 3 -11 6 -24
2 -14 9 -30 14 -36 5 -6 12 -22 14 -36 3 -13 5 -25 7 -26 1 -2 3 -7 4 -13 1
-5 4 -13 5 -17 1 -5 2 -11 1 -15 0 -5 3 -8 9 -8 5 0 7 -7 4 -15 -4 -8 -1 -15
6 -15 6 0 9 -4 5 -9 -3 -5 -1 -12 4 -16 5 -3 8 -14 6 -25 -2 -11 1 -20 7 -20
6 0 9 -3 5 -6 -3 -3 -2 -17 3 -30 6 -15 6 -24 0 -24 -11 0 -41 -42 -44 -62 -1
-7 -5 -18 -8 -24 -6 -9 -4 -43 2 -51 2 -2 3 -6 4 -10 3 -17 39 -63 48 -63 5 0
16 -6 23 -14 10 -10 90 -16 90 -6 0 1 7 3 16 5 22 4 59 37 53 47 -3 4 0 8 6 8
6 0 9 3 7 8 -14 22 32 27 233 27 198 0 247 -5 234 -27 -6 -10 56 -69 66 -63 5
3 11 1 14 -3 5 -8 22 -9 78 -4 26 3 87 70 83 92 -2 11 0 20 5 20 4 0 7 8 5 18
-2 9 -4 17 -5 17 -1 0 -3 8 -5 18 -4 23 -33 67 -44 67 -4 0 -8 7 -8 15 0 8 5
15 10 15 5 0 7 6 4 14 -3 7 0 19 6 25 6 6 8 11 4 11 -4 0 -1 14 8 30 9 17 13
30 9 30 -4 0 -1 7 6 15 7 8 9 15 5 15 -4 0 -2 7 5 15 7 8 9 15 5 15 -4 0 -2 7
5 15 7 8 10 15 7 15 -4 0 2 20 13 45 11 25 20 47 20 50 0 3 0 6 1 8 0 1 2 13
5 26 2 14 9 30 15 38 6 7 8 13 4 13 -4 0 -2 6 5 14 6 8 18 12 26 9 8 -3 14 -1
14 4 0 5 9 9 20 10 11 1 31 13 46 26 22 21 26 34 28 86 2 51 -1 66 -18 86 -12
14 -27 25 -34 25 -7 0 -12 5 -12 11 0 5 -4 7 -10 4 -5 -3 -10 -2 -10 3 0 13
-86 7 -103 -6 -13 -12 -57 -5 -57 8 0 4 -20 20 -45 36 -25 15 -45 32 -45 37 0
4 -4 5 -10 2 -5 -3 -10 -2 -10 4 0 5 -16 19 -35 31 -20 12 -42 29 -50 37 -8 8
-15 12 -15 8 0 -3 -11 6 -25 20 -14 14 -30 25 -35 25 -5 0 -20 11 -33 24 -20
20 -24 33 -22 70 2 25 -1 46 -5 46 -4 0 -11 12 -14 26 -4 15 -9 24 -12 21 -3
-3 -14 2 -25 11 -27 23 -106 23 -144 0z m105 -48 c3 -1 8 -2 13 -1 4 0 7 -6 7
-14 0 -8 4 -15 8 -15 5 0 8 -13 8 -30 0 -16 -3 -30 -8 -30 -4 0 -8 -7 -8 -15
0 -15 -8 -17 -50 -17 -11 0 -26 0 -34 1 -19 1 -32 44 -27 94 2 21 61 39 91 27z
m-84 -181 c6 -5 14 -6 17 -2 9 8 9 10 11 -224 1 -185 -1 -202 -16 -207 -10 -2
-18 0 -18 6 0 5 -4 7 -9 3 -5 -3 -13 0 -16 6 -4 5 -13 8 -21 5 -7 -3 -16 -1
-19 5 -4 5 -11 7 -16 4 -5 -4 -9 -1 -9 5 0 6 -6 10 -12 8 -7 -1 -23 3 -36 10
-12 7 -27 10 -32 7 -6 -3 -10 -1 -10 6 0 7 -3 9 -7 6 -3 -4 -12 -2 -20 4 -7 6
-13 9 -13 6 0 -3 -16 1 -35 9 -19 8 -35 11 -35 8 0 -4 -7 -1 -15 6 -8 7 -15 9
-15 5 0 -4 -6 -2 -13 4 -8 6 -16 9 -19 6 -9 -9 -32 27 -34 52 0 14 6 27 15 31
15 6 40 25 69 52 9 8 17 13 20 12 2 -2 16 7 32 21 15 14 42 33 60 42 17 9 34
23 37 31 3 7 12 14 19 14 8 0 17 7 20 15 4 8 12 15 20 15 8 0 14 5 14 11 0 5
4 7 10 4 5 -3 15 3 21 14 12 18 30 18 55 0z m184 -16 c0 8 21 -7 47 -35 9 -9
20 -15 25 -12 4 3 8 1 8 -5 0 -5 16 -19 35 -31 20 -12 42 -29 50 -37 8 -8 15
-11 15 -6 0 4 4 3 8 -3 4 -5 25 -23 47 -39 22 -17 43 -34 47 -40 4 -5 8 -6 8
-2 0 4 6 2 13 -4 13 -13 16 -63 5 -75 -3 -3 -14 -7 -25 -9 -10 -2 -18 -4 -18
-5 0 -2 -14 -5 -52 -14 -12 -2 -31 -10 -42 -16 -12 -6 -21 -8 -21 -4 0 3 -7 1
-15 -6 -8 -7 -15 -9 -15 -5 0 4 -7 2 -15 -5 -8 -7 -15 -9 -15 -5 0 4 -6 2 -13
-4 -8 -6 -17 -8 -20 -4 -4 3 -7 1 -7 -6 0 -7 -5 -9 -10 -6 -6 4 -17 1 -25 -5
-8 -7 -15 -9 -15 -5 0 4 -6 2 -13 -4 -8 -6 -17 -8 -20 -4 -4 3 -7 1 -7 -6 0
-7 -7 -11 -15 -8 -8 4 -17 2 -20 -3 -3 -5 -11 -7 -18 -4 -9 3 -12 56 -11 207
2 231 2 232 10 225 3 -4 17 0 31 7 23 12 28 11 44 -8 10 -12 18 -18 19 -14z
m-654 -230 c17 -11 21 -22 18 -49 -1 -19 -10 -41 -19 -50 -8 -8 -15 -13 -15
-9 0 3 -8 1 -18 -4 -13 -7 -23 -6 -30 1 -7 7 -12 8 -12 3 0 -4 -8 2 -19 14
-24 28 -20 76 10 99 24 20 49 19 85 -5z m1131 8 c30 -25 36 -74 12 -102 -10
-12 -19 -18 -19 -14 0 5 -5 4 -12 -3 -7 -7 -17 -8 -30 -1 -10 5 -18 7 -18 4 0
-4 -7 0 -15 9 -24 24 -24 78 0 97 18 15 42 27 55 28 3 0 15 -8 27 -18z m-1032
-135 c7 3 16 1 19 -5 4 -6 13 -8 21 -4 8 3 15 0 15 -6 0 -6 3 -10 8 -10 4 1 9
1 12 -1 3 -1 16 -4 30 -6 13 -3 29 -9 34 -14 4 -4 15 -6 22 -3 8 3 14 -1 14
-8 0 -7 3 -9 7 -6 3 4 12 2 20 -4 7 -6 13 -8 13 -4 0 4 7 2 15 -5 8 -7 15 -9
15 -5 0 4 7 2 15 -5 8 -7 15 -9 15 -5 0 4 7 2 15 -5 8 -6 19 -9 24 -6 5 4 12
2 16 -4 4 -6 10 -8 15 -5 4 3 10 -2 14 -10 3 -8 -10 -35 -29 -60 -19 -25 -35
-47 -35 -50 0 -3 -8 -14 -17 -24 -32 -35 -44 -51 -38 -51 3 0 -8 -14 -25 -32
-17 -17 -28 -33 -26 -35 2 -3 -3 -13 -12 -23 -32 -36 -47 -55 -48 -62 -1 -5
-2 -11 -3 -14 0 -4 -7 -2 -13 3 -7 6 -21 9 -31 8 -11 -2 -19 5 -23 23 -4 15
-11 32 -15 38 -5 6 -11 21 -13 35 -3 13 -5 26 -6 29 -2 3 -2 8 -1 13 0 4 -4 7
-10 7 -6 0 -9 7 -5 15 3 8 1 15 -5 15 -6 0 -7 5 -4 10 4 6 1 17 -5 25 -7 8 -9
15 -5 15 4 0 2 6 -4 13 -6 8 -8 17 -4 20 3 4 1 7 -6 7 -7 0 -10 4 -7 9 3 5 -1
21 -9 37 -7 15 -12 31 -9 36 3 5 0 15 -6 23 -7 8 -9 15 -5 15 4 0 2 7 -5 15
-10 12 -8 20 12 44 12 16 27 25 32 21 5 -5 14 -6 21 -4z m920 -48 c1 -10 -2
-18 -5 -18 -6 0 -8 -8 -12 -50 -1 -11 -6 -20 -11 -20 -5 0 -7 -7 -3 -15 3 -8
1 -15 -4 -15 -5 0 -7 -7 -4 -15 4 -8 2 -15 -3 -15 -5 0 -10 -7 -11 -15 -1 -8
-3 -22 -4 -30 -1 -8 -6 -15 -11 -15 -5 0 -7 -7 -3 -15 3 -8 1 -15 -4 -15 -5 0
-7 -7 -4 -15 4 -8 1 -15 -6 -15 -7 0 -10 -7 -6 -15 3 -8 0 -15 -6 -15 -6 0 -9
-3 -5 -6 3 -4 0 -18 -7 -33 -7 -14 -11 -32 -9 -38 3 -7 0 -13 -6 -13 -6 0 -11
-6 -11 -14 0 -9 -7 -13 -20 -11 -11 2 -20 0 -20 -6 0 -5 -9 -4 -20 3 -10 7
-17 14 -15 17 5 4 -61 90 -80 103 -6 5 -6 8 0 8 6 0 1 7 -9 15 -11 8 -17 15
-13 15 7 0 -14 28 -45 61 -9 9 -14 20 -11 23 3 3 -2 8 -11 12 -9 3 -13 10 -10
15 3 5 1 9 -3 9 -8 0 -43 52 -43 63 0 3 9 7 20 10 11 3 23 6 25 7 3 0 24 8 47
16 24 9 48 17 53 18 6 1 15 4 20 7 6 3 31 12 58 19 26 7 50 16 53 21 2 4 11 6
19 2 8 -3 15 0 15 7 0 7 7 10 15 7 8 -4 17 -2 21 4 3 6 12 8 20 5 7 -3 16 -1
19 4 8 12 50 -31 50 -52z m-467 -145 c9 -9 16 -19 15 -22 -2 -7 33 -55 60 -83
9 -10 14 -18 10 -18 -5 0 1 -7 11 -15 11 -8 17 -15 13 -15 -7 0 14 -28 46 -62
9 -10 14 -18 10 -18 -5 0 1 -7 11 -15 11 -8 16 -15 11 -15 -5 0 1 -9 13 -20
24 -23 27 -35 12 -45 -6 -4 -8 -9 -6 -13 13 -22 -36 -27 -237 -27 l-217 0 -13
25 c-15 29 -11 49 12 67 9 7 12 13 7 13 -6 0 -1 6 10 14 10 8 19 18 19 23 0 5
7 17 15 26 30 32 41 47 35 47 -5 0 17 29 43 56 7 8 10 14 5 14 -4 0 3 7 15 16
12 8 20 19 17 24 -3 4 2 11 11 14 9 4 14 9 11 12 -8 8 15 33 31 34 7 0 21 -8
30 -17z m-329 -355 c19 -27 20 -35 8 -70 -5 -16 -15 -28 -23 -28 -8 0 -14 -4
-14 -9 0 -7 -49 -7 -54 1 -1 2 -12 16 -24 31 -22 30 -20 42 16 87 19 24 71 16
91 -12z m694 8 c14 -13 23 -27 20 -30 -4 -3 -2 -6 4 -6 5 0 10 -7 10 -15 0 -8
-4 -15 -9 -15 -5 0 -7 -3 -5 -7 5 -11 -36 -48 -53 -47 -32 1 -58 16 -65 37
-12 35 -12 41 -2 55 5 6 6 12 3 12 -4 0 -1 6 6 14 7 8 15 12 18 11 3 -2 12 0
20 6 21 13 24 12 53 -15z"/>
</g>
</svg>
