<?xml version="1.0" standalone="no"?>
<!DOCTYPE svg PUBLIC "-//W3C//DTD SVG 20010904//EN"
 "http://www.w3.org/TR/2001/REC-SVG-20010904/DTD/svg10.dtd">
<svg version="1.0" xmlns="http://www.w3.org/2000/svg"
 width="512.000000pt" height="512.000000pt" viewBox="0 0 512.000000 512.000000"
 preserveAspectRatio="xMidYMid meet">
<metadata>
Created by potrace 1.14, written by Peter Selinger 2001-2017
</metadata>
<g transform="translate(0.000000,512.000000) scale(0.100000,-0.100000)"
fill="#000000" stroke="none">
<path d="M1130 4200 c0 -3 -56 -5 -125 -5 -79 0 -125 -3 -126 -10 0 -5 -3 -19
-6 -30 -9 -36 -9 -125 -1 -125 5 0 7 -4 3 -9 -3 -5 1 -15 8 -23 7 -7 16 -21
20 -30 3 -10 11 -18 17 -18 6 0 8 -5 5 -10 -3 -6 1 -13 9 -16 9 -3 14 -9 11
-13 -2 -4 6 -18 19 -32 12 -13 25 -32 29 -41 3 -10 11 -18 17 -18 6 0 8 -4 5
-10 -3 -5 -2 -10 2 -10 5 0 17 -15 28 -32 10 -18 27 -40 37 -49 10 -9 18 -21
18 -28 0 -6 5 -11 11 -11 5 0 8 -4 4 -9 -3 -6 1 -13 9 -18 8 -4 24 -25 36 -45
12 -21 26 -38 31 -38 5 0 8 -4 7 -9 -2 -5 9 -22 24 -39 14 -17 25 -32 23 -34
-3 -2 9 -19 25 -36 16 -18 26 -32 22 -32 -4 0 1 -5 11 -11 9 -6 15 -14 12 -20
-4 -5 -2 -9 2 -9 5 0 19 -18 33 -40 14 -22 28 -40 32 -40 5 0 8 -6 8 -14 0 -8
7 -16 15 -20 8 -3 15 -12 15 -20 0 -7 7 -17 16 -20 8 -3 13 -10 9 -15 -3 -5 4
-16 15 -24 11 -7 17 -17 14 -20 -4 -4 1 -9 10 -13 9 -3 13 -10 10 -15 -3 -5
-2 -9 3 -9 4 0 22 -21 38 -45 17 -25 34 -45 38 -45 5 0 6 -4 2 -9 -3 -6 4 -15
15 -21 11 -6 18 -14 16 -19 -3 -4 4 -13 14 -21 10 -8 17 -17 14 -22 -3 -4 2
-11 10 -14 9 -3 16 -12 16 -20 0 -8 5 -14 10 -14 6 0 10 -7 10 -15 0 -8 4 -15
9 -15 5 0 12 -8 15 -17 3 -10 18 -31 33 -48 16 -16 27 -33 25 -38 -1 -4 5 -10
13 -13 8 -4 15 -13 15 -20 0 -8 7 -17 15 -20 8 -4 15 -10 15 -16 0 -8 20 -37
65 -96 6 -7 19 -22 29 -32 11 -11 16 -20 12 -20 -4 0 5 -12 19 -27 14 -15 25
-32 25 -38 0 -6 8 -18 18 -27 26 -25 42 -46 42 -57 0 -5 7 -11 15 -15 8 -3 15
-12 15 -21 0 -8 5 -15 10 -15 6 0 -8 -18 -31 -40 -23 -22 -39 -40 -35 -40 4 0
-12 -20 -36 -45 -84 -86 -118 -124 -118 -130 0 -3 -15 -21 -32 -40 -81 -84
-99 -105 -101 -112 -1 -4 -18 -25 -39 -45 -21 -21 -38 -40 -38 -43 0 -3 -17
-23 -37 -44 -21 -21 -58 -62 -83 -91 -25 -29 -58 -66 -74 -81 -16 -16 -25 -29
-21 -29 5 0 -10 -17 -33 -38 -23 -22 -42 -42 -42 -45 0 -3 -19 -24 -42 -47
-23 -22 -39 -40 -35 -40 4 0 -12 -20 -35 -44 -103 -106 -119 -125 -117 -128 3
-3 -20 -28 -117 -130 -30 -31 -54 -59 -54 -62 0 -3 -16 -23 -36 -45 -20 -21
-35 -42 -34 -46 1 -4 -4 -12 -12 -16 -8 -6 -9 -12 -3 -17 6 -4 10 -14 10 -22
0 -10 9 -14 28 -13 15 1 27 -1 27 -5 0 -4 620 -7 1377 -7 l1377 0 7 27 c4 16
6 39 4 53 -1 14 1 25 5 25 3 0 6 17 5 37 -1 21 1 43 4 48 3 6 7 28 8 50 1 22
5 67 9 100 3 33 7 77 7 97 1 21 5 38 8 38 4 0 6 20 4 45 -1 25 1 47 5 50 4 2
6 23 5 45 -1 22 1 43 6 45 4 3 6 25 4 50 -1 25 1 45 5 45 4 0 6 20 5 45 -1 25
1 45 5 45 4 0 7 17 6 38 -2 20 0 42 3 47 3 6 6 27 7 48 1 20 3 38 4 40 1 1 3
18 5 37 1 19 6 53 9 75 15 90 24 81 -78 79 -50 -1 -96 -2 -102 -3 -6 0 -11
-20 -12 -43 -1 -24 -3 -55 -3 -70 -1 -16 -5 -28 -10 -28 -5 0 -7 -13 -4 -30 3
-16 2 -30 -3 -30 -4 0 -9 -11 -10 -25 -1 -14 -3 -36 -4 -50 -1 -14 -5 -25 -8
-25 -3 0 -7 -8 -8 -17 -2 -19 -9 -54 -12 -63 -1 -3 -2 -8 -1 -12 0 -5 -4 -8
-10 -8 -6 0 -9 -7 -5 -15 3 -8 0 -15 -6 -15 -6 0 -8 -3 -5 -7 4 -3 0 -17 -8
-30 -9 -13 -13 -23 -9 -23 4 0 1 -7 -6 -15 -7 -8 -9 -15 -5 -15 5 0 0 -9 -10
-20 -10 -11 -14 -20 -10 -20 4 0 0 -9 -10 -20 -10 -11 -15 -20 -11 -20 7 0 -7
-19 -38 -50 -11 -11 -17 -20 -13 -20 4 0 -13 -20 -37 -45 -25 -25 -48 -45 -51
-45 -3 0 -15 -9 -27 -20 -12 -11 -28 -20 -35 -20 -7 0 -13 -3 -13 -8 0 -8 -55
-35 -80 -39 -8 -1 -16 -7 -18 -13 -2 -5 -8 -8 -13 -4 -5 3 -9 0 -9 -6 0 -6
-12 -8 -30 -5 -16 3 -30 1 -30 -4 0 -5 -11 -9 -25 -10 -14 -1 -36 -1 -50 -2
-14 -1 -25 -5 -25 -9 0 -5 -11 -7 -25 -4 -15 2 -31 1 -38 -3 -7 -4 -30 -9 -52
-10 -22 -1 -71 -5 -110 -8 -88 -7 -1385 -12 -1385 -5 0 5 31 44 82 102 18 21
47 53 63 72 83 96 114 130 154 171 25 25 42 45 38 45 -4 0 9 17 30 39 21 21
54 57 73 80 19 23 52 59 73 81 21 22 36 40 32 40 -3 0 13 18 37 40 24 22 39
40 35 40 -5 0 10 18 33 40 23 22 39 40 36 40 -3 0 11 18 32 39 20 21 55 60 77
86 22 26 56 63 75 81 19 19 31 34 26 34 -4 0 11 18 34 40 23 22 39 40 36 40
-3 0 9 15 27 34 42 44 102 112 103 117 0 2 19 23 42 46 40 40 47 62 29 91 -5
6 -6 12 -3 12 6 0 -17 30 -46 62 -10 10 -18 21 -18 24 0 3 -6 12 -12 19 -29
32 -38 45 -33 45 5 0 -17 28 -42 55 -7 7 -9 15 -6 19 3 3 -2 8 -11 12 -9 3
-16 12 -16 20 0 8 -4 14 -10 14 -5 0 -10 7 -10 15 0 8 -4 15 -9 15 -5 0 -12 8
-15 18 -3 9 -17 29 -30 43 -14 15 -22 29 -19 32 3 3 -4 12 -16 19 -12 7 -21
18 -21 24 0 5 -10 21 -22 34 -13 14 -23 27 -23 30 0 3 -10 16 -22 29 -13 14
-25 33 -29 43 -3 10 -10 18 -15 18 -5 0 -9 6 -9 14 0 8 -7 17 -16 20 -9 4 -14
9 -11 12 5 5 -9 26 -39 58 -5 6 -13 19 -17 29 -3 9 -11 17 -17 17 -5 0 -10 7
-10 15 0 9 -7 18 -15 21 -8 4 -15 13 -15 20 0 8 -7 17 -15 20 -8 4 -12 10 -9
15 3 5 -2 12 -10 15 -9 3 -14 10 -11 14 3 5 -5 16 -17 24 -12 9 -19 16 -14 16
5 0 -1 8 -12 19 -12 10 -19 21 -15 25 3 3 1 6 -5 6 -7 0 -12 5 -12 11 0 6 -6
16 -12 23 -7 8 -20 24 -28 36 -30 45 -85 115 -92 118 -5 2 -8 10 -8 18 0 8 -7
17 -15 20 -8 4 -12 10 -9 15 3 5 2 9 -3 9 -4 0 -21 20 -36 45 -16 25 -34 45
-40 45 -5 0 -7 3 -4 6 4 4 -3 15 -15 25 -11 11 -17 19 -13 19 4 0 -2 8 -14 19
-16 14 -18 21 -9 28 24 17 1333 0 1333 -17 0 -1 18 -4 40 -5 22 -2 40 -4 40
-5 0 -4 41 -12 63 -12 12 0 22 -5 22 -10 0 -6 7 -8 15 -5 8 4 17 2 20 -3 3 -5
13 -9 23 -9 38 -1 52 -5 52 -12 0 -5 7 -6 15 -3 8 4 15 1 15 -6 0 -6 5 -8 10
-5 6 3 10 1 10 -5 0 -7 7 -10 15 -6 8 3 18 0 22 -7 5 -7 21 -19 38 -27 69 -35
195 -165 187 -193 -1 -4 5 -10 13 -13 8 -3 12 -10 9 -15 -3 -5 0 -9 5 -9 6 0
11 -8 11 -18 0 -10 7 -27 15 -38 8 -12 11 -24 8 -28 -3 -3 -2 -6 4 -6 5 0 10
-6 11 -12 1 -13 9 -48 12 -58 1 -3 2 -8 1 -12 0 -5 4 -8 10 -8 6 0 9 -6 6 -14
-3 -8 -3 -17 1 -20 6 -6 11 -24 16 -56 1 -9 5 -21 10 -28 4 -6 4 -16 1 -22 -3
-5 -2 -10 4 -10 5 0 8 -11 5 -24 -2 -14 0 -28 6 -31 6 -4 8 -11 4 -16 -3 -5
-1 -15 4 -22 5 -7 8 -21 6 -31 -1 -11 0 -25 4 -30 3 -6 7 -22 8 -36 1 -14 2
-30 3 -35 0 -7 39 -10 99 -10 l97 0 -3 30 c-1 17 -4 48 -7 70 -3 22 -7 56 -8
75 -1 19 -6 40 -9 46 -4 6 -5 21 -3 34 2 13 1 28 -2 33 -6 10 -10 46 -15 145
-1 17 -5 32 -9 32 -4 0 -6 18 -4 40 1 22 -1 42 -5 45 -4 2 -6 20 -5 40 2 19 0
35 -4 35 -4 0 -7 20 -6 45 1 25 -1 48 -6 50 -4 3 -6 19 -4 35 2 16 1 32 -4 34
-4 3 -6 23 -5 46 1 22 -2 42 -6 45 -4 3 -6 18 -5 35 1 17 -1 32 -5 35 -4 2 -6
25 -5 50 2 25 0 45 -4 45 -4 0 -8 19 -9 43 -1 23 -2 49 -2 57 -1 14 -145 15
-1281 15 -703 0 -1279 -2 -1279 -5z"/>
</g>
</svg>
