<?xml version="1.0" standalone="no"?>
<!DOCTYPE svg PUBLIC "-//W3C//DTD SVG 20010904//EN"
 "http://www.w3.org/TR/2001/REC-SVG-20010904/DTD/svg10.dtd">
<svg version="1.0" xmlns="http://www.w3.org/2000/svg"
 width="2000.000000pt" height="2000.000000pt" viewBox="0 0 2000.000000 2000.000000"
 preserveAspectRatio="xMidYMid meet">
<metadata>
Created by potrace 1.14, written by Peter Selinger 2001-2017
</metadata>
<g transform="translate(0.000000,2000.000000) scale(0.100000,-0.100000)"
fill="#000000" stroke="none">
<path d="M9909 19603 c-46 -60 -87 -112 -91 -118 -5 -5 -43 -55 -85 -110 -43
-55 -80 -102 -83 -105 -3 -3 -17 -21 -30 -40 -13 -19 -27 -37 -30 -40 -3 -3
-37 -45 -75 -95 -38 -49 -137 -178 -220 -285 -83 -107 -277 -357 -430 -555
-153 -198 -298 -385 -322 -415 -47 -60 -338 -437 -460 -595 -203 -263 -286
-366 -305 -376 -27 -15 -38 -12 -303 65 -352 104 -633 186 -705 206 -36 11
-157 46 -270 79 -113 32 -313 91 -445 129 -261 76 -839 244 -1110 324 -93 27
-192 55 -220 63 -27 7 -135 39 -238 69 -104 31 -192 56 -196 56 -3 0 -7 -30
-7 -67 -2 -100 -14 -523 -19 -633 -2 -52 -7 -198 -10 -325 -4 -126 -8 -277
-10 -335 -5 -137 -19 -600 -30 -960 -3 -102 -7 -255 -10 -340 -6 -177 -11
-326 -20 -659 -4 -128 -8 -243 -10 -255 -7 -57 -13 -60 -200 -125 -66 -23
-137 -49 -158 -57 -21 -8 -183 -66 -360 -129 -429 -154 -858 -308 -987 -355
-58 -21 -283 -102 -500 -180 -217 -78 -501 -180 -630 -227 -129 -46 -289 -104
-355 -128 -66 -24 -138 -49 -160 -56 -69 -22 -70 -28 -24 -95 23 -32 101 -147
174 -254 73 -107 171 -251 218 -320 47 -69 138 -201 201 -295 63 -93 138 -204
167 -245 28 -41 112 -165 187 -275 74 -110 163 -240 197 -290 34 -49 101 -147
148 -217 152 -224 259 -380 332 -488 39 -58 111 -163 160 -235 49 -71 112
-164 142 -207 36 -52 53 -86 53 -107 0 -23 -32 -78 -128 -219 -70 -103 -154
-227 -187 -275 -33 -48 -118 -172 -188 -275 -71 -103 -175 -257 -233 -342 -58
-85 -144 -211 -191 -280 -47 -69 -147 -215 -221 -325 -302 -445 -582 -856
-764 -1122 -59 -87 -104 -161 -100 -165 9 -9 67 -30 657 -241 116 -41 221 -80
235 -85 14 -6 97 -36 185 -67 210 -74 292 -104 335 -120 37 -15 729 -263 960
-345 74 -26 146 -53 160 -59 14 -5 129 -47 255 -92 127 -45 286 -101 355 -126
69 -25 150 -54 180 -64 77 -27 87 -47 90 -179 1 -58 3 -141 5 -185 2 -44 6
-188 10 -320 4 -132 8 -276 10 -320 2 -44 6 -183 9 -310 4 -126 9 -286 11
-355 2 -69 7 -217 10 -330 4 -113 8 -246 10 -297 2 -51 6 -202 10 -335 4 -134
8 -281 10 -328 2 -47 6 -193 10 -325 9 -316 11 -365 18 -371 3 -4 34 3 69 14
35 11 128 39 208 62 80 23 189 55 244 72 54 16 106 31 115 33 9 2 111 31 226
65 116 34 296 86 400 116 294 86 593 173 665 194 36 11 223 65 415 121 193 55
433 126 535 156 102 30 194 57 205 60 11 3 58 17 105 30 47 13 92 26 100 29 8
2 50 14 92 25 99 28 115 21 190 -79 31 -42 66 -88 77 -102 17 -21 190 -244
213 -275 4 -5 20 -26 36 -45 15 -19 64 -82 108 -140 43 -58 87 -114 96 -125 9
-11 72 -92 140 -180 416 -538 547 -707 587 -760 25 -32 54 -68 63 -80 9 -11
76 -96 148 -190 72 -93 141 -183 154 -200 13 -16 133 -171 266 -342 133 -172
245 -313 250 -313 7 0 60 67 328 414 34 44 68 88 75 96 7 8 43 56 82 105 66
86 289 374 770 995 122 157 286 368 364 470 79 102 154 199 167 215 35 46 279
361 342 444 73 95 79 100 108 107 16 4 175 -38 477 -126 248 -72 481 -140 517
-150 56 -16 222 -64 655 -191 119 -35 234 -68 255 -73 8 -2 146 -42 305 -89
160 -47 394 -115 520 -152 127 -36 244 -71 260 -76 150 -47 479 -138 483 -134
6 5 7 40 16 355 4 124 9 277 11 340 2 63 7 205 10 315 3 110 8 265 10 345 3
80 7 226 10 325 3 99 7 239 10 310 2 72 7 227 10 345 4 118 8 262 10 320 2 58
7 206 11 330 3 124 7 259 9 300 2 41 4 125 5 185 2 118 16 159 55 171 28 9
589 210 650 234 66 25 577 208 635 227 25 8 54 19 65 24 11 5 83 31 160 58 77
27 223 79 325 116 102 37 264 95 360 130 96 35 234 84 305 110 193 70 377 136
405 145 14 4 63 22 110 40 47 18 90 33 95 34 12 4 41 14 75 28 13 5 58 21 100
35 41 14 77 27 79 29 2 2 -40 68 -93 146 -135 198 -325 478 -431 633 -49 72
-122 180 -164 240 -41 61 -102 151 -136 200 -34 50 -115 169 -180 265 -65 96
-142 209 -170 250 -55 80 -161 235 -320 470 -54 80 -131 192 -170 250 -39 58
-111 164 -160 235 -49 72 -112 164 -142 207 -36 51 -53 86 -53 107 0 29 38 90
284 447 39 57 143 209 231 339 88 130 271 399 407 598 136 199 279 409 318
467 39 58 145 213 235 345 90 132 206 303 259 380 52 77 137 203 190 280 52
77 92 143 88 147 -7 7 -85 36 -337 126 -194 70 -761 274 -1071 386 -98 35
-357 128 -574 206 -217 78 -480 173 -585 210 -207 75 -475 171 -681 245 -161
58 -161 58 -164 205 -1 58 -3 141 -5 185 -2 44 -6 186 -10 315 -3 129 -8 276
-10 325 -2 50 -6 191 -10 315 -3 124 -8 279 -10 345 -2 66 -7 210 -10 320 -3
110 -8 254 -10 320 -2 66 -7 215 -10 330 -3 116 -8 260 -10 320 -2 61 -7 214
-11 340 -9 329 -10 354 -15 359 -6 6 -66 -11 -469 -129 -162 -47 -374 -109
-470 -137 -96 -28 -202 -58 -235 -68 -33 -10 -193 -56 -355 -104 -162 -47
-536 -156 -830 -242 -294 -86 -564 -164 -600 -174 -36 -11 -96 -28 -135 -39
-38 -11 -133 -38 -210 -60 -77 -23 -148 -41 -159 -41 -29 0 -73 52 -321 374
-126 164 -257 333 -290 375 -33 43 -141 182 -240 310 -99 128 -229 297 -290
375 -60 78 -167 216 -238 306 -70 91 -181 235 -248 320 -66 85 -132 171 -147
190 -229 300 -466 600 -472 600 -5 0 -46 -48 -91 -107z m441 -2754 c0 -3 27
-5 60 -4 34 1 63 -1 65 -5 2 -3 33 -6 69 -5 36 1 66 -1 66 -5 0 -3 30 -7 68
-8 37 -1 82 -3 100 -3 17 -1 32 -5 32 -8 0 -6 18 -9 115 -13 25 -1 45 -5 45
-9 0 -3 12 -5 28 -4 15 1 32 -1 37 -4 6 -3 22 -6 38 -7 15 -1 28 -3 30 -4 4
-4 50 -11 80 -12 15 0 27 -4 27 -9 0 -5 11 -7 24 -5 13 2 27 1 31 -2 4 -4 19
-8 33 -8 15 -1 28 -3 30 -4 1 -1 11 -4 22 -5 11 -1 22 -4 25 -5 3 -1 14 -4 25
-5 11 -1 21 -3 23 -5 2 -2 30 -9 62 -15 11 -3 27 -6 35 -7 8 -2 20 -6 25 -9 6
-4 18 -5 28 -4 9 2 17 0 17 -5 0 -5 8 -7 18 -5 9 1 22 0 27 -4 6 -3 18 -6 28
-7 9 -1 19 -3 22 -4 3 -1 10 -4 15 -5 6 -1 11 -3 13 -5 3 -2 39 -10 60 -12 9
-1 17 -5 17 -8 0 -4 6 -7 13 -8 23 -2 46 -8 53 -14 3 -4 12 -4 20 -1 8 3 14 1
14 -4 0 -5 6 -10 13 -10 6 0 26 -4 42 -8 17 -3 36 -7 43 -7 6 -1 12 -5 12 -9
0 -4 9 -6 20 -4 11 2 20 0 20 -4 0 -4 6 -8 13 -9 22 -2 42 -8 65 -20 12 -7 22
-10 22 -7 0 3 10 0 23 -7 12 -7 28 -11 35 -10 6 2 12 -2 12 -8 0 -6 4 -9 9 -5
5 3 12 1 16 -4 3 -6 12 -8 20 -4 8 3 15 0 15 -7 0 -7 7 -10 15 -6 8 3 15 1 15
-4 0 -5 7 -7 15 -4 8 4 15 2 15 -3 0 -5 6 -10 13 -10 21 -1 42 -8 48 -16 3 -4
16 -9 27 -10 12 -1 22 -5 22 -10 0 -4 4 -6 9 -2 5 3 12 1 16 -5 4 -6 11 -8 16
-5 5 4 9 1 9 -5 0 -6 5 -8 10 -5 6 3 10 1 10 -5 0 -7 6 -10 13 -7 7 3 21 -1
31 -9 11 -7 23 -11 27 -8 5 3 9 0 9 -5 0 -6 9 -11 19 -11 11 0 23 -5 26 -10 4
-6 10 -8 15 -5 5 3 11 1 15 -5 4 -6 11 -8 16 -5 5 4 9 1 9 -5 0 -6 5 -8 10 -5
6 3 10 1 10 -5 0 -6 5 -8 10 -5 6 3 10 1 10 -5 0 -6 5 -8 10 -5 6 3 10 1 10
-6 0 -7 3 -9 6 -6 4 3 16 1 28 -5 11 -7 24 -11 29 -10 4 1 7 -3 7 -10 0 -6 3
-8 7 -5 3 4 12 2 20 -4 7 -6 13 -8 13 -3 0 5 4 4 8 -2 4 -5 30 -20 58 -32 28
-11 96 -46 152 -75 55 -30 104 -52 107 -49 3 3 5 0 5 -6 0 -7 9 -12 20 -12 11
0 20 -5 20 -11 0 -5 5 -7 10 -4 6 3 10 1 10 -5 0 -6 5 -8 10 -5 6 3 10 1 10
-4 0 -6 7 -11 15 -11 8 0 15 -5 15 -12 0 -6 3 -8 6 -5 4 4 19 -2 34 -13 16
-11 33 -20 39 -20 6 0 11 -4 11 -10 0 -5 5 -10 11 -10 6 0 23 -9 37 -19 15
-10 32 -19 37 -20 6 0 18 -8 28 -16 9 -8 23 -15 31 -15 8 0 17 -7 20 -16 3 -8
10 -13 15 -10 5 3 12 -1 15 -10 3 -8 10 -12 16 -9 5 3 10 1 10 -5 0 -6 5 -8
10 -5 6 3 10 2 10 -3 0 -5 16 -17 35 -28 19 -10 35 -22 35 -27 0 -4 5 -5 10
-2 6 3 10 1 10 -5 0 -6 5 -8 10 -5 6 3 13 -1 16 -9 3 -9 10 -14 14 -11 4 3 11
-2 14 -11 3 -8 10 -12 16 -9 5 3 10 2 10 -2 0 -5 16 -17 35 -27 19 -11 35 -23
35 -28 0 -4 5 -8 10 -8 10 0 21 -8 54 -37 8 -7 16 -10 19 -7 3 3 10 -4 17 -15
6 -12 15 -19 19 -16 5 3 12 -2 15 -11 4 -9 9 -14 13 -11 3 4 14 -3 24 -15 11
-11 19 -18 19 -14 0 7 15 -4 55 -42 14 -13 25 -20 25 -16 0 3 9 -4 20 -17 10
-13 19 -20 20 -16 0 4 11 -4 25 -19 14 -15 25 -23 25 -19 0 5 11 -5 25 -21 14
-16 25 -25 25 -20 0 5 9 -1 20 -14 11 -13 20 -20 20 -15 0 4 13 -8 30 -26 16
-19 30 -30 30 -26 0 4 17 -9 38 -30 37 -36 65 -61 147 -128 20 -16 87 -79 149
-140 62 -60 122 -116 134 -124 11 -8 20 -17 19 -20 -1 -4 46 -55 106 -114 59
-59 105 -107 102 -107 -3 0 11 -18 32 -40 21 -22 52 -57 68 -77 17 -20 47 -53
67 -74 20 -20 34 -39 31 -42 -2 -3 7 -13 21 -22 14 -10 26 -22 26 -27 0 -6 10
-19 22 -29 11 -11 18 -19 15 -19 -7 0 22 -37 60 -75 12 -13 19 -26 16 -29 -3
-3 2 -8 11 -12 9 -3 16 -10 16 -16 0 -5 12 -20 26 -33 15 -14 23 -25 18 -25
-5 0 0 -7 10 -15 11 -8 17 -15 13 -15 -4 0 1 -9 11 -19 32 -36 43 -51 37 -51
-4 0 0 -6 7 -14 29 -31 48 -57 48 -66 0 -6 7 -13 15 -16 8 -4 13 -10 10 -14
-3 -4 2 -11 11 -14 8 -3 12 -10 9 -16 -3 -6 1 -13 9 -16 9 -3 16 -12 16 -20 0
-8 5 -14 11 -14 5 0 7 -5 4 -10 -3 -6 1 -13 9 -16 9 -3 16 -12 16 -20 0 -8 5
-14 11 -14 5 0 8 -4 5 -9 -3 -5 1 -14 9 -21 8 -7 15 -19 15 -26 0 -8 4 -14 8
-14 5 0 17 -17 28 -37 10 -21 26 -43 34 -50 8 -7 11 -13 7 -13 -4 0 -3 -6 3
-12 15 -18 54 -81 55 -90 0 -4 8 -16 17 -27 9 -11 14 -22 11 -25 -4 -3 -1 -6
6 -6 7 0 10 -4 7 -8 -3 -5 3 -18 14 -29 10 -12 16 -24 13 -27 -4 -3 -1 -6 6
-6 7 0 10 -4 7 -8 -3 -5 2 -18 12 -28 9 -10 26 -39 37 -64 11 -25 23 -48 28
-51 5 -3 9 -10 10 -15 2 -21 22 -64 30 -64 4 0 5 -4 2 -10 -3 -5 -1 -10 5 -10
6 0 8 -4 5 -10 -3 -5 -1 -10 4 -10 6 0 11 -9 11 -20 0 -11 5 -20 10 -20 6 0 9
-3 9 -7 -3 -14 25 -73 34 -73 4 0 6 -4 2 -9 -3 -5 2 -16 11 -25 8 -9 16 -25
17 -36 1 -11 6 -20 11 -20 5 0 6 -3 3 -7 -4 -3 0 -15 10 -25 9 -10 13 -18 9
-18 -3 0 0 -10 8 -22 8 -13 16 -27 17 -33 7 -33 12 -45 21 -45 5 0 6 -4 3 -10
-3 -5 -1 -10 5 -10 6 0 9 -4 5 -9 -3 -5 -1 -12 5 -16 6 -4 8 -11 5 -16 -4 -5
-1 -9 6 -9 7 0 10 -3 6 -6 -3 -4 0 -19 9 -35 8 -16 12 -29 8 -29 -4 0 -1 -6 5
-14 7 -8 14 -24 16 -37 3 -12 10 -26 17 -30 7 -4 9 -11 5 -15 -4 -4 -1 -14 5
-22 7 -7 14 -23 15 -35 2 -12 8 -24 15 -28 6 -4 8 -11 4 -17 -3 -6 -2 -13 4
-17 6 -4 8 -11 5 -16 -4 -5 -1 -9 5 -9 7 0 10 -7 7 -15 -4 -8 -2 -17 4 -20 5
-4 7 -11 4 -16 -4 -5 -1 -9 5 -9 6 0 9 -4 5 -9 -3 -5 -1 -12 5 -16 6 -4 8 -11
5 -16 -4 -5 -2 -9 4 -9 6 0 8 -7 5 -15 -4 -8 -2 -15 3 -15 5 0 10 -7 11 -15 1
-8 3 -22 4 -30 1 -8 5 -15 10 -15 5 0 7 -4 3 -9 -3 -5 -1 -12 4 -16 6 -3 8
-12 4 -20 -3 -8 0 -15 7 -15 6 0 9 -4 5 -9 -3 -5 -1 -12 4 -16 5 -3 8 -14 6
-25 -2 -11 1 -22 6 -25 5 -4 7 -11 4 -16 -4 -5 -1 -9 5 -9 7 0 10 -6 7 -14 -3
-7 0 -24 7 -38 7 -13 12 -32 10 -41 -1 -9 2 -17 7 -17 4 0 6 -7 3 -15 -4 -8
-2 -15 4 -15 6 0 9 -8 7 -17 -1 -10 2 -27 8 -38 6 -11 12 -28 13 -37 1 -10 3
-20 4 -23 1 -3 4 -9 5 -15 1 -5 3 -11 5 -12 1 -2 3 -12 5 -23 5 -28 13 -60 15
-60 3 0 10 -56 11 -77 0 -10 3 -18 7 -18 4 0 8 -13 8 -30 1 -16 5 -37 9 -47 5
-10 9 -25 9 -33 1 -8 4 -20 8 -26 4 -6 6 -21 3 -33 -2 -11 0 -21 5 -21 5 0 7
-11 4 -25 -2 -14 0 -25 5 -25 5 0 8 -13 6 -30 -2 -16 0 -30 4 -30 5 0 7 -14 6
-30 -1 -17 1 -33 6 -36 5 -3 7 -10 3 -15 -3 -5 -1 -15 4 -22 5 -7 8 -21 6 -31
-1 -11 0 -24 3 -30 6 -9 10 -33 17 -121 2 -22 5 -40 6 -40 1 0 4 -16 6 -35 2
-19 6 -55 9 -80 10 -85 16 -165 18 -227 1 -35 4 -63 7 -63 8 0 10 -124 10
-485 0 -371 -2 -475 -10 -475 -3 0 -5 -31 -5 -70 0 -38 -2 -70 -5 -70 -3 0 -6
-21 -7 -47 -1 -27 -5 -68 -8 -93 -3 -25 -7 -64 -8 -87 -1 -24 -4 -43 -8 -43
-3 0 -5 -18 -4 -40 1 -22 -2 -40 -6 -40 -4 0 -6 -16 -5 -35 2 -19 0 -35 -4
-35 -4 0 -6 -13 -5 -30 1 -16 -2 -30 -6 -30 -4 0 -6 -9 -4 -20 2 -11 0 -22 -4
-25 -5 -2 -7 -18 -6 -35 1 -16 -1 -30 -5 -30 -3 0 -8 -13 -9 -30 -5 -69 -6
-80 -13 -80 -4 0 -5 -11 -2 -24 2 -14 0 -27 -5 -31 -6 -3 -8 -14 -6 -25 2 -11
1 -20 -4 -20 -6 0 -10 -20 -12 -72 0 -10 -4 -18 -9 -18 -5 0 -9 -8 -9 -17 -1
-35 -7 -68 -14 -80 -5 -7 -6 -17 -2 -22 3 -5 0 -13 -6 -16 -5 -4 -8 -13 -5
-21 3 -8 1 -14 -3 -14 -5 0 -8 -8 -6 -17 1 -10 0 -22 -4 -28 -6 -11 -12 -32
-13 -52 -1 -7 -4 -13 -7 -13 -4 0 -8 -12 -9 -26 -1 -15 -6 -32 -12 -39 -5 -6
-7 -15 -4 -18 3 -3 2 -12 -2 -19 -10 -16 -15 -37 -15 -60 0 -10 -5 -18 -11
-18 -5 0 -8 -7 -4 -15 3 -8 1 -15 -4 -15 -5 0 -7 -9 -5 -20 2 -11 -1 -20 -7
-20 -6 0 -9 -3 -5 -6 3 -4 0 -21 -8 -39 -7 -19 -11 -36 -7 -39 3 -3 0 -6 -7
-6 -7 0 -9 -4 -6 -10 3 -5 1 -10 -5 -10 -7 0 -10 -7 -6 -15 3 -8 1 -15 -4 -15
-5 0 -7 -7 -4 -15 4 -8 1 -15 -6 -15 -7 0 -10 -7 -7 -15 4 -8 2 -17 -4 -20 -5
-4 -7 -11 -4 -16 4 -5 1 -9 -5 -9 -7 0 -10 -7 -6 -15 3 -8 1 -15 -4 -15 -5 0
-7 -7 -4 -15 4 -8 1 -15 -6 -15 -7 0 -10 -6 -7 -14 3 -7 0 -19 -6 -25 -6 -6
-8 -11 -3 -11 4 0 0 -7 -9 -16 -9 -9 -14 -22 -11 -30 3 -7 -1 -18 -9 -24 -8
-6 -11 -18 -8 -26 3 -8 0 -14 -7 -14 -6 0 -8 -4 -5 -10 3 -5 1 -10 -5 -10 -6
0 -9 -4 -5 -9 3 -5 1 -12 -5 -16 -6 -4 -8 -10 -5 -15 3 -5 1 -11 -5 -15 -5 -3
-10 -15 -10 -26 0 -10 -5 -19 -10 -19 -6 0 -9 -3 -9 -7 1 -5 0 -11 -1 -15 -1
-5 -3 -11 -4 -15 -1 -5 -10 -25 -19 -47 -9 -21 -17 -42 -17 -47 0 -5 -5 -9
-12 -9 -6 0 -8 -3 -5 -6 3 -4 1 -16 -5 -28 -7 -11 -11 -24 -10 -28 1 -5 -3 -8
-9 -8 -5 0 -8 -4 -5 -9 3 -5 -1 -14 -9 -21 -7 -6 -11 -18 -8 -26 3 -8 0 -14
-7 -14 -6 0 -9 -4 -6 -9 4 -5 2 -11 -3 -13 -5 -1 -11 -10 -13 -18 -2 -8 -5
-17 -8 -20 -11 -11 -40 -73 -40 -86 0 -8 -4 -14 -9 -14 -8 0 -24 -37 -22 -52
1 -5 -4 -8 -10 -8 -5 0 -7 -4 -4 -10 3 -5 2 -10 -3 -10 -9 0 -25 -37 -23 -52
1 -5 -4 -8 -10 -8 -5 0 -7 -5 -4 -10 3 -6 1 -10 -6 -10 -7 0 -10 -3 -6 -6 3
-4 -1 -13 -9 -21 -8 -8 -12 -19 -9 -24 4 -5 1 -9 -5 -9 -6 0 -9 -4 -5 -9 3 -6
-1 -13 -8 -18 -14 -8 -31 -42 -29 -55 1 -5 -2 -8 -6 -8 -5 0 -17 -18 -27 -40
-10 -22 -22 -40 -27 -40 -5 0 -7 -4 -4 -9 3 -5 -1 -14 -9 -21 -8 -7 -12 -16
-9 -21 3 -5 0 -9 -5 -9 -6 0 -11 -7 -11 -15 0 -8 -5 -15 -11 -15 -5 0 -8 -4
-5 -9 3 -5 -1 -12 -10 -15 -8 -3 -13 -10 -10 -15 3 -5 -1 -12 -10 -15 -8 -3
-12 -10 -9 -16 3 -5 1 -10 -5 -10 -6 0 -9 -4 -6 -9 3 -5 -1 -12 -10 -15 -8 -3
-12 -10 -9 -16 3 -5 1 -10 -4 -10 -6 0 -11 -6 -11 -14 0 -8 -7 -17 -16 -20 -8
-3 -13 -10 -10 -14 3 -5 -2 -18 -12 -28 -9 -10 -23 -31 -31 -46 -8 -16 -18
-28 -23 -28 -4 0 -8 -4 -8 -9 0 -14 -52 -91 -62 -91 -4 0 -8 -7 -8 -15 0 -8
-5 -15 -11 -15 -5 0 -8 -4 -5 -8 3 -5 -3 -16 -12 -25 -25 -23 -44 -47 -37 -47
3 0 -3 -9 -12 -19 -34 -38 -44 -51 -36 -51 4 0 -5 -11 -21 -25 -16 -14 -25
-25 -20 -25 4 0 -2 -7 -14 -16 -12 -8 -20 -19 -18 -23 3 -4 -6 -15 -19 -25
-14 -10 -23 -22 -20 -25 2 -4 -7 -15 -21 -25 -13 -11 -24 -25 -24 -32 0 -8 -4
-14 -10 -14 -5 0 -10 -5 -10 -11 0 -6 -15 -24 -32 -40 -18 -16 -30 -29 -26
-29 4 0 -9 -18 -30 -40 -20 -21 -50 -55 -67 -74 -83 -95 -119 -135 -218 -238
-59 -62 -111 -116 -115 -120 -25 -25 -243 -234 -272 -260 -19 -18 -38 -33 -41
-33 -4 0 -19 -12 -33 -27 -14 -16 -28 -28 -31 -28 -3 0 -24 -18 -45 -40 -22
-23 -40 -38 -40 -35 0 5 -12 -5 -75 -63 -14 -13 -25 -20 -25 -16 0 4 -8 -1
-19 -12 -32 -33 -71 -64 -81 -64 -6 0 -10 -5 -10 -10 0 -6 -8 -14 -17 -17 -10
-4 -25 -14 -33 -23 -8 -9 -32 -26 -52 -39 -21 -12 -38 -27 -38 -32 0 -6 -4 -8
-9 -5 -5 3 -12 -1 -15 -10 -3 -8 -10 -13 -14 -10 -5 3 -14 -4 -22 -14 -8 -10
-17 -17 -22 -14 -4 3 -11 -2 -14 -10 -3 -9 -12 -16 -20 -16 -8 0 -14 -5 -14
-11 0 -5 -5 -7 -10 -4 -6 3 -13 0 -15 -7 -3 -8 -28 -27 -55 -43 -28 -16 -50
-33 -50 -37 0 -4 -7 -8 -15 -8 -8 0 -15 -5 -15 -11 0 -5 -4 -8 -8 -5 -5 3 -18
-3 -29 -14 -12 -10 -23 -17 -25 -14 -3 2 -13 -5 -23 -16 -10 -11 -24 -20 -32
-20 -7 0 -13 -5 -13 -12 0 -6 -3 -8 -6 -5 -4 4 -20 -5 -36 -18 -16 -14 -36
-25 -44 -25 -8 0 -14 -4 -14 -8 0 -10 -50 -37 -62 -34 -5 1 -8 -2 -8 -8 0 -5
-7 -10 -15 -10 -8 0 -15 -5 -15 -12 0 -6 -3 -9 -6 -5 -4 3 -26 -7 -49 -23 -23
-16 -45 -26 -49 -23 -3 4 -6 1 -6 -5 0 -7 -7 -12 -15 -12 -8 0 -15 -5 -15 -11
0 -5 -4 -7 -10 -4 -5 3 -10 1 -10 -5 0 -6 -4 -8 -10 -5 -5 3 -10 1 -10 -5 0
-6 -4 -8 -10 -5 -5 3 -10 1 -10 -5 0 -6 -4 -8 -10 -5 -5 3 -10 1 -10 -4 0 -6
-3 -10 -7 -9 -11 2 -127 -55 -131 -65 -2 -4 -8 -5 -13 -1 -5 3 -9 0 -9 -5 0
-6 -3 -10 -7 -9 -11 2 -126 -55 -135 -67 -4 -5 -10 -6 -14 -2 -4 4 -16 0 -26
-10 -10 -9 -18 -12 -18 -8 0 4 -9 0 -20 -10 -11 -10 -20 -15 -20 -11 0 4 -6 4
-12 -1 -7 -4 -15 -8 -18 -9 -37 -11 -50 -18 -50 -25 0 -5 -9 -9 -19 -9 -11 0
-23 -5 -26 -10 -4 -6 -10 -8 -15 -5 -4 3 -13 -2 -20 -10 -6 -7 -18 -11 -26 -8
-8 3 -14 0 -14 -7 0 -6 -4 -9 -9 -5 -5 3 -12 1 -16 -5 -4 -6 -11 -8 -16 -5 -5
4 -9 2 -9 -2 0 -5 -10 -9 -22 -10 -11 -1 -25 -8 -29 -15 -5 -7 -9 -9 -9 -4 0
5 -6 3 -13 -3 -8 -6 -17 -8 -20 -4 -4 3 -7 2 -7 -3 0 -5 -10 -10 -22 -11 -11
-1 -25 -8 -29 -15 -5 -7 -9 -10 -9 -5 0 4 -13 1 -29 -8 -17 -8 -40 -17 -53
-19 -13 -3 -24 -5 -25 -7 -2 -1 -7 -3 -13 -4 -5 -1 -12 -4 -15 -5 -3 -1 -9 -4
-15 -5 -5 -1 -13 -4 -17 -5 -5 -1 -11 -2 -15 -1 -5 0 -8 -4 -8 -10 0 -5 -4 -8
-9 -4 -5 3 -12 1 -16 -4 -3 -6 -12 -8 -19 -5 -8 3 -17 0 -21 -5 -3 -6 -11 -9
-16 -6 -5 4 -9 1 -9 -6 0 -7 -3 -10 -6 -6 -3 3 -18 1 -33 -5 -29 -11 -60 -19
-78 -20 -7 -1 -13 -5 -13 -10 0 -5 -4 -7 -9 -3 -5 3 -12 1 -16 -4 -3 -5 -14
-8 -25 -6 -11 2 -20 0 -20 -4 0 -7 -15 -11 -52 -12 -10 0 -18 -4 -18 -9 0 -5
-8 -9 -17 -9 -17 0 -55 -7 -60 -11 -2 -2 -7 -4 -13 -5 -5 -1 -11 -3 -12 -5 -2
-1 -10 -3 -18 -5 -8 -2 -28 -6 -45 -10 -16 -4 -39 -8 -50 -10 -11 -2 -20 -4
-20 -5 0 -3 -82 -21 -107 -23 -10 -1 -18 -4 -18 -7 0 -3 -10 -7 -22 -7 -28 -2
-50 -7 -63 -14 -5 -3 -22 -5 -37 -4 -16 1 -28 -1 -28 -5 0 -4 -11 -6 -25 -5
-14 2 -25 0 -25 -4 0 -4 -13 -8 -30 -9 -70 -5 -80 -6 -80 -13 0 -4 -13 -5 -30
-4 -16 1 -30 -1 -30 -5 0 -3 -10 -6 -22 -5 -13 1 -27 0 -33 -4 -5 -3 -26 -6
-45 -6 -19 0 -39 -3 -45 -6 -5 -3 -22 -5 -37 -4 -16 1 -28 -1 -28 -5 0 -4 -17
-7 -37 -8 -21 0 -58 -3 -83 -6 -97 -14 -137 -18 -195 -20 -33 -1 -64 -4 -70
-7 -5 -3 -43 -5 -82 -4 -40 1 -73 -1 -73 -4 0 -4 -157 -6 -350 -6 -192 0 -350
2 -350 5 0 3 -33 5 -72 5 -40 -1 -77 1 -83 4 -5 3 -39 7 -75 8 -36 1 -83 4
-105 7 -22 3 -62 8 -90 11 -27 4 -63 9 -80 11 -16 3 -46 6 -65 7 -19 2 -39 5
-45 8 -5 4 -21 5 -35 4 -14 -1 -29 0 -35 4 -5 3 -22 6 -37 7 -16 1 -30 3 -33
4 -3 1 -14 4 -25 5 -11 1 -21 3 -22 5 -4 2 -67 11 -95 13 -13 0 -23 5 -23 9 0
5 -11 6 -25 4 -13 -3 -27 -1 -30 4 -3 5 -14 7 -25 5 -11 -2 -22 0 -25 5 -3 5
-14 7 -25 5 -11 -2 -22 0 -25 5 -3 5 -14 7 -25 5 -11 -2 -20 1 -20 6 0 6 -9 7
-20 4 -12 -4 -20 -2 -20 5 0 6 -11 8 -25 6 -14 -3 -25 -1 -25 4 0 4 -8 7 -17
5 -10 -1 -23 2 -30 7 -7 5 -17 7 -23 3 -5 -3 -10 -2 -10 4 0 5 -11 8 -25 5
-14 -2 -25 0 -25 6 0 6 -4 9 -9 5 -5 -3 -12 -1 -16 4 -3 5 -14 8 -25 6 -11 -2
-22 1 -25 6 -4 5 -11 7 -16 4 -5 -4 -9 -2 -9 3 0 5 -6 9 -12 9 -42 3 -68 8
-68 14 0 3 -6 6 -12 7 -15 1 -53 10 -53 12 0 1 -7 3 -15 5 -8 2 -26 7 -40 10
-14 3 -29 7 -35 9 -5 1 -20 8 -33 14 -12 7 -27 10 -32 7 -6 -3 -10 -1 -10 5 0
6 -4 9 -9 5 -5 -3 -13 0 -16 6 -4 5 -13 8 -21 5 -8 -3 -14 -1 -14 5 0 6 -4 8
-8 5 -5 -3 -20 1 -35 9 -15 8 -27 11 -27 8 0 -3 -7 0 -15 7 -8 6 -19 9 -25 5
-5 -3 -10 -2 -10 3 0 5 -6 9 -12 10 -23 2 -43 8 -65 20 -13 7 -23 9 -23 5 0
-4 -4 -2 -9 5 -4 7 -18 14 -29 15 -12 1 -22 5 -22 10 0 4 -4 6 -9 2 -5 -3 -12
-1 -16 5 -3 5 -15 10 -26 10 -10 0 -19 5 -19 12 0 6 -3 8 -6 5 -4 -3 -16 -1
-28 5 -11 7 -30 13 -40 15 -11 2 -25 8 -31 13 -7 5 -15 7 -18 3 -4 -3 -7 -1
-7 5 0 7 -3 11 -7 10 -5 -1 -21 4 -38 11 -16 7 -32 12 -34 11 -2 -1 -7 3 -11
10 -4 6 -17 12 -28 13 -12 1 -22 6 -22 11 0 5 -3 6 -6 3 -4 -4 -20 3 -35 14
-16 11 -29 17 -29 13 0 -3 -6 -1 -13 5 -8 6 -17 8 -20 4 -4 -3 -7 0 -7 7 0 7
-3 11 -6 7 -4 -3 -13 1 -21 9 -8 8 -19 12 -24 9 -5 -4 -9 -1 -9 5 0 6 -4 8
-10 5 -5 -3 -10 -2 -10 3 0 9 -37 25 -52 23 -5 -1 -8 4 -8 10 0 5 -4 7 -10 4
-5 -3 -10 -1 -10 6 0 7 -3 10 -6 6 -4 -3 -13 1 -21 9 -8 8 -19 12 -24 9 -5 -4
-9 -1 -9 4 0 6 -9 11 -20 11 -11 0 -20 5 -20 11 0 5 -4 7 -10 4 -5 -3 -10 -1
-10 5 0 6 -4 8 -10 5 -5 -3 -10 -1 -10 5 0 6 -4 8 -10 5 -5 -3 -10 -2 -10 3 0
9 -37 25 -52 23 -5 -1 -8 3 -8 9 0 5 -7 10 -15 10 -8 0 -15 5 -15 12 0 6 -3 8
-6 5 -4 -4 -19 2 -34 13 -16 11 -33 20 -39 20 -6 0 -11 5 -11 10 0 6 -5 10
-11 10 -6 0 -23 9 -39 20 -15 11 -30 17 -34 13 -3 -3 -6 -1 -6 6 0 7 -4 9 -10
6 -5 -3 -10 -1 -10 4 0 6 -7 11 -15 11 -8 0 -15 5 -15 11 0 5 -4 8 -9 5 -5 -3
-12 1 -15 10 -3 8 -10 12 -16 9 -6 -3 -13 1 -16 9 -3 9 -15 16 -25 16 -10 0
-19 4 -19 8 0 5 -16 17 -35 28 -19 10 -35 22 -35 27 0 4 -4 5 -10 2 -5 -3 -10
-1 -10 5 0 6 -4 9 -9 6 -5 -3 -12 1 -15 10 -3 8 -10 13 -15 10 -5 -3 -12 1
-15 10 -3 8 -10 12 -16 9 -5 -3 -10 -2 -10 2 0 5 -16 17 -35 27 -19 11 -35 23
-35 28 0 4 -7 8 -15 8 -8 0 -15 4 -15 9 0 5 -8 12 -17 15 -10 3 -34 19 -53 36
-19 16 -38 30 -42 30 -4 0 -21 13 -39 30 -18 16 -35 27 -39 25 -3 -2 -13 5
-20 16 -8 10 -20 19 -27 19 -7 0 -13 5 -13 10 0 6 -8 14 -17 17 -10 4 -28 18
-40 32 -13 14 -23 22 -23 17 0 -5 -11 4 -25 20 -14 16 -25 25 -25 21 0 -7 -10
1 -75 61 -14 13 -25 20 -25 18 0 -3 -20 13 -44 37 -25 23 -59 53 -76 67 -17
14 -49 42 -70 63 -22 21 -40 36 -40 33 0 -4 -73 66 -232 222 -65 64 -235 242
-230 242 3 0 -13 17 -35 38 -23 20 -42 42 -44 47 -4 11 -18 28 -84 97 -25 27
-43 48 -40 48 5 0 -5 12 -63 75 -13 14 -20 25 -16 25 4 0 -5 11 -20 25 -15 14
-23 25 -19 25 4 0 -5 11 -21 25 -16 14 -25 25 -21 25 5 0 0 8 -11 19 -10 10
-28 31 -39 46 -11 16 -26 34 -33 42 -7 7 -11 13 -8 13 3 0 -2 9 -11 19 -33 36
-44 51 -38 51 4 0 0 6 -7 14 -29 31 -48 57 -48 66 0 6 -7 13 -15 16 -8 4 -13
10 -10 14 3 4 -2 11 -11 14 -8 3 -13 10 -9 15 3 6 0 13 -7 18 -15 9 -33 37
-48 71 -5 12 -14 22 -20 22 -6 0 -8 5 -5 10 3 6 1 10 -5 10 -6 0 -8 5 -5 10 3
6 2 10 -2 10 -5 0 -17 16 -27 35 -11 19 -23 35 -28 35 -5 0 -6 4 -3 10 3 5 1
10 -6 10 -7 0 -9 3 -6 6 4 4 -4 19 -16 34 -23 29 -60 90 -61 102 -1 4 -9 16
-18 27 -9 11 -14 22 -11 25 4 3 1 6 -6 6 -7 0 -10 4 -7 8 3 5 -3 18 -14 29
-10 12 -16 24 -13 27 4 3 1 6 -6 6 -7 0 -9 4 -6 10 3 6 1 10 -5 10 -6 0 -8 4
-5 10 3 6 1 10 -4 10 -6 0 -11 7 -11 15 0 8 -5 15 -10 15 -6 0 -10 3 -9 8 2
15 -14 52 -23 52 -5 0 -6 4 -3 10 3 6 1 10 -5 10 -6 0 -8 4 -5 10 3 6 1 10 -5
10 -6 0 -8 5 -5 10 3 6 1 10 -4 10 -6 0 -11 9 -11 20 0 11 -5 20 -11 20 -5 0
-8 4 -4 9 3 5 -2 16 -10 24 -8 9 -15 23 -15 31 0 9 -5 16 -10 16 -6 0 -10 3
-9 8 2 14 -13 52 -21 52 -5 0 -11 14 -15 30 -4 17 -11 30 -16 30 -6 0 -7 4 -4
10 3 6 1 10 -6 10 -7 0 -9 3 -6 7 4 3 2 12 -4 20 -6 7 -8 13 -5 13 4 0 -2 13
-13 29 -11 15 -18 31 -14 35 3 3 2 6 -3 6 -5 0 -10 10 -11 22 -1 11 -7 24 -13
28 -7 4 -11 9 -10 11 1 2 -4 18 -11 34 -16 38 -20 51 -18 61 0 4 -4 10 -10 13
-6 4 -12 16 -14 26 -1 11 -6 26 -10 32 -5 7 -10 23 -12 35 -3 12 -10 25 -17
29 -7 4 -9 11 -5 15 4 4 1 14 -5 22 -7 7 -14 23 -15 35 -2 12 -8 24 -15 28 -6
4 -8 11 -4 17 3 6 2 13 -4 17 -6 4 -8 11 -5 16 4 5 1 9 -5 9 -7 0 -10 6 -7 14
3 7 1 18 -3 22 -5 5 -11 21 -14 34 -2 14 -5 27 -6 30 -2 3 -2 8 -1 13 0 4 -4
7 -10 7 -6 0 -9 7 -5 15 3 8 1 15 -5 15 -6 0 -7 5 -4 10 3 6 2 10 -4 10 -6 0
-8 6 -5 14 3 8 0 17 -5 21 -6 3 -9 11 -6 16 4 5 1 9 -5 9 -6 0 -8 4 -5 10 3 5
0 20 -7 32 -7 13 -13 25 -13 28 -14 59 -19 86 -17 93 1 4 -3 7 -9 7 -5 0 -8 4
-4 9 3 5 1 12 -4 16 -6 3 -8 12 -5 19 3 8 1 17 -5 20 -6 4 -8 13 -4 21 3 8 0
15 -7 15 -7 0 -9 8 -5 20 3 11 2 20 -3 20 -5 0 -9 6 -10 13 -1 14 -10 51 -12
55 -2 1 -3 10 -4 20 -1 9 -5 23 -9 30 -5 6 -6 16 -2 21 3 5 0 13 -6 16 -5 4
-8 13 -5 21 3 7 1 16 -4 19 -5 3 -7 14 -5 25 2 11 0 20 -4 20 -4 0 -8 6 -8 13
-3 40 -8 67 -13 67 -3 0 -7 10 -7 23 -1 21 -10 62 -13 62 -1 0 -3 9 -5 20 -1
11 -6 38 -10 60 -3 22 -7 52 -8 68 0 15 -4 27 -9 27 -5 0 -6 11 -4 25 3 13 1
27 -4 30 -4 3 -7 16 -5 30 1 14 -1 25 -5 25 -4 0 -6 14 -5 30 1 17 -2 33 -6
36 -4 2 -6 17 -5 32 2 15 1 32 -2 37 -4 6 -8 24 -9 40 -1 17 -5 49 -8 73 -17
136 -25 226 -29 312 -2 36 -5 65 -6 65 -6 0 -10 173 -11 465 0 287 5 495 11
495 1 0 4 29 6 65 5 87 12 165 19 220 3 25 7 59 8 75 2 17 5 35 8 40 3 6 5 27
4 48 -1 20 2 37 7 37 5 0 6 12 4 27 -3 14 -2 31 2 37 3 6 7 22 8 36 1 14 2 25
4 25 1 0 3 14 5 30 2 17 6 41 9 55 8 34 18 100 19 128 1 12 4 22 8 22 3 0 5
10 5 23 -1 12 0 27 3 32 7 14 12 36 14 63 0 12 4 22 7 22 3 0 7 11 8 26 1 14
6 33 12 43 5 10 7 28 5 40 -2 11 0 21 5 21 5 0 7 9 5 20 -2 11 1 20 6 20 6 0
7 5 4 10 -3 6 -3 16 2 23 4 6 8 20 9 30 1 9 2 18 4 20 2 3 11 40 12 55 1 6 4
12 8 12 3 0 7 8 8 18 1 14 8 50 11 60 1 1 1 4 1 7 0 3 6 18 15 34 8 17 12 37
9 45 -3 9 -2 16 3 16 5 0 10 6 11 13 1 18 9 49 20 78 6 15 8 30 5 33 -4 3 -1
6 6 6 7 0 10 4 6 9 -3 5 0 13 6 16 5 4 8 13 5 21 -3 8 -1 14 4 14 5 0 7 7 4
15 -4 8 -1 15 6 15 7 0 10 7 6 15 -3 8 -1 15 5 15 6 0 8 4 4 9 -3 5 -1 12 5
16 6 4 8 11 5 16 -4 5 -1 9 5 9 7 0 10 6 7 14 -3 7 -1 18 3 22 5 5 11 19 13
31 2 13 6 26 10 29 4 4 7 16 7 26 0 10 5 18 11 18 5 0 8 4 4 9 -3 5 -1 12 5
16 6 4 8 10 5 15 -3 5 -1 11 5 15 6 4 8 11 5 16 -4 5 -1 9 4 9 6 0 11 8 11 18
0 10 7 28 16 40 8 12 12 22 8 22 -3 0 -1 6 5 13 6 8 8 17 4 20 -3 4 -1 7 6 7
7 0 10 4 6 9 -3 5 -1 12 5 16 6 4 8 10 5 15 -3 5 -1 11 5 15 6 4 8 11 5 16 -4
5 -1 9 5 9 6 0 8 5 5 10 -3 6 -2 10 3 10 9 0 27 47 24 63 -1 4 3 7 9 7 5 0 8
4 5 9 -3 5 1 14 9 21 8 7 13 16 10 20 -3 5 -1 11 5 15 6 4 8 11 5 16 -4 5 -1
9 5 9 6 0 8 5 5 10 -3 6 -2 10 3 10 9 0 25 37 23 53 -1 4 4 7 11 7 6 0 8 3 5
6 -4 4 2 19 13 34 11 15 17 30 13 34 -3 3 -1 6 6 6 7 0 9 5 6 10 -3 6 -2 10 3
10 5 0 15 18 22 40 7 22 16 40 20 40 8 0 23 39 21 53 -1 4 4 7 10 7 5 0 7 5 4
10 -3 6 -1 10 6 10 7 0 10 3 6 6 -3 4 1 13 9 21 8 8 12 19 9 24 -4 5 -1 9 5 9
6 0 9 4 6 9 -3 5 1 12 10 15 8 3 12 10 9 16 -3 5 -1 10 5 10 6 0 8 5 5 10 -3
6 -1 10 6 10 7 0 10 3 6 6 -3 3 3 15 13 27 11 11 17 24 14 29 -3 4 0 8 6 8 6
0 9 4 6 9 -3 5 1 12 10 15 8 3 13 10 10 15 -3 5 1 14 9 21 8 7 12 16 9 21 -3
5 2 12 10 15 9 3 13 10 10 15 -3 5 0 9 7 9 7 0 10 3 6 6 -3 3 3 15 13 27 11
11 17 24 14 29 -3 4 2 11 10 14 9 3 14 10 11 14 -3 4 2 11 11 14 8 3 12 10 9
16 -3 5 -1 10 4 10 6 0 11 6 11 14 0 8 7 17 16 20 8 3 13 10 10 14 -3 5 2 18
12 28 9 10 23 31 31 47 8 15 18 27 23 27 4 0 8 7 8 15 0 8 5 15 11 15 5 0 8 4
5 9 -3 5 1 12 10 15 8 3 13 10 10 15 -3 5 1 11 9 15 8 3 15 12 15 20 0 7 7 17
16 20 9 4 14 9 11 13 -4 3 3 14 15 24 11 11 17 19 12 19 -5 0 0 7 10 15 11 8
17 15 13 15 -3 0 7 14 23 32 16 17 27 34 25 36 -3 3 7 15 20 28 14 13 25 27
25 32 0 6 7 13 16 16 9 4 14 9 11 13 -4 3 6 17 21 29 15 13 23 24 19 24 -4 0
4 11 19 25 15 14 24 25 20 25 -6 0 3 11 62 75 13 14 20 25 17 25 -3 0 12 17
33 39 20 21 52 56 70 77 80 95 103 120 202 221 58 59 104 110 103 114 -1 4 10
15 24 25 14 11 73 64 129 119 57 55 122 116 145 135 22 19 54 47 69 63 16 15
32 27 35 27 3 0 24 18 45 40 22 23 40 38 40 35 0 -5 10 3 74 62 13 12 26 19
29 17 3 -3 13 6 23 20 9 15 19 24 22 21 3 -2 16 7 29 21 12 14 23 22 23 18 0
-4 8 1 19 12 10 10 31 28 46 39 16 11 34 26 42 33 7 7 13 10 13 6 0 -4 9 3 19
15 11 12 21 21 23 19 4 -3 80 53 90 67 4 5 8 6 8 1 0 -5 8 1 19 12 10 12 23
22 30 22 6 0 11 5 11 11 0 5 5 7 10 4 6 -3 13 1 16 9 3 9 10 13 15 10 5 -3 9
-1 9 4 0 5 16 17 35 28 19 10 35 22 35 27 0 4 4 6 8 3 5 -3 18 3 29 14 12 10
23 17 25 14 3 -2 13 5 23 16 10 11 24 20 32 20 7 0 13 5 13 11 0 5 4 8 8 5 5
-3 20 6 34 19 14 13 29 21 32 18 3 -4 6 -1 6 6 0 7 5 9 10 6 6 -3 10 -1 10 4
0 6 7 11 15 11 8 0 15 5 15 11 0 5 4 8 9 5 5 -3 14 1 21 9 7 8 19 15 26 15 8
0 14 5 14 11 0 5 5 7 10 4 6 -3 10 -1 10 4 0 6 7 11 15 11 8 0 15 5 15 11 0 5
5 7 10 4 6 -3 10 -1 10 5 0 6 4 9 8 6 5 -3 18 3 29 13 10 10 36 24 56 32 20 7
37 17 37 22 0 4 5 5 10 2 6 -3 10 -1 10 4 0 6 3 10 8 10 13 -3 72 25 72 34 0
4 5 5 10 2 6 -3 10 -1 10 5 0 6 5 8 10 5 6 -3 10 -1 10 5 0 6 5 8 10 5 6 -3
10 -1 10 5 0 6 4 9 9 6 5 -3 12 1 15 10 3 8 10 12 16 9 5 -3 10 -1 10 5 0 6 5
8 10 5 6 -3 10 -2 10 4 0 6 7 8 15 5 8 -4 15 -1 15 6 0 6 5 8 10 5 6 -3 10 -1
10 5 0 6 5 8 10 5 6 -3 10 -1 10 5 0 6 4 9 9 6 5 -4 11 -2 13 4 1 5 12 11 23
13 11 2 39 13 61 25 23 11 44 18 48 15 3 -4 6 -1 6 5 0 7 4 12 9 12 5 0 26 8
47 17 22 9 42 16 46 15 3 -1 11 5 18 13 6 7 18 11 26 8 8 -3 14 0 14 7 0 6 4
9 9 5 5 -3 12 -1 16 5 4 6 11 8 16 5 5 -4 9 -2 9 2 0 5 10 9 22 10 11 1 24 7
28 14 4 6 12 9 18 5 5 -3 15 1 22 9 6 7 17 12 24 9 8 -3 21 2 30 11 9 9 16 13
16 9 0 -5 5 -3 11 3 6 6 18 9 25 6 8 -3 14 0 14 7 0 7 7 10 15 6 8 -3 15 -1
15 4 0 5 7 7 15 4 8 -4 15 -1 15 5 0 6 3 10 8 10 4 -1 9 -1 12 1 3 1 16 3 29
6 14 2 30 9 36 14 7 5 15 7 18 3 4 -3 7 -2 7 4 0 5 6 10 13 11 16 1 38 7 59
16 9 4 25 9 35 11 10 2 19 4 21 5 1 2 7 4 12 5 6 1 11 3 13 5 3 2 39 10 60 12
9 1 17 6 17 11 0 5 6 7 14 4 8 -3 17 -3 21 1 4 4 11 8 16 8 5 1 11 3 14 4 3 1
13 3 23 4 9 1 22 4 28 8 6 4 24 10 40 13 39 8 59 13 59 15 0 1 9 4 20 6 34 8
50 12 50 14 0 1 14 3 30 6 32 4 70 12 70 14 0 1 11 4 25 7 38 7 55 11 58 13 1
2 11 4 22 5 11 1 22 4 25 5 3 1 10 4 15 5 6 1 12 4 15 5 3 1 19 4 35 5 17 1
31 3 33 5 6 5 45 11 75 12 17 1 32 5 32 8 0 4 12 8 28 9 58 2 82 5 82 11 0 4
10 6 23 5 12 -1 27 0 32 4 6 3 24 7 40 8 17 1 53 5 80 8 28 3 65 6 83 7 17 1
32 5 32 9 0 4 14 5 30 4 17 -1 32 1 35 5 2 3 34 6 70 5 36 -1 65 1 65 4 0 4
26 6 58 6 31 -1 62 1 67 4 6 3 40 6 77 6 37 1 70 3 72 6 7 6 686 5 686 -2z"/>
<path d="M9874 14369 c-2 -4 -15 -6 -29 -4 -14 1 -28 -2 -31 -7 -3 -5 -12 -7
-20 -4 -7 3 -16 1 -19 -5 -4 -5 -11 -7 -16 -4 -5 4 -9 2 -9 -3 0 -5 -7 -9 -15
-10 -8 -1 -22 -3 -30 -4 -8 -1 -15 -5 -15 -10 0 -5 -4 -6 -10 -3 -5 3 -10 1
-10 -5 0 -6 -4 -8 -10 -5 -5 3 -10 1 -10 -4 0 -6 -9 -11 -20 -11 -11 0 -20 -4
-20 -10 0 -5 -7 -10 -15 -10 -8 0 -15 -5 -15 -11 0 -5 -4 -8 -9 -4 -5 3 -17
-5 -25 -17 -9 -12 -16 -18 -16 -13 0 6 -12 -3 -26 -20 -14 -16 -29 -30 -33
-30 -9 0 -61 -52 -61 -61 0 -4 -10 -15 -22 -25 -11 -11 -18 -19 -15 -19 4 0
-1 -9 -10 -19 -35 -38 -42 -50 -49 -75 -3 -14 -10 -26 -14 -26 -4 0 -11 -10
-15 -22 -11 -33 -12 -38 -15 -40 -1 -2 -3 -11 -5 -21 -2 -10 -7 -26 -11 -35
-4 -9 -8 -25 -9 -34 -2 -10 -4 -20 -5 -23 -1 -3 -4 -14 -5 -25 -1 -11 -4 -21
-5 -22 -6 -7 -5 -240 1 -244 4 -2 5 -17 4 -34 -1 -17 1 -33 6 -36 5 -3 7 -9 4
-14 -3 -5 -1 -11 4 -15 6 -3 8 -12 4 -20 -3 -8 0 -15 7 -15 6 0 9 -4 6 -8 -2
-4 -1 -14 4 -22 9 -14 -1 -26 -55 -66 -15 -10 -33 -25 -41 -32 -8 -7 -14 -10
-14 -5 0 4 -5 0 -11 -9 -5 -10 -16 -18 -22 -18 -7 0 -19 -9 -27 -19 -7 -11
-17 -18 -21 -16 -4 3 -10 -2 -13 -11 -3 -8 -10 -13 -15 -9 -5 3 -17 -5 -25
-17 -9 -12 -16 -19 -16 -14 0 5 -8 -1 -19 -12 -10 -12 -21 -19 -25 -15 -3 3
-6 1 -6 -5 0 -7 -7 -12 -15 -12 -8 0 -15 -4 -15 -8 0 -5 -28 -27 -63 -50 -34
-23 -72 -51 -85 -62 -12 -11 -25 -21 -29 -22 -9 -2 -24 -14 -54 -40 -10 -10
-22 -18 -27 -18 -4 0 -20 -11 -35 -25 -15 -14 -27 -22 -27 -18 -1 4 -9 -2 -19
-14 -10 -12 -21 -19 -25 -16 -3 4 -6 1 -6 -5 0 -7 -5 -12 -11 -12 -7 0 -20
-10 -30 -22 -11 -11 -19 -17 -19 -13 0 4 -9 -2 -20 -15 -11 -13 -20 -20 -20
-17 0 7 -27 -13 -56 -41 -8 -7 -14 -10 -14 -5 -1 4 -9 -2 -19 -14 -10 -12 -21
-19 -25 -16 -3 4 -6 1 -6 -5 0 -7 -5 -12 -10 -12 -11 0 -25 -10 -65 -47 -13
-13 -28 -23 -32 -23 -7 0 -46 -29 -85 -63 -9 -9 -19 -13 -22 -10 -3 3 -8 -2
-12 -11 -3 -9 -10 -14 -14 -11 -4 3 -10 -2 -14 -10 -3 -8 -12 -15 -20 -15 -7
0 -16 -7 -20 -15 -3 -8 -10 -15 -16 -15 -9 0 -35 -19 -66 -48 -8 -7 -14 -10
-14 -7 0 4 -17 -7 -37 -24 -56 -47 -62 -51 -68 -51 -3 0 -14 -8 -24 -17 -37
-33 -51 -44 -51 -37 0 4 -9 -3 -20 -16 -11 -13 -20 -20 -20 -15 0 4 -15 -6
-33 -21 -19 -16 -44 -36 -57 -44 -12 -8 -29 -21 -36 -28 -8 -7 -14 -10 -14 -6
0 4 -8 -1 -19 -12 -30 -30 -59 -53 -64 -48 -2 2 -18 -9 -35 -26 -18 -17 -32
-27 -32 -23 0 4 -9 -2 -20 -13 -25 -25 -43 -39 -55 -44 -13 -5 -32 -20 -52
-42 -9 -9 -19 -15 -23 -13 -4 2 -21 -9 -38 -25 -18 -16 -32 -26 -32 -22 0 4
-5 -1 -11 -10 -5 -10 -16 -18 -23 -18 -8 0 -17 -7 -20 -16 -3 -8 -10 -12 -16
-9 -5 3 -10 3 -10 -2 0 -4 -12 -16 -25 -26 -25 -18 -26 -18 -58 5 -17 12 -34
26 -35 30 -2 5 -8 6 -13 2 -5 -3 -12 2 -15 10 -3 9 -10 13 -15 10 -5 -3 -9 0
-9 5 0 6 -9 11 -20 11 -11 0 -20 4 -20 8 0 6 -59 34 -80 37 -3 0 -14 6 -25 12
-11 6 -28 9 -37 8 -10 -2 -20 1 -23 5 -3 5 -14 7 -25 5 -11 -2 -20 0 -20 4 0
4 -16 7 -35 6 -19 -2 -35 0 -35 4 0 3 -31 6 -70 7 -38 0 -70 -3 -70 -7 0 -4
-17 -6 -37 -4 -21 1 -45 -1 -54 -6 -8 -4 -27 -9 -42 -11 -14 -2 -29 -7 -33
-10 -3 -4 -12 -4 -20 -1 -8 3 -14 0 -14 -7 0 -6 -4 -9 -9 -5 -5 3 -12 1 -16
-5 -4 -6 -11 -8 -16 -5 -5 4 -9 1 -9 -6 0 -7 -3 -9 -6 -6 -4 4 -19 -2 -34 -13
-15 -11 -30 -17 -33 -13 -4 3 -9 -2 -13 -11 -3 -9 -13 -16 -21 -16 -9 0 -26
-11 -39 -26 -13 -14 -24 -22 -24 -19 0 3 -27 -21 -60 -54 -33 -33 -60 -63 -60
-66 0 -3 -11 -17 -24 -30 -14 -13 -27 -34 -31 -45 -3 -11 -11 -20 -16 -20 -6
0 -7 -4 -4 -10 3 -5 1 -10 -5 -10 -6 0 -8 -4 -5 -10 3 -5 1 -10 -5 -10 -6 0
-8 -4 -5 -10 3 -5 2 -10 -3 -10 -8 0 -13 -11 -27 -62 -2 -5 -4 -11 -5 -15 -1
-5 -2 -11 -1 -15 0 -5 -3 -8 -8 -8 -6 0 -10 -8 -9 -17 0 -10 -3 -29 -7 -43 -4
-14 -8 -41 -10 -60 -2 -19 -4 -35 -5 -35 -5 0 -6 -161 -1 -170 3 -5 6 -21 7
-35 1 -14 2 -25 4 -25 1 0 3 -9 5 -20 2 -11 6 -31 10 -45 3 -14 8 -32 10 -40
2 -8 4 -17 5 -20 1 -3 2 -8 1 -12 0 -5 4 -8 10 -8 5 0 8 -4 4 -9 -3 -5 -1 -12
5 -16 6 -4 8 -11 5 -16 -4 -5 -1 -9 5 -9 6 0 9 -4 6 -9 -3 -5 1 -12 10 -15 8
-3 12 -10 9 -16 -3 -5 -1 -10 5 -10 6 0 9 -4 6 -8 -3 -5 6 -20 19 -34 13 -14
21 -28 19 -31 -3 -3 4 -10 15 -17 12 -6 21 -15 21 -20 0 -6 18 -28 40 -50 22
-22 40 -38 40 -34 0 3 11 -7 25 -22 14 -15 25 -23 25 -19 0 4 8 -2 19 -13 10
-12 21 -19 24 -15 4 3 9 -2 13 -11 3 -9 10 -13 15 -10 5 3 9 0 9 -6 0 -6 5 -8
10 -5 6 3 10 2 10 -3 0 -9 37 -25 53 -23 4 1 7 -4 7 -9 0 -5 3 -9 8 -8 4 1 23
-4 42 -11 33 -13 51 -17 110 -25 14 -2 25 -5 25 -6 0 -1 43 -3 95 -4 68 -1 95
-5 96 -14 1 -6 3 -15 4 -19 1 -5 2 -12 1 -17 -1 -4 4 -14 10 -22 6 -8 8 -14 4
-14 -4 0 -2 -6 4 -13 6 -8 8 -17 4 -20 -3 -4 -2 -7 4 -7 5 0 10 -6 11 -12 1
-15 10 -52 12 -55 2 -2 4 -7 5 -13 1 -5 3 -11 5 -12 2 -4 11 -41 12 -55 1 -7
6 -13 11 -13 5 0 7 -6 4 -14 -3 -7 -1 -18 3 -22 5 -5 11 -18 13 -29 2 -11 7
-28 11 -37 4 -9 9 -22 10 -30 2 -7 6 -21 10 -30 4 -9 9 -25 11 -35 2 -10 4
-20 5 -23 1 -3 2 -8 1 -12 0 -5 4 -8 10 -8 6 0 9 -7 5 -15 -3 -8 -1 -15 4 -15
5 0 7 -7 4 -15 -4 -8 -1 -15 6 -15 7 0 10 -7 7 -15 -4 -8 -2 -17 4 -20 5 -4 7
-11 4 -16 -4 -5 -2 -9 4 -9 5 0 10 -8 10 -17 1 -38 5 -53 12 -53 5 0 6 -6 3
-14 -3 -8 0 -17 5 -21 6 -3 9 -11 6 -16 -4 -5 -2 -9 3 -9 5 0 9 -6 10 -12 1
-15 10 -52 12 -55 2 -2 4 -7 5 -13 1 -5 4 -13 5 -17 1 -5 2 -11 1 -15 0 -5 3
-8 7 -8 5 0 9 -7 10 -15 1 -8 3 -22 4 -30 1 -8 5 -15 9 -15 5 0 6 -6 3 -14 -3
-8 0 -17 5 -21 6 -3 9 -11 6 -16 -4 -5 -2 -9 4 -9 6 0 8 -7 5 -15 -4 -8 -1
-15 6 -15 7 0 9 -8 5 -20 -4 -12 -2 -20 5 -20 7 0 10 -7 7 -15 -4 -8 -2 -17 4
-20 5 -4 7 -11 4 -16 -4 -5 -1 -9 5 -9 7 0 10 -7 7 -15 -4 -8 -2 -17 4 -20 5
-4 7 -11 4 -16 -4 -5 -1 -9 5 -9 7 0 10 -7 7 -15 -4 -8 -2 -17 2 -19 8 -6 25
-64 22 -78 0 -5 4 -8 9 -8 6 0 10 -6 9 -12 -1 -7 1 -22 5 -33 20 -52 26 -72
30 -95 3 -14 5 -27 6 -30 2 -3 2 -8 1 -12 0 -5 4 -8 10 -8 5 0 7 -5 4 -10 -4
-6 -1 -17 5 -25 7 -8 9 -15 5 -15 -4 0 -2 -6 4 -13 6 -8 8 -17 4 -20 -3 -4 -1
-7 6 -7 7 0 10 -4 6 -9 -3 -5 -1 -12 4 -16 6 -3 8 -12 4 -20 -3 -8 -1 -15 4
-15 5 0 10 -7 11 -15 1 -8 3 -22 4 -30 1 -8 4 -15 8 -15 4 0 7 -7 8 -15 1 -8
3 -22 4 -30 1 -8 4 -15 8 -15 4 0 7 -7 8 -15 1 -8 3 -22 4 -30 1 -8 5 -15 9
-15 4 0 6 -9 4 -20 -2 -11 1 -20 7 -20 5 0 8 -7 5 -15 -4 -8 -2 -17 4 -20 5
-4 7 -11 4 -16 -4 -5 -1 -9 4 -9 6 0 10 -3 10 -7 -1 -5 0 -10 1 -13 1 -3 3
-13 6 -22 7 -31 11 -42 18 -60 4 -9 9 -25 11 -35 2 -10 4 -20 5 -23 1 -3 2 -8
1 -12 0 -5 4 -8 10 -8 6 0 9 -7 6 -15 -4 -8 -2 -17 4 -20 5 -4 7 -11 4 -16 -4
-5 -1 -9 4 -9 6 0 10 -3 10 -7 -1 -5 0 -10 1 -13 3 -8 8 -32 15 -65 3 -16 10
-34 15 -39 5 -5 6 -15 3 -22 -3 -8 0 -14 7 -14 6 0 9 -4 6 -9 -3 -5 1 -21 9
-37 7 -15 12 -31 9 -36 -3 -4 -1 -8 4 -8 5 0 9 -6 10 -12 1 -13 9 -48 12 -58
1 -3 2 -8 1 -12 0 -5 3 -8 9 -8 6 0 9 -3 9 -7 -1 -5 0 -10 1 -13 7 -19 7 -40
-1 -40 -8 0 -35 -20 -65 -48 -7 -7 -17 -14 -21 -15 -13 -4 -117 -107 -107
-107 5 0 1 -5 -8 -11 -10 -5 -18 -14 -18 -20 0 -5 -5 -15 -10 -22 -41 -48 -49
-61 -44 -68 3 -5 0 -9 -6 -9 -6 0 -8 -4 -5 -10 3 -5 1 -10 -5 -10 -6 0 -9 -4
-6 -9 4 -5 1 -11 -4 -13 -6 -2 -13 -12 -15 -23 -2 -11 -4 -20 -5 -20 -3 0 -11
-41 -11 -57 0 -10 -5 -18 -11 -18 -5 0 -8 -7 -5 -15 4 -8 2 -17 -3 -20 -6 -4
-8 -19 -5 -36 3 -16 2 -29 -3 -29 -7 0 -9 -201 -2 -207 1 -2 4 -16 5 -33 1
-16 4 -32 5 -35 1 -3 4 -9 5 -15 1 -5 3 -11 5 -12 2 -4 11 -41 12 -55 1 -7 5
-13 10 -13 4 0 7 -3 6 -7 -3 -16 14 -63 24 -63 5 0 8 -6 6 -12 -2 -13 29 -67
45 -79 5 -3 8 -9 8 -13 -2 -7 13 -26 51 -66 15 -15 24 -31 21 -34 -4 -3 0 -6
8 -6 8 0 29 -18 48 -40 18 -22 37 -37 42 -35 4 3 13 -4 19 -15 6 -11 15 -18
21 -15 5 4 9 1 9 -4 0 -6 7 -11 15 -11 8 0 15 -5 15 -11 0 -5 5 -7 10 -4 6 3
10 1 10 -5 0 -6 5 -8 10 -5 6 3 10 1 10 -5 0 -6 5 -8 10 -5 6 3 10 1 10 -4 0
-6 9 -11 20 -11 11 0 20 -5 20 -11 0 -6 7 -9 15 -6 8 4 17 2 20 -4 4 -5 11 -7
16 -4 5 4 9 2 9 -4 0 -5 9 -8 20 -6 11 2 20 -1 20 -7 0 -5 7 -8 15 -5 8 4 17
3 19 -2 3 -4 23 -7 46 -6 22 1 40 -1 40 -5 0 -4 35 -5 78 -3 115 6 136 8 147
14 6 4 18 5 28 4 9 -2 17 1 17 6 0 4 6 6 14 3 8 -3 17 -1 20 5 4 6 13 8 21 4
8 -3 15 0 15 6 0 6 3 10 8 10 4 -1 10 0 15 1 4 1 10 3 15 4 18 5 87 42 90 49
2 4 10 7 18 7 8 0 14 5 14 12 0 6 3 9 6 5 8 -8 19 2 112 95 91 91 102 104 102
118 0 5 5 10 11 10 5 0 7 5 4 10 -3 6 -2 10 4 10 6 0 13 11 17 25 3 14 10 25
14 25 8 0 23 38 21 53 -1 4 4 7 10 7 6 0 9 7 6 15 -4 8 -2 17 4 20 5 4 7 11 4
16 -4 5 -2 9 2 9 5 0 9 10 10 21 1 12 5 24 8 28 8 8 2693 8 2706 0 6 -3 11
-16 12 -27 1 -12 5 -22 10 -22 5 0 7 -7 3 -15 -3 -8 -1 -15 4 -15 5 0 7 -7 4
-15 -4 -8 -1 -15 6 -15 6 0 9 -4 5 -9 -3 -5 1 -16 9 -24 8 -8 12 -17 9 -21 -4
-3 -1 -6 6 -6 7 0 9 -4 6 -10 -3 -5 -1 -10 5 -10 6 0 9 -4 6 -9 -3 -4 3 -16
14 -26 11 -10 20 -23 20 -29 0 -7 9 -18 20 -26 11 -8 20 -18 20 -23 0 -13 162
-167 176 -167 3 0 19 -9 35 -21 16 -11 29 -17 29 -14 0 3 12 -2 28 -13 15 -11
30 -20 34 -21 10 -2 33 -9 56 -17 9 -4 24 -8 32 -10 31 -6 45 -10 55 -15 6 -3
29 -5 53 -4 23 1 42 -1 42 -4 0 -4 32 -6 70 -7 39 0 70 3 70 6 0 4 17 6 38 5
20 -1 42 1 47 4 6 3 15 6 20 8 6 1 21 5 35 8 14 3 30 7 37 9 7 1 16 5 19 9 4
4 16 7 26 7 10 0 18 3 18 8 0 4 21 16 48 26 26 11 49 22 52 26 3 3 21 17 40
30 40 27 177 160 165 160 -4 0 2 9 15 20 13 11 19 20 14 20 -5 0 -4 4 2 8 17
12 54 79 47 85 -3 4 -1 7 6 7 7 0 9 5 6 10 -3 6 -1 10 5 10 6 0 8 5 5 10 -3 6
-1 10 5 10 7 0 10 7 6 15 -3 8 -1 15 5 15 6 0 8 4 4 9 -3 5 0 13 6 16 5 4 8
13 5 21 -3 8 -1 14 3 14 5 0 8 8 6 18 -1 9 0 22 4 27 15 26 17 330 1 330 -2 0
-10 35 -12 58 -1 9 -6 17 -11 17 -4 0 -6 4 -2 9 3 5 1 12 -5 16 -6 4 -8 10 -5
15 3 5 1 11 -5 15 -6 4 -8 11 -5 16 4 5 1 9 -4 9 -6 0 -11 9 -11 20 0 11 -5
20 -11 20 -5 0 -8 4 -5 8 3 5 -3 18 -14 29 -10 12 -16 23 -13 27 3 3 -2 8 -11
12 -9 3 -16 12 -16 20 0 7 -8 18 -17 23 -10 6 -14 11 -10 11 5 0 -16 24 -45
53 -69 66 -101 92 -110 89 -5 -1 -8 2 -8 8 0 5 -6 10 -14 10 -15 0 -28 24 -18
34 3 4 7 13 9 21 7 33 9 41 21 63 7 12 10 27 7 32 -3 6 -1 10 5 10 6 0 9 4 5
9 -3 5 0 13 6 16 5 4 8 13 5 21 -3 8 -1 14 5 14 6 0 8 3 6 8 -3 4 0 18 6 32
14 35 18 52 18 73 0 9 5 17 11 17 5 0 8 7 5 15 -4 8 -2 17 4 20 5 4 7 11 4 16
-4 5 -1 9 5 9 7 0 10 7 6 15 -3 8 -1 15 4 15 5 0 7 7 4 15 -4 8 -1 15 7 15 7
0 10 3 7 6 -4 3 0 21 8 40 8 19 11 34 8 34 -4 0 -1 6 5 13 6 8 13 24 15 38 3
13 5 26 6 29 2 3 2 8 1 13 0 4 4 7 10 7 6 0 9 7 5 15 -3 8 -1 15 4 15 5 0 7 7
4 15 -4 8 -1 15 4 15 6 0 9 9 7 20 -2 11 1 20 7 20 6 0 9 2 6 6 -3 3 3 27 13
53 10 27 15 51 12 55 -4 3 -1 6 5 6 7 0 11 3 11 8 -1 4 0 9 1 12 3 10 11 45
12 58 1 6 5 12 9 12 5 0 6 7 3 15 -4 8 -1 15 5 15 6 0 10 3 10 8 -1 4 0 9 1
12 3 10 11 45 12 58 1 6 5 12 10 12 5 0 7 4 3 9 -3 5 -1 12 4 16 5 3 8 14 6
25 -2 11 1 20 7 20 5 0 8 7 4 15 -3 8 -1 15 4 15 5 0 7 7 4 15 -4 8 -1 15 6
15 6 0 10 6 8 12 -3 7 1 24 8 37 7 14 11 28 8 33 -3 4 -1 8 5 8 6 0 8 7 5 15
-4 8 -1 15 6 15 7 0 10 6 7 14 -3 7 -1 18 3 22 5 5 11 18 13 29 2 11 7 28 11
37 4 9 8 22 10 30 1 7 4 18 8 23 7 13 22 78 20 88 -1 4 3 7 10 7 6 0 8 3 5 7
-4 3 -2 12 4 20 6 7 9 13 5 13 -4 0 1 14 9 30 9 17 13 35 10 40 -3 6 -2 10 3
10 5 0 9 7 10 15 1 8 3 22 4 30 1 8 5 15 10 15 5 0 7 4 3 9 -3 5 0 13 6 16 5
4 8 13 5 21 -3 7 -1 16 5 19 5 4 7 11 4 16 -4 5 -2 9 3 9 5 0 9 6 10 13 4 28
10 53 16 69 4 9 9 22 10 30 2 7 6 22 10 33 5 11 14 37 22 58 8 20 11 37 8 37
-4 0 -1 6 5 13 6 8 8 17 4 20 -3 4 -1 7 6 7 7 0 11 7 8 15 -4 8 -2 17 4 20 5
4 7 11 4 16 -4 5 -2 9 3 9 5 0 9 7 10 15 1 8 3 22 4 30 1 8 6 15 11 15 5 0 7
7 3 15 -3 8 -1 15 5 15 6 0 7 5 4 10 -3 6 -3 16 2 23 4 6 8 15 9 20 1 4 3 9 4
12 1 3 4 10 5 15 1 6 3 11 5 13 1 1 3 10 5 20 2 10 7 26 11 35 9 21 15 43 16
60 1 6 5 12 10 12 4 0 7 3 6 8 -2 4 3 25 10 47 l14 40 81 -1 c45 0 87 2 92 5
6 3 24 6 40 7 17 1 31 3 33 4 1 1 10 4 20 5 9 1 33 8 52 16 19 7 38 12 43 11
4 -1 7 3 7 8 0 5 3 10 8 9 14 -2 52 13 52 21 0 4 10 10 23 14 12 3 36 17 52
31 17 14 40 33 53 43 28 20 79 70 107 103 41 50 103 147 98 153 -4 3 -1 6 6 6
8 0 11 7 7 15 -3 8 -1 15 5 15 6 0 7 5 4 10 -3 6 -1 10 5 10 6 0 9 4 5 9 -3 5
0 13 6 16 5 4 8 13 5 21 -3 8 -1 14 4 14 5 0 7 9 5 20 -2 11 -1 20 3 20 4 0 9
8 10 18 1 9 3 31 5 47 2 17 5 35 8 40 11 21 0 199 -17 265 -3 14 -6 33 -6 43
1 9 -4 17 -10 17 -5 0 -8 7 -4 15 3 8 2 15 -2 15 -4 0 -9 10 -9 22 -1 13 -7
24 -13 26 -5 2 -8 8 -4 13 3 5 0 9 -6 9 -6 0 -9 4 -5 9 3 5 -2 16 -10 24 -8 9
-15 20 -15 26 0 6 -4 11 -10 11 -5 0 -9 4 -7 8 5 19 -164 208 -175 196 -3 -2
-13 7 -22 21 -9 14 -21 23 -26 20 -6 -4 -10 -1 -10 4 0 6 -7 11 -15 11 -8 0
-15 5 -15 11 0 5 -4 7 -10 4 -5 -3 -10 -1 -10 6 0 7 -3 9 -6 6 -4 -4 -20 3
-35 14 -16 11 -29 17 -29 13 0 -3 -7 -1 -15 6 -8 6 -19 9 -25 5 -5 -3 -10 -1
-10 5 0 6 -4 8 -10 5 -5 -3 -10 -2 -10 4 0 5 -11 8 -25 5 -14 -2 -25 0 -25 5
0 5 -8 10 -17 10 -10 0 -38 3 -63 6 -78 9 -180 12 -180 5 0 -4 -12 -6 -27 -5
-16 1 -32 -1 -38 -4 -5 -3 -18 -6 -27 -7 -10 -1 -19 -3 -20 -4 -2 -1 -12 -4
-23 -6 -25 -4 -59 -12 -62 -14 -3 -3 -8 -4 -40 -15 -13 -4 -23 -12 -23 -17 0
-5 -4 -6 -10 -3 -5 3 -10 1 -10 -4 0 -6 -3 -10 -7 -9 -12 2 -47 -14 -55 -26
-4 -6 -12 -11 -18 -11 -6 0 -14 -5 -18 -10 -4 -6 -20 -19 -35 -29 -28 -17 -29
-17 -50 1 -12 10 -25 23 -29 28 -4 6 -8 7 -8 3 0 -7 -25 11 -55 39 -7 7 -15 9
-19 6 -3 -4 -6 -1 -6 5 0 5 -17 21 -37 33 -40 25 -41 25 -88 64 -16 14 -35 25
-40 25 -6 0 -17 9 -25 20 -8 11 -20 20 -26 20 -7 0 -14 3 -16 8 -3 8 -105 82
-113 82 -3 0 -14 8 -24 18 -37 32 -56 47 -61 46 -3 -1 -10 6 -17 15 -7 9 -13
13 -13 9 0 -5 -8 0 -18 10 -10 9 -29 24 -42 32 -12 8 -29 21 -36 28 -8 7 -14
10 -14 5 0 -4 -5 0 -11 10 -5 9 -16 17 -22 17 -7 0 -19 9 -27 20 -8 11 -19 20
-25 20 -7 0 -22 11 -35 25 -12 13 -27 22 -31 19 -4 -2 -13 5 -19 16 -6 11 -15
18 -21 15 -5 -4 -9 -1 -9 4 0 6 -5 11 -10 11 -6 0 -22 10 -35 23 -40 37 -55
48 -55 40 0 -4 -7 2 -15 13 -8 10 -15 16 -15 12 0 -5 -8 0 -18 10 -38 35 -60
50 -66 45 -3 -4 -6 -1 -6 5 0 7 -6 12 -14 12 -8 0 -16 7 -20 15 -3 8 -11 15
-18 15 -8 0 -20 9 -28 20 -8 11 -20 20 -27 20 -7 0 -13 5 -13 12 0 6 -3 9 -6
6 -3 -4 -14 1 -23 10 -35 33 -61 52 -61 44 0 -4 -7 2 -15 12 -8 11 -15 16 -15
11 0 -4 -9 2 -20 15 -11 13 -20 19 -20 15 0 -4 -9 2 -20 15 -11 13 -20 20 -20
16 0 -3 -14 6 -31 21 -17 16 -34 28 -38 28 -4 0 -15 7 -24 15 -33 30 -47 41
-47 35 0 -3 -8 3 -18 13 -31 29 -62 52 -62 46 0 -2 -12 6 -26 20 -15 13 -38
30 -53 38 -14 7 -30 19 -34 25 -4 7 -14 13 -21 13 -8 0 -16 7 -20 15 -3 8 -12
15 -20 15 -7 0 -17 7 -20 16 -4 9 -9 14 -13 11 -3 -4 -14 3 -24 15 -11 11 -19
18 -19 15 0 -4 -8 1 -18 11 -10 9 -29 24 -42 32 -12 8 -28 21 -36 28 -7 6 -17
12 -23 12 -6 0 -11 5 -11 10 0 6 -4 10 -10 10 -9 0 -36 19 -66 48 -8 7 -14 11
-14 7 0 -3 -11 5 -24 17 -13 13 -21 28 -17 33 6 11 12 32 13 53 1 6 5 12 9 12
4 0 6 8 4 18 -1 9 0 22 4 27 3 6 6 18 7 28 1 9 3 18 4 20 5 5 6 233 1 242 -3
6 -6 22 -7 38 -1 15 -2 28 -4 30 -2 3 -11 40 -12 55 -1 6 -6 12 -11 12 -5 0
-7 6 -4 14 3 8 3 17 -1 21 -4 4 -8 10 -8 13 -5 26 -18 52 -24 52 -4 0 -11 12
-14 26 -4 14 -11 31 -17 37 -5 7 -18 23 -29 37 -76 96 -80 100 -150 160 -29
25 -57 44 -61 43 -4 -1 -13 4 -19 12 -7 8 -19 15 -26 15 -8 0 -14 4 -14 8 0 9
-70 37 -82 34 -5 -1 -8 2 -8 6 0 5 -6 9 -12 10 -23 2 -43 7 -55 15 -7 5 -17 6
-22 2 -5 -3 -12 -1 -16 5 -3 6 -17 8 -30 6 -13 -2 -26 -1 -30 2 -9 9 -235 9
-241 1z m231 -363 c11 -2 21 -5 23 -6 1 -2 5 -3 10 -4 33 -8 112 -59 156 -102
41 -40 104 -136 99 -151 -2 -6 0 -14 6 -17 6 -4 8 -13 4 -21 -3 -8 -1 -15 4
-15 5 0 9 -40 9 -90 0 -49 -4 -90 -9 -90 -5 0 -7 -7 -4 -15 4 -8 2 -17 -4 -20
-5 -4 -7 -10 -4 -15 3 -5 1 -11 -5 -15 -6 -4 -8 -11 -5 -16 4 -5 -1 -12 -9
-15 -9 -3 -13 -10 -10 -15 3 -5 0 -9 -7 -9 -7 0 -10 -3 -7 -6 4 -3 -1 -14 -10
-24 -57 -61 -72 -77 -95 -96 -15 -12 -29 -19 -32 -16 -3 3 -5 0 -5 -7 0 -7 -4
-10 -9 -7 -5 3 -12 -1 -15 -10 -3 -8 -10 -12 -16 -9 -5 3 -10 2 -10 -4 0 -5
-9 -8 -20 -6 -11 2 -22 -1 -25 -6 -4 -5 -11 -7 -16 -4 -5 4 -9 2 -9 -3 0 -12
-186 -7 -202 5 -7 6 -21 9 -30 8 -10 -2 -18 2 -18 8 0 5 -3 8 -6 4 -3 -3 -14
2 -25 11 -11 9 -22 16 -24 15 -3 -2 -13 5 -23 15 -10 9 -35 30 -55 47 -20 16
-37 36 -37 43 0 7 -7 15 -15 18 -8 4 -13 9 -10 14 2 4 -4 16 -15 27 -10 12
-16 24 -13 27 4 3 1 6 -4 6 -6 0 -10 8 -8 18 1 9 -2 23 -8 30 -13 16 -17 202
-4 202 5 0 7 6 4 14 -3 8 -3 17 1 21 4 4 7 10 7 13 0 17 28 72 36 72 5 0 9 7
9 15 0 9 7 18 15 21 8 4 15 11 15 18 1 6 15 22 32 36 17 14 39 33 50 43 10 9
19 17 21 16 7 -2 44 17 55 28 8 7 17 11 22 8 5 -3 11 -1 15 4 3 6 12 8 20 4 8
-3 15 -1 15 4 0 9 156 9 195 -1z m-595 -1016 c0 -5 17 -19 38 -31 20 -13 39
-27 40 -31 2 -4 12 -8 23 -8 10 0 19 -4 19 -8 0 -9 70 -37 83 -34 4 1 7 -3 7
-9 0 -5 5 -7 10 -4 6 3 10 2 10 -4 0 -6 7 -8 15 -5 8 4 15 2 15 -3 0 -5 10 -9
21 -10 12 -1 24 -5 28 -8 6 -7 10 -2552 3 -2572 -4 -13 -42 -14 -42 -1 0 4 -7
5 -15 2 -8 -4 -15 -2 -15 3 0 5 -7 10 -15 11 -8 1 -22 3 -30 4 -8 1 -15 5 -15
10 0 4 -3 7 -7 7 -5 -1 -10 0 -13 1 -10 3 -45 11 -57 12 -7 1 -13 6 -13 11 0
6 -3 8 -6 4 -4 -3 -22 0 -40 8 -19 8 -34 12 -34 9 0 -2 -14 3 -30 11 -17 9
-35 13 -40 10 -5 -3 -11 -1 -15 5 -4 6 -11 8 -16 5 -5 -4 -9 -1 -9 5 0 7 -7
10 -15 6 -8 -3 -15 -1 -15 4 0 6 -3 9 -7 9 -5 -1 -10 0 -13 1 -10 3 -45 11
-57 12 -7 1 -13 6 -13 11 0 5 -7 7 -15 4 -8 -4 -17 -2 -20 4 -4 5 -11 7 -16 4
-5 -4 -9 -1 -9 4 0 6 -3 10 -7 10 -5 -1 -10 0 -13 1 -3 1 -13 3 -22 6 -10 2
-26 6 -35 8 -10 3 -19 5 -20 6 -2 2 -7 4 -13 5 -5 1 -11 3 -12 4 -2 2 -14 5
-28 7 -13 3 -29 9 -34 14 -4 4 -15 6 -22 3 -8 -3 -14 0 -14 6 0 7 -6 11 -12
10 -7 -1 -21 1 -30 4 -61 23 -65 24 -93 31 -11 2 -22 5 -25 6 -3 1 -8 2 -12 1
-5 0 -8 3 -8 9 0 6 -3 9 -7 8 -10 -2 -64 13 -78 21 -5 3 -14 6 -20 6 -22 2
-71 18 -82 28 -7 5 -13 6 -13 3 0 -4 -6 -4 -12 1 -13 8 -33 13 -55 15 -7 1
-13 5 -13 10 0 4 -3 7 -7 7 -5 -1 -11 0 -15 1 -5 1 -12 4 -18 5 -5 1 -12 4
-15 5 -5 3 -6 3 -50 15 -16 4 -36 12 -42 18 -7 5 -13 6 -13 2 0 -4 -7 -2 -15
5 -8 6 -19 9 -25 5 -5 -3 -10 -2 -10 4 0 5 -9 8 -20 6 -11 -2 -20 0 -20 5 0 5
-7 7 -15 4 -8 -4 -15 -2 -15 3 0 5 -7 10 -15 11 -8 1 -22 3 -30 4 -8 1 -15 6
-15 11 0 5 -7 7 -15 3 -8 -3 -15 -1 -15 4 0 5 -7 7 -15 4 -8 -4 -15 -1 -15 6
0 6 -4 9 -9 5 -5 -3 -12 -1 -16 4 -3 6 -12 8 -20 4 -8 -3 -15 0 -15 6 0 6 -3
10 -7 10 -5 -1 -10 0 -13 1 -3 1 -13 3 -23 5 -10 2 -26 7 -35 11 -9 4 -26 9
-36 11 -11 2 -25 8 -31 13 -7 5 -15 7 -18 3 -4 -3 -13 0 -22 7 -8 7 -15 9 -15
5 0 -4 -7 -2 -15 5 -8 6 -19 9 -24 6 -5 -4 -12 -2 -16 4 -4 6 -11 8 -16 5 -5
-4 -9 -2 -9 3 0 5 -7 9 -15 10 -8 1 -22 3 -30 4 -8 1 -15 4 -15 8 0 4 -7 7
-15 8 -8 1 -22 3 -30 4 -8 1 -15 6 -15 11 0 5 -7 7 -15 3 -8 -3 -15 -1 -15 4
0 6 -3 9 -7 9 -5 -1 -10 0 -13 1 -3 1 -13 3 -23 5 -10 2 -26 7 -35 11 -18 8
-33 12 -57 17 -8 2 -17 6 -21 9 -3 4 -12 4 -20 1 -8 -3 -14 0 -14 7 0 7 -7 10
-15 6 -8 -3 -15 -1 -15 4 0 5 -7 7 -15 4 -8 -4 -15 -1 -15 6 0 6 -4 9 -9 5 -5
-3 -12 -1 -16 5 -4 6 -11 8 -16 5 -11 -7 -10 -11 -15 95 -7 135 -8 140 -17
140 -4 0 -5 5 -2 10 3 6 3 16 -2 23 -4 6 -8 19 -8 28 0 9 -5 22 -11 30 -11 15
-11 25 0 51 5 10 12 15 17 12 5 -3 9 -2 9 3 0 4 21 22 45 38 25 17 45 34 45
38 0 5 4 6 9 2 5 -3 17 5 25 17 9 12 16 18 16 13 0 -6 5 -2 11 8 5 9 15 17 20
17 6 0 16 6 24 13 26 25 55 47 55 42 0 -6 17 6 51 38 10 9 19 14 19 10 0 -5 5
0 11 10 5 9 16 17 23 17 8 0 17 7 20 16 3 8 10 13 14 10 5 -3 16 3 25 12 27
29 51 47 59 44 5 -1 8 2 8 8 0 5 6 10 13 10 7 0 19 9 27 19 7 11 17 18 22 15
4 -3 11 2 14 10 3 9 12 16 19 16 7 0 16 7 19 16 4 9 9 14 12 11 4 -3 12 -1 19
6 29 28 65 56 65 52 0 -6 16 6 51 38 10 9 19 14 19 10 0 -4 9 2 20 13 32 32
48 43 53 38 3 -3 10 4 17 15 6 12 15 19 21 16 5 -4 12 1 15 9 3 8 15 18 25 21
11 4 31 18 44 31 14 14 25 22 25 19 0 -4 6 0 14 7 29 28 56 48 56 41 0 -3 9 4
20 17 11 13 20 19 20 14 0 -5 7 0 16 11 8 11 18 20 23 20 8 0 62 39 92 68 11
9 19 15 19 12 0 -7 24 12 47 37 9 9 20 15 24 12 5 -2 13 5 19 16 6 11 15 18
20 15 5 -3 13 3 19 12 6 10 11 14 11 9 0 -5 9 1 20 14 11 13 20 20 20 17 0 -8
92 61 102 77 4 6 8 7 8 3 0 -8 13 2 51 36 10 9 23 17 29 17 5 0 13 8 19 18 5
9 11 15 14 12 3 -5 37 19 95 67 15 13 31 23 36 23 5 0 17 10 27 22 11 11 19
17 19 13 0 -4 9 2 20 15 11 13 20 19 20 14 0 -5 7 0 15 10 8 11 15 16 15 11 0
-4 9 2 20 15 11 13 20 20 20 16 0 -4 12 5 27 19 15 14 32 25 38 25 6 0 17 9
25 20 8 11 20 20 28 20 7 0 15 7 18 15 4 8 9 13 14 10 4 -2 20 8 36 24 26 26
54 32 54 11z m1048 -24 c12 -11 22 -16 22 -11 0 4 9 -2 20 -15 11 -13 20 -19
20 -14 0 5 5 1 11 -8 5 -10 16 -18 23 -18 8 0 17 -7 20 -16 3 -8 10 -13 15
-10 5 4 11 3 13 -1 5 -12 98 -85 98 -78 0 3 11 -4 25 -17 37 -35 53 -48 61
-48 3 0 35 -23 70 -50 35 -28 64 -48 64 -45 0 3 8 -3 18 -12 35 -33 62 -53 62
-45 0 4 5 0 10 -8 5 -8 14 -15 20 -15 6 0 14 -5 18 -10 10 -14 86 -71 90 -67
2 2 12 -6 21 -17 10 -12 22 -21 26 -21 8 0 87 -60 97 -75 4 -5 8 -6 8 -2 0 8
18 -5 50 -37 11 -11 20 -16 20 -11 0 4 9 -2 20 -15 11 -13 20 -19 20 -14 0 5
4 4 8 -1 4 -6 23 -22 42 -35 19 -13 40 -31 47 -40 7 -8 13 -11 13 -7 0 5 6 2
14 -5 29 -28 56 -48 56 -41 0 3 8 -4 19 -15 10 -12 23 -22 28 -22 5 0 20 -10
33 -22 14 -13 27 -23 30 -23 3 0 16 -10 30 -22 13 -13 27 -23 31 -23 5 0 17
-10 29 -22 11 -12 20 -18 20 -13 0 4 9 -2 20 -15 11 -13 20 -20 20 -16 0 4 6
1 14 -6 7 -7 24 -20 36 -28 12 -8 34 -25 48 -37 15 -13 32 -23 37 -23 6 0 16
-9 23 -21 7 -12 16 -18 19 -15 3 3 14 -4 24 -16 11 -11 19 -18 19 -14 0 4 6 1
14 -6 32 -30 55 -46 59 -41 3 2 10 -5 17 -16 6 -12 15 -19 21 -16 5 4 12 -1
15 -9 3 -9 12 -16 19 -16 7 0 16 -7 19 -16 4 -9 9 -14 13 -11 3 4 14 -3 24
-15 11 -11 19 -18 19 -14 0 7 19 -7 50 -38 11 -11 20 -16 20 -12 0 4 12 -5 27
-19 15 -14 32 -25 38 -25 6 0 16 -9 23 -20 7 -12 17 -18 22 -15 6 3 10 3 10
-2 0 -4 17 -19 38 -33 20 -14 42 -32 49 -40 7 -8 13 -11 13 -6 0 6 6 1 14 -9
12 -17 12 -25 1 -52 -8 -18 -12 -33 -9 -33 3 0 2 -6 -3 -12 -4 -7 -8 -20 -8
-28 0 -8 -3 -19 -6 -25 -3 -5 -5 -22 -4 -37 1 -16 -1 -28 -5 -28 -3 0 -6 -33
-5 -72 2 -78 -2 -101 -15 -93 -5 3 -11 1 -15 -5 -4 -6 -11 -8 -16 -5 -5 4 -9
1 -9 -5 0 -6 -4 -9 -9 -5 -5 3 -12 1 -16 -4 -3 -6 -12 -8 -20 -4 -8 3 -15 0
-15 -7 0 -6 -4 -9 -9 -5 -5 3 -12 1 -16 -4 -3 -5 -14 -8 -25 -6 -11 2 -22 -1
-25 -6 -4 -5 -11 -7 -16 -4 -5 4 -9 1 -9 -5 0 -6 -4 -8 -10 -5 -5 3 -10 2 -10
-4 0 -5 -8 -8 -17 -6 -10 1 -24 -2 -30 -8 -7 -5 -13 -7 -13 -4 0 3 -12 0 -27
-8 -15 -8 -30 -12 -35 -9 -4 3 -8 1 -8 -4 0 -5 -7 -9 -15 -10 -8 -1 -22 -3
-30 -4 -8 -1 -15 -4 -15 -8 0 -4 -7 -7 -15 -8 -8 -1 -22 -3 -30 -4 -8 -1 -15
-5 -15 -9 0 -5 -6 -6 -14 -3 -8 3 -17 0 -21 -5 -3 -6 -11 -9 -16 -6 -5 4 -9 2
-9 -4 0 -6 -6 -8 -14 -5 -8 3 -17 1 -20 -5 -4 -6 -13 -8 -21 -4 -8 3 -15 0
-15 -6 0 -6 -3 -10 -7 -10 -5 1 -10 0 -13 -1 -3 -1 -13 -3 -23 -5 -10 -2 -26
-7 -35 -11 -9 -4 -24 -9 -32 -11 -8 -2 -22 -5 -30 -8 -8 -2 -17 -4 -20 -5 -3
-1 -8 -2 -12 -1 -5 0 -8 -4 -8 -11 0 -6 -3 -8 -7 -5 -3 4 -12 2 -20 -4 -7 -6
-13 -9 -13 -5 0 3 -15 0 -34 -8 -19 -8 -37 -12 -40 -8 -3 3 -6 0 -6 -7 0 -8
-7 -11 -15 -7 -8 3 -15 1 -15 -4 0 -5 -9 -7 -20 -5 -11 2 -22 -1 -25 -6 -4 -5
-10 -7 -15 -4 -5 3 -11 1 -15 -5 -4 -6 -11 -8 -16 -5 -5 4 -9 2 -9 -4 0 -6 -6
-8 -14 -5 -8 3 -17 0 -21 -5 -3 -6 -11 -9 -16 -6 -5 4 -9 2 -9 -3 0 -5 -6 -9
-12 -10 -13 -1 -48 -9 -58 -12 -3 -1 -8 -2 -12 -1 -5 0 -8 -3 -8 -7 0 -5 -6
-9 -12 -10 -13 -1 -48 -9 -58 -12 -3 -1 -8 -2 -12 -1 -5 0 -8 -3 -8 -9 0 -5
-6 -7 -14 -4 -8 3 -17 0 -21 -5 -3 -6 -11 -9 -16 -6 -5 4 -9 2 -9 -4 0 -5 -9
-8 -20 -6 -11 2 -22 -1 -25 -6 -4 -5 -11 -7 -16 -4 -5 4 -9 1 -9 -5 0 -6 -6
-10 -12 -9 -7 1 -22 -1 -33 -5 -11 -5 -27 -10 -35 -14 -8 -3 -21 -4 -27 -3 -7
1 -13 -3 -13 -10 0 -6 -7 -9 -15 -5 -8 3 -15 2 -15 -3 0 -4 -6 -8 -12 -9 -16
-1 -37 -7 -63 -16 -11 -5 -27 -10 -35 -14 -8 -3 -21 -4 -27 -3 -7 1 -13 -3
-13 -9 0 -6 -4 -9 -9 -5 -5 3 -12 1 -16 -5 -4 -6 -10 -8 -15 -5 -4 3 -24 -2
-44 -10 -20 -8 -36 -12 -36 -9 0 4 -7 1 -15 -6 -8 -7 -15 -9 -15 -6 0 4 -10 1
-22 -6 -13 -7 -29 -11 -35 -10 -7 2 -13 -1 -13 -6 0 -5 -6 -9 -12 -10 -15 -1
-52 -10 -55 -12 -2 -2 -7 -4 -13 -5 -5 -1 -13 -4 -17 -5 -5 -1 -11 -2 -15 -1
-5 0 -8 -3 -8 -7 0 -5 -6 -9 -12 -10 -23 -1 -58 -11 -71 -19 -6 -4 -16 -8 -22
-8 -5 -1 -30 -7 -55 -15 -25 -7 -48 -13 -52 -12 -5 1 -8 -2 -8 -8 0 -6 -3 -9
-7 -9 -5 1 -10 0 -13 -1 -10 -3 -45 -11 -57 -12 -7 -1 -13 -6 -13 -11 0 -6 -3
-8 -6 -4 -4 3 -24 -1 -46 -10 -21 -8 -42 -12 -46 -8 -4 3 -7 585 -7 1291 0
1276 0 1284 20 1291 11 4 23 6 28 5 4 -1 7 3 7 10 0 6 3 9 6 5 4 -3 19 0 34 8
15 8 30 11 34 8 3 -4 6 -1 6 6 0 7 5 9 10 6 6 -3 10 -1 10 5 0 6 5 8 10 5 6
-3 10 -1 10 4 0 6 9 11 20 11 11 0 20 5 20 11 0 5 4 8 9 5 5 -3 12 1 15 10 3
8 10 13 15 10 5 -3 24 9 42 28 36 35 37 35 87 -8z m-3948 -1438 c0 -5 11 -6
25 -4 13 3 27 1 30 -4 3 -5 14 -7 25 -5 11 2 20 -1 20 -7 0 -6 3 -8 7 -5 3 4
12 2 20 -4 7 -6 13 -8 13 -5 0 8 71 -43 82 -59 4 -5 8 -6 8 -2 0 10 60 -51 60
-61 0 -4 11 -19 24 -34 14 -14 22 -29 19 -32 -4 -3 0 -6 7 -6 7 0 10 -3 7 -7
-4 -3 -1 -13 5 -21 13 -15 19 -34 21 -69 0 -13 4 -23 7 -23 8 0 6 -122 -1
-135 -4 -5 -5 -18 -4 -27 2 -10 -1 -18 -6 -18 -4 0 -6 -7 -3 -15 4 -8 1 -15
-6 -15 -7 0 -10 -7 -6 -15 3 -9 -1 -18 -8 -21 -8 -3 -17 -16 -20 -28 -7 -28
-135 -158 -147 -150 -5 3 -9 0 -9 -5 0 -6 -7 -11 -15 -11 -8 0 -15 -5 -15 -11
0 -5 -4 -8 -9 -4 -5 3 -12 1 -16 -4 -3 -6 -12 -8 -20 -4 -8 3 -15 0 -15 -7 0
-7 -7 -10 -15 -6 -8 3 -15 2 -15 -2 0 -7 -158 -8 -170 -2 -3 2 -9 4 -15 5 -10
3 -18 5 -32 10 -5 2 -18 6 -30 10 -13 4 -23 12 -23 18 0 6 -3 8 -6 4 -6 -5
-15 0 -49 31 -8 7 -15 11 -15 8 0 -3 -17 11 -38 32 -22 20 -37 40 -35 44 2 4
-6 13 -17 21 -11 7 -17 17 -13 20 3 4 1 7 -5 7 -7 0 -11 3 -10 8 1 4 -3 17
-10 30 -7 12 -10 22 -6 22 3 0 1 6 -5 13 -6 8 -8 17 -4 20 3 4 2 7 -4 7 -6 0
-9 14 -8 30 1 17 -1 30 -4 30 -9 0 -8 61 1 75 3 6 5 25 3 43 -1 17 1 32 6 32
5 0 6 7 3 15 -4 8 -1 15 5 15 6 0 10 3 9 8 -4 11 26 72 34 72 5 0 8 7 8 15 0
7 6 18 13 22 7 4 23 21 35 37 12 16 22 26 22 22 0 -3 14 7 31 24 17 16 35 27
40 25 4 -3 12 2 17 11 5 9 21 17 36 17 14 0 26 4 26 9 0 5 4 7 9 3 5 -3 12 -1
15 4 3 5 19 7 36 6 17 -1 32 1 35 5 6 10 65 8 65 -2z m6858 2 c1 -2 11 -4 22
-5 11 -1 22 -4 25 -5 3 -1 8 -3 13 -4 30 -5 92 -31 92 -38 0 -5 4 -7 9 -4 5 3
19 -5 32 -18 13 -12 37 -31 52 -41 15 -10 25 -20 22 -23 -2 -3 7 -15 20 -28
14 -13 25 -30 25 -37 0 -8 7 -18 16 -21 8 -3 12 -10 9 -16 -3 -5 -1 -10 6 -10
7 0 10 -3 6 -6 -3 -4 0 -21 7 -38 7 -17 12 -42 11 -56 -1 -14 0 -29 4 -35 8
-14 9 -75 1 -75 -3 0 -7 -12 -8 -27 -1 -34 -5 -49 -22 -88 -7 -16 -13 -33 -12
-37 1 -5 -3 -8 -10 -8 -6 0 -8 -3 -5 -7 4 -3 -2 -13 -13 -20 -11 -8 -19 -17
-17 -21 2 -4 -14 -24 -35 -45 -21 -21 -38 -35 -38 -32 0 3 -10 -3 -22 -15 -12
-11 -28 -20 -35 -20 -7 0 -13 -4 -13 -9 0 -7 -9 -11 -50 -22 -3 0 -14 -6 -25
-12 -23 -12 -184 -17 -191 -6 -2 5 -11 6 -19 2 -8 -3 -15 -1 -15 4 0 5 -7 10
-15 11 -8 1 -22 3 -30 4 -8 1 -15 6 -15 11 0 6 -3 8 -6 4 -3 -3 -14 2 -25 11
-11 9 -22 16 -24 14 -8 -3 -110 102 -107 111 1 4 -5 10 -13 13 -8 3 -12 10 -9
15 3 5 1 9 -4 9 -5 0 -12 8 -15 18 -4 9 -13 34 -20 55 -8 20 -12 37 -10 37 3
0 1 6 -4 13 -10 12 -9 114 1 174 6 35 43 109 79 158 25 34 67 78 67 70 0 -7
24 12 47 37 9 9 20 15 24 13 4 -3 12 2 19 10 6 7 18 11 26 8 8 -3 14 0 14 5 0
6 9 9 20 7 11 -2 22 0 25 5 3 5 17 7 30 4 14 -2 25 0 25 5 0 7 69 8 78 1z
m-6192 -833 c8 3 14 1 14 -4 0 -9 6 -11 50 -15 11 -1 20 -6 20 -10 0 -4 7 -5
15 -2 8 4 15 1 15 -6 0 -7 7 -10 15 -6 8 3 15 2 15 -3 0 -4 7 -8 15 -9 8 -1
22 -3 30 -4 8 -1 15 -4 15 -8 0 -4 6 -7 13 -8 22 -2 42 -8 65 -20 12 -7 22
-10 22 -7 0 4 6 3 13 -2 6 -4 18 -9 25 -10 31 -7 38 -10 57 -20 11 -6 28 -9
38 -8 9 2 17 -1 17 -6 0 -6 4 -8 9 -4 5 3 12 1 16 -4 3 -6 12 -8 20 -4 8 3 15
0 15 -6 0 -6 3 -10 8 -10 4 1 9 0 12 -1 3 -1 13 -3 23 -5 10 -2 26 -7 35 -11
9 -4 23 -8 30 -10 8 -1 21 -6 30 -10 9 -4 26 -9 37 -11 11 -2 24 -8 29 -13 4
-4 15 -6 22 -3 8 3 14 0 14 -7 0 -7 7 -10 15 -7 8 4 17 2 20 -2 5 -9 73 -26
88 -23 4 1 7 -3 7 -9 0 -5 4 -8 9 -4 5 3 13 0 16 -6 4 -5 13 -8 21 -5 8 3 14
2 14 -3 0 -4 7 -8 15 -9 8 -1 22 -3 30 -4 8 -1 15 -4 15 -8 0 -4 7 -7 15 -8 8
-1 22 -3 30 -4 8 -1 15 -4 15 -8 0 -4 7 -7 15 -8 8 -1 22 -3 30 -4 8 -1 15 -5
15 -10 0 -4 3 -7 8 -7 4 1 9 0 12 -1 3 -1 12 -3 20 -5 8 -2 29 -8 47 -13 17
-6 34 -8 37 -4 3 3 6 0 6 -7 0 -7 4 -10 9 -6 5 3 12 1 16 -4 3 -6 12 -8 20 -4
8 3 15 0 15 -7 0 -6 4 -9 9 -5 5 3 12 1 16 -4 3 -6 12 -8 20 -4 8 3 15 -1 15
-8 0 -7 3 -9 7 -6 3 4 12 2 20 -4 7 -6 13 -9 13 -5 0 3 23 -3 50 -14 28 -11
50 -17 50 -14 0 4 6 1 13 -5 8 -6 17 -8 20 -4 4 3 7 1 7 -6 0 -8 7 -11 15 -7
8 3 15 1 15 -4 0 -5 7 -7 15 -4 8 4 15 1 15 -4 0 -6 9 -9 20 -7 11 2 20 0 20
-4 0 -4 7 -8 15 -9 8 -1 22 -3 30 -4 8 -1 15 -6 15 -11 0 -5 6 -7 14 -4 7 3
18 1 23 -4 9 -9 44 -20 71 -21 6 -1 12 -5 12 -10 0 -5 4 -7 9 -3 5 3 12 1 16
-5 4 -6 10 -8 15 -5 5 3 11 1 15 -5 4 -6 10 -8 15 -5 5 3 11 1 15 -4 3 -6 12
-8 20 -4 8 3 15 1 15 -4 0 -5 7 -10 15 -11 8 -1 22 -3 30 -4 8 -1 15 -5 15 -9
0 -4 9 -6 20 -4 11 2 20 0 20 -6 0 -5 3 -8 8 -8 4 1 9 0 12 -1 3 -1 12 -3 20
-5 8 -3 22 -6 30 -8 8 -2 24 -7 35 -11 11 -5 27 -10 35 -14 8 -3 21 -4 28 -3
6 1 12 -3 12 -9 0 -5 3 -9 8 -9 4 1 9 1 12 -1 3 -1 16 -4 30 -6 13 -3 29 -9
34 -14 4 -4 15 -6 22 -3 8 3 14 -1 14 -8 0 -7 3 -9 7 -6 3 4 12 2 20 -4 7 -6
13 -8 13 -5 0 4 9 2 20 -4 21 -11 21 -11 -2 -30 -13 -11 -20 -19 -15 -20 7 0
0 -9 -43 -57 -11 -13 -20 -26 -20 -31 0 -4 -12 -21 -27 -37 -16 -16 -28 -32
-28 -35 0 -3 -9 -15 -20 -28 -11 -13 -19 -26 -17 -29 2 -2 -7 -13 -19 -24 -12
-10 -18 -19 -14 -19 4 0 -2 -8 -13 -19 -12 -10 -22 -22 -22 -27 0 -5 -10 -21
-23 -36 -42 -51 -65 -83 -65 -91 -1 -5 -11 -17 -23 -28 -12 -10 -18 -19 -14
-19 4 0 -2 -8 -13 -19 -12 -10 -22 -23 -22 -28 0 -5 -10 -20 -22 -33 -13 -14
-23 -27 -23 -30 0 -3 -10 -16 -22 -30 -13 -13 -23 -27 -23 -30 0 -4 -8 -16
-17 -28 -46 -54 -53 -63 -53 -70 0 -6 -16 -27 -60 -79 -5 -7 -10 -16 -10 -22
0 -5 -7 -12 -16 -15 -9 -4 -14 -9 -12 -12 3 -3 -7 -19 -23 -36 -15 -17 -26
-35 -23 -39 2 -4 -5 -13 -17 -19 -11 -7 -18 -14 -15 -17 3 -3 -4 -14 -16 -24
-11 -11 -17 -19 -13 -19 5 0 0 -9 -11 -20 -31 -31 -45 -50 -38 -50 4 0 -3 -8
-14 -19 -12 -10 -22 -23 -22 -30 0 -6 -5 -11 -11 -11 -5 0 -8 -4 -5 -8 3 -5
-3 -16 -12 -25 -22 -20 -34 -36 -58 -72 -10 -17 -24 -34 -31 -38 -8 -5 -11
-12 -8 -17 3 -4 -2 -10 -10 -14 -8 -3 -15 -12 -15 -20 0 -7 -7 -17 -16 -20 -9
-4 -14 -9 -11 -12 6 -6 -14 -33 -47 -65 -11 -11 -16 -19 -12 -19 4 0 1 -6 -6
-14 -26 -27 -48 -56 -42 -56 2 0 -7 -11 -21 -25 -14 -14 -25 -30 -25 -34 0 -4
-9 -19 -20 -32 -11 -13 -23 -29 -28 -34 -5 -6 -17 -24 -28 -40 -10 -17 -23
-35 -29 -42 -27 -31 -60 -77 -60 -84 0 -5 -9 -15 -20 -23 -11 -9 -16 -16 -11
-16 5 0 -1 -9 -14 -20 -13 -11 -19 -20 -15 -20 5 0 0 -9 -11 -20 -29 -29 -45
-50 -39 -50 3 0 -3 -9 -12 -19 -10 -11 -24 -27 -32 -36 -9 -11 -17 -13 -23 -7
-6 6 -17 8 -24 5 -8 -3 -14 0 -14 7 0 7 -7 10 -15 7 -8 -4 -17 -2 -20 3 -3 5
-13 8 -23 8 -9 0 -33 3 -52 7 -19 4 -70 8 -112 9 -64 1 -80 4 -92 21 -7 10
-12 25 -9 32 3 7 0 13 -6 13 -6 0 -10 3 -9 8 1 4 -5 27 -12 52 -8 25 -14 48
-16 53 -1 4 -3 10 -4 15 -1 4 -2 10 -1 15 0 4 -3 7 -7 7 -8 0 -12 14 -13 53 0
9 -5 17 -10 17 -6 0 -9 6 -7 12 3 7 -1 24 -8 37 -7 14 -11 28 -8 33 3 4 1 8
-5 8 -6 0 -8 7 -5 15 4 8 1 15 -6 15 -7 0 -10 7 -7 15 4 8 2 17 -4 20 -5 4 -7
11 -4 16 4 5 1 9 -5 9 -6 0 -10 6 -9 13 1 6 -1 20 -4 30 -4 9 -10 25 -14 35
-3 9 -5 23 -4 30 1 6 -3 12 -10 12 -6 0 -9 6 -6 14 3 7 2 17 -3 22 -8 8 -20
53 -22 82 -1 6 -5 12 -9 12 -5 0 -6 7 -3 15 4 8 2 15 -3 15 -5 0 -10 7 -11 15
-1 8 -3 22 -4 30 -1 8 -5 15 -10 15 -5 0 -7 4 -3 9 3 5 1 12 -4 16 -6 3 -8 12
-4 20 3 8 1 15 -4 15 -5 0 -10 6 -11 13 -1 26 -12 60 -22 71 -5 7 -7 16 -3 19
3 4 1 13 -5 20 -7 8 -9 17 -5 20 3 4 2 7 -4 7 -5 0 -10 6 -11 13 0 11 -8 44
-16 72 -2 6 -6 18 -10 27 -4 9 -9 25 -11 35 -2 10 -4 20 -5 23 -1 3 -2 8 -1
13 0 4 -4 7 -10 7 -6 0 -9 7 -5 15 3 8 1 15 -4 15 -5 0 -7 7 -4 15 4 8 2 15
-3 15 -5 0 -10 7 -11 15 -1 8 -3 22 -4 30 -1 8 -6 15 -11 15 -5 0 -7 7 -3 15
3 8 1 15 -4 15 -5 0 -7 7 -4 15 4 8 1 15 -6 15 -7 0 -10 7 -7 15 4 8 2 17 -4
20 -5 4 -7 11 -4 16 4 5 2 9 -4 9 -5 0 -10 8 -10 18 -1 36 -5 52 -11 52 -4 0
-7 7 -8 15 -1 8 -3 22 -4 30 -1 8 -6 15 -11 15 -6 0 -8 3 -4 6 3 4 0 21 -8 39
-7 19 -11 36 -7 39 3 3 1 6 -5 6 -5 0 -10 7 -11 15 -1 8 -3 22 -4 30 -1 8 -6
15 -11 15 -5 0 -7 7 -4 15 4 8 2 17 -4 20 -5 4 -7 10 -4 15 3 5 1 11 -5 15 -6
4 -8 10 -5 15 3 5 1 11 -5 15 -6 4 -8 11 -5 16 4 5 2 9 -2 9 -5 0 -10 8 -11
18 -3 29 -7 46 -13 57 -8 14 -23 68 -21 78 1 4 -3 7 -8 7 -6 0 -10 6 -9 13 1
6 -1 21 -5 32 -4 11 -12 31 -16 45 -4 14 -11 34 -16 45 -8 21 -11 35 -18 63
-3 9 -5 19 -6 22 -1 3 -2 8 -1 13 0 4 -3 7 -8 7 -6 0 -8 9 -6 20 2 11 0 20 -4
20 -4 0 -8 7 -9 15 -1 8 -3 22 -4 30 -1 8 -6 15 -11 15 -5 0 -7 7 -4 15 4 8 2
17 -4 20 -5 4 -7 10 -4 15 3 5 1 11 -5 15 -6 4 -8 10 -5 15 3 5 1 11 -5 15 -6
4 -8 11 -5 16 4 5 2 9 -3 9 -5 0 -9 6 -10 13 -1 12 -9 47 -12 57 -1 3 -2 8 -1
13 0 4 -3 7 -8 7 -5 0 -7 9 -4 20 3 11 12 20 19 20 8 0 14 5 14 11 0 5 4 8 8
5 5 -3 14 4 22 14 8 10 16 17 19 16 3 -2 32 23 64 55 32 33 56 59 53 59 -3 0
2 9 12 19 31 35 43 51 37 51 -3 0 -3 5 1 11 4 7 10 7 16 1 6 -6 17 -8 24 -5z
m5526 -55 c5 -2 8 -8 8 -14 0 -6 27 -36 60 -67 79 -75 93 -86 102 -83 5 1 8
-3 8 -8 0 -5 6 -10 14 -10 7 0 16 -9 19 -20 3 -11 2 -20 -2 -20 -4 0 -8 -7 -9
-15 -1 -8 -3 -22 -4 -30 -1 -8 -4 -15 -8 -15 -4 0 -7 -7 -8 -15 -1 -8 -3 -22
-4 -30 -1 -8 -4 -15 -8 -15 -4 0 -7 -7 -8 -15 -1 -8 -3 -22 -4 -30 -1 -8 -5
-15 -10 -15 -5 0 -7 -4 -4 -8 3 -5 -1 -19 -8 -33 -7 -13 -11 -30 -8 -37 2 -6
-1 -12 -7 -12 -6 0 -10 -3 -10 -7 1 -5 0 -10 -1 -13 -2 -5 -9 -46 -12 -67 -1
-7 -5 -13 -10 -13 -5 0 -7 -4 -3 -9 3 -5 1 -12 -4 -16 -6 -3 -8 -12 -4 -20 3
-8 0 -15 -7 -15 -7 0 -10 -7 -6 -15 3 -8 1 -15 -4 -15 -5 0 -7 -7 -4 -15 4 -8
1 -15 -6 -15 -6 0 -10 -6 -8 -12 3 -7 -1 -24 -8 -37 -7 -14 -11 -28 -8 -33 3
-4 1 -8 -5 -8 -6 0 -8 -7 -5 -15 4 -8 1 -15 -6 -15 -7 0 -10 -7 -7 -15 4 -8 2
-17 -4 -20 -5 -4 -7 -11 -4 -16 4 -5 1 -9 -5 -9 -7 0 -10 -7 -6 -15 3 -8 1
-15 -5 -15 -6 0 -7 -5 -4 -10 4 -6 1 -17 -5 -25 -7 -8 -9 -15 -5 -15 4 0 2 -7
-5 -15 -7 -8 -9 -15 -6 -15 4 0 4 -6 -1 -12 -8 -13 -13 -33 -15 -55 -1 -7 -4
-13 -8 -13 -4 0 -7 -7 -8 -15 -1 -8 -3 -22 -4 -30 -1 -8 -5 -15 -9 -15 -5 0
-6 -7 -3 -15 4 -8 1 -15 -6 -15 -6 0 -9 -4 -5 -9 3 -5 1 -12 -5 -16 -6 -4 -8
-10 -5 -15 3 -5 1 -11 -5 -15 -6 -4 -8 -10 -5 -15 3 -5 1 -11 -4 -15 -6 -3 -8
-12 -4 -20 3 -8 0 -15 -5 -15 -6 0 -9 -9 -7 -20 2 -11 0 -20 -4 -20 -4 0 -8
-7 -9 -15 -1 -8 -3 -22 -4 -30 -1 -8 -6 -15 -11 -15 -5 0 -7 -7 -3 -15 3 -8 1
-15 -4 -15 -5 0 -7 -7 -4 -15 4 -8 2 -15 -3 -15 -5 0 -10 -7 -11 -15 -1 -8 -3
-22 -4 -30 -1 -8 -6 -15 -11 -15 -5 0 -7 -7 -3 -15 3 -8 1 -15 -4 -15 -5 0 -7
-7 -4 -15 4 -8 1 -15 -6 -15 -7 0 -10 -7 -6 -15 3 -8 2 -15 -3 -15 -4 0 -8 -6
-9 -12 -1 -13 -9 -48 -12 -58 -1 -3 -2 -8 -1 -12 0 -5 -3 -8 -8 -8 -6 0 -8 -9
-6 -20 2 -11 0 -20 -6 -20 -5 0 -8 -3 -7 -7 1 -5 -6 -33 -17 -63 -11 -30 -20
-58 -21 -62 -1 -5 -2 -9 -4 -10 -1 -2 -3 -11 -5 -21 -2 -10 -7 -26 -11 -35 -7
-18 -11 -29 -18 -59 -3 -10 -5 -20 -6 -23 -1 -3 -2 -8 -1 -12 0 -5 -4 -8 -10
-8 -5 0 -8 -4 -4 -9 3 -5 1 -12 -5 -16 -6 -4 -8 -10 -5 -15 3 -5 1 -11 -4 -15
-5 -3 -8 -14 -6 -25 2 -11 -1 -20 -7 -20 -5 0 -8 -6 -5 -14 3 -7 1 -18 -3 -22
-5 -5 -11 -18 -13 -29 -2 -11 -9 -31 -14 -45 -6 -14 -9 -28 -6 -32 2 -5 0 -8
-6 -8 -6 0 -8 -7 -5 -15 4 -8 1 -15 -6 -15 -7 0 -10 -7 -7 -15 4 -8 2 -17 -4
-20 -5 -4 -7 -11 -4 -16 4 -5 1 -9 -5 -9 -6 0 -10 -6 -9 -12 1 -7 0 -20 -3
-28 -25 -65 -26 -68 -30 -90 -2 -8 -7 -21 -11 -27 -5 -7 -5 -17 -2 -23 3 -5 1
-10 -5 -10 -6 0 -9 -4 -5 -9 3 -5 0 -13 -6 -16 -5 -4 -8 -13 -5 -21 3 -8 1
-14 -5 -14 -6 0 -8 -4 -4 -9 3 -5 0 -13 -6 -16 -5 -4 -8 -13 -5 -21 3 -8 1
-14 -5 -14 -6 0 -8 -4 -5 -8 2 -4 -3 -26 -13 -47 l-17 -40 -90 -3 c-133 -3
-134 -3 -134 -12 0 -5 -8 -7 -17 -5 -10 1 -22 0 -28 -4 -5 -3 -19 -7 -30 -8
-11 -2 -23 -7 -28 -12 -10 -10 -47 -3 -47 8 0 4 -9 17 -20 29 -12 12 -18 22
-15 22 4 0 0 6 -7 14 -24 25 -48 56 -48 62 0 2 -5 10 -10 17 -46 54 -60 73
-60 82 0 6 -9 17 -19 25 -11 7 -18 17 -15 22 3 4 -2 11 -10 14 -9 3 -16 12
-16 19 0 7 -7 16 -16 19 -9 4 -14 9 -11 13 4 3 -3 14 -15 24 -11 11 -18 19
-14 19 4 0 1 6 -6 14 -28 29 -48 56 -41 56 3 0 -4 9 -17 20 -13 11 -19 20 -15
20 4 0 -2 8 -13 19 -12 10 -22 22 -22 27 0 5 -12 23 -26 39 -14 17 -33 42 -42
58 -9 15 -20 27 -24 27 -4 0 -8 7 -8 15 0 9 -7 18 -15 21 -8 4 -13 10 -10 14
3 5 -5 16 -17 24 -12 9 -19 16 -15 16 7 0 -1 12 -33 47 -8 9 -15 19 -15 23 0
3 -10 16 -22 30 -13 13 -23 29 -23 35 0 6 -9 17 -19 25 -11 7 -18 17 -15 22 3
4 -2 11 -10 14 -9 3 -16 12 -16 19 0 7 -7 16 -16 19 -8 3 -13 10 -9 15 3 5 -5
17 -17 25 -12 9 -19 16 -14 16 5 0 -3 12 -18 26 -14 15 -26 31 -26 37 0 5 -10
18 -22 28 -11 11 -18 19 -14 19 7 0 -7 19 -38 50 -11 11 -16 20 -11 20 4 0 -2
9 -15 20 -13 11 -20 20 -15 20 4 0 -4 12 -18 26 -15 14 -29 35 -32 45 -4 10
-11 19 -16 19 -5 0 -9 7 -9 15 0 7 -8 19 -17 24 -10 6 -14 11 -9 11 6 0 1 8
-10 19 -10 10 -26 28 -34 41 -8 12 -21 29 -28 36 -7 8 -10 14 -6 14 4 0 -3 9
-16 20 -13 11 -19 20 -15 20 5 0 -1 9 -13 20 -12 12 -22 24 -22 29 0 4 -8 16
-17 27 -34 36 -73 93 -73 103 0 6 -5 11 -10 11 -6 0 -14 8 -17 18 -4 9 -15 25
-25 34 -11 9 -19 19 -18 22 1 9 -52 79 -68 89 -7 5 -10 12 -7 18 4 5 -1 12 -9
15 -9 3 -16 12 -16 20 0 7 -8 18 -17 23 -10 6 -14 11 -9 11 5 0 -1 9 -14 20
-13 11 -19 20 -15 20 5 0 -2 10 -14 21 -18 17 -20 23 -10 30 7 4 16 6 20 3 4
-2 10 0 14 5 3 6 12 8 20 4 8 -3 15 0 15 7 0 7 7 10 15 6 8 -3 15 -1 15 4 0 5
7 7 15 4 8 -4 15 -1 15 5 0 6 3 10 8 10 4 -1 9 -1 12 1 3 1 16 4 30 6 13 3 29
9 34 14 4 4 15 6 22 3 8 -3 14 0 14 7 0 6 4 9 9 5 5 -3 12 -1 16 4 3 6 12 8
20 4 8 -3 15 0 15 6 0 7 6 11 13 10 6 -1 19 0 27 3 8 4 24 9 35 14 11 4 27 8
35 9 8 1 23 5 32 9 9 4 25 9 35 11 10 2 19 4 21 5 1 2 7 4 12 5 6 1 13 4 18 5
4 1 10 2 15 1 4 0 7 3 7 9 0 5 7 7 15 4 8 -4 15 -1 15 6 0 7 6 10 14 7 8 -3
17 -3 20 1 4 3 12 7 19 8 7 2 36 12 65 22 28 11 52 18 52 14 0 -3 5 -1 11 5 6
6 18 9 25 6 8 -3 14 0 14 6 0 6 3 10 8 10 4 -1 9 -1 12 1 3 1 16 3 29 6 14 2
30 9 38 15 7 6 13 9 13 5 0 -5 17 0 95 30 11 4 26 6 33 5 6 -1 12 3 12 9 0 6
4 9 9 5 5 -3 12 -1 16 4 3 6 12 8 20 4 8 -3 15 0 15 6 0 6 3 10 8 10 4 -1 9 0
12 1 9 3 44 10 63 12 9 1 17 6 17 11 0 5 7 7 15 3 8 -3 15 -1 15 5 0 6 5 7 10
4 6 -4 17 -1 25 5 8 7 15 9 15 5 0 -4 6 -2 13 4 8 6 17 8 20 4 4 -3 7 -1 7 6
0 8 7 11 15 7 8 -3 15 -1 15 4 0 5 7 7 15 4 8 -4 15 -2 15 3 0 5 7 10 15 11 8
1 22 3 30 4 8 1 15 4 15 8 0 4 6 7 13 8 12 1 47 9 57 12 3 1 8 2 13 1 4 0 7 4
7 10 0 5 5 7 10 4 6 -3 16 -3 23 2 6 4 18 8 25 9 8 2 21 6 30 10 9 4 26 9 37
11 11 2 24 8 29 13 4 4 15 6 22 3 8 -3 14 0 14 6 0 6 3 10 8 10 4 -1 9 -1 12
1 3 1 16 4 30 6 13 3 29 9 34 14 4 4 15 6 22 3 8 -3 14 0 14 6 0 6 3 10 8 10
4 -1 9 0 12 1 3 1 13 3 23 5 10 2 26 7 35 11 20 8 28 11 62 17 14 3 26 6 28 8
1 1 7 3 12 4 6 1 13 4 18 5 4 1 10 2 15 1 4 0 7 3 7 7 0 5 6 9 13 10 26 1 61
12 70 21 5 5 16 7 23 4 8 -3 14 -1 14 4 0 5 7 10 15 11 8 1 22 3 30 4 8 1 15
6 15 11 0 6 3 8 6 5 3 -4 21 0 40 8 19 8 34 12 34 9 0 -4 6 -3 13 2 12 8 32
13 55 15 6 1 12 5 12 10 0 5 4 7 8 4 4 -2 14 -1 22 4 11 7 20 0 35 -23 11 -18
23 -33 27 -35z m-2786 -970 c-3 -5 4 -14 14 -22 10 -8 17 -17 14 -22 -3 -4 0
-8 5 -8 6 0 11 -4 11 -10 0 -5 8 -19 18 -29 29 -33 42 -50 42 -56 0 -4 6 -12
13 -19 6 -8 19 -24 27 -36 8 -12 20 -28 26 -34 5 -6 19 -26 29 -43 11 -18 23
-33 27 -33 4 0 8 -7 8 -15 0 -8 3 -15 8 -15 4 0 20 -20 35 -45 16 -25 34 -45
40 -45 5 0 7 -3 4 -6 -4 -4 3 -15 15 -25 11 -11 18 -19 14 -19 -7 0 4 -14 37
-51 9 -10 17 -23 17 -28 0 -5 4 -11 8 -13 4 -1 18 -20 31 -40 12 -21 27 -38
32 -38 6 0 8 -4 5 -8 -3 -5 3 -16 12 -25 27 -25 42 -45 42 -57 0 -6 7 -13 15
-16 8 -4 12 -10 9 -15 -3 -5 -1 -9 5 -9 6 0 17 -12 25 -27 8 -16 24 -38 36
-50 11 -13 18 -23 14 -23 -4 0 1 -9 12 -20 31 -32 44 -49 44 -60 0 -5 5 -10
10 -10 6 0 10 -5 10 -10 0 -6 5 -16 10 -23 37 -44 50 -61 50 -66 0 -3 16 -24
35 -46 19 -22 35 -43 35 -46 0 -5 13 -23 50 -66 6 -7 7 -13 3 -13 -4 0 -3 -4
2 -8 16 -11 75 -90 75 -99 0 -5 8 -16 18 -25 27 -26 42 -46 42 -57 0 -6 8 -15
18 -20 9 -6 13 -11 8 -11 -5 0 1 -9 14 -20 13 -11 19 -20 14 -20 -5 -1 1 -9
13 -19 12 -10 19 -21 16 -25 -3 -3 2 -8 11 -12 9 -3 16 -13 16 -20 0 -8 7 -17
15 -20 8 -4 15 -13 15 -20 0 -8 7 -17 15 -20 8 -4 15 -11 15 -18 0 -10 25 -45
63 -88 9 -9 13 -19 10 -22 -4 -3 -1 -6 5 -6 7 0 12 -6 12 -14 0 -8 10 -22 22
-30 12 -9 19 -16 14 -16 -5 0 1 -8 12 -19 12 -10 22 -23 22 -30 0 -6 5 -11 11
-11 5 0 8 -4 4 -9 -3 -6 4 -15 16 -21 11 -7 18 -14 15 -17 -5 -5 15 -32 67
-94 26 -30 27 -48 5 -69 -12 -11 -18 -20 -14 -20 4 0 -4 -12 -18 -27 -14 -15
-23 -30 -20 -35 3 -4 0 -8 -5 -8 -6 0 -11 -7 -11 -15 0 -8 -4 -15 -9 -15 -5 0
-12 -10 -16 -22 -4 -13 -8 -26 -10 -30 -7 -20 -7 -24 -6 -32 1 -5 -3 -12 -8
-16 -6 -3 -13 -17 -15 -30 -2 -14 -5 -26 -5 -27 -1 -2 -1 -6 0 -10 0 -4 -6
-10 -15 -13 -12 -4 -2649 -6 -2694 -1 -7 0 -11 5 -7 10 3 5 1 12 -5 16 -6 4
-8 11 -5 16 4 5 2 9 -4 9 -6 0 -8 7 -5 15 4 8 1 15 -6 15 -7 0 -10 7 -6 15 3
8 1 15 -4 15 -5 0 -7 7 -4 15 4 8 1 15 -6 15 -6 0 -9 4 -6 9 4 5 3 11 -1 13
-5 1 -17 21 -28 42 -11 22 -27 46 -35 55 -8 8 -15 17 -15 21 0 4 -8 14 -17 24
-20 19 -23 36 -8 36 6 0 10 7 10 15 0 9 7 18 15 21 8 4 15 12 15 18 0 7 11 23
25 36 14 13 23 25 21 28 -3 2 6 16 20 30 13 15 24 30 24 34 0 5 8 17 18 27 31
35 47 55 47 61 -1 3 11 18 25 34 14 16 24 32 23 37 -2 5 6 13 17 19 11 6 18
15 15 19 -3 5 2 12 11 15 8 3 13 10 10 14 -3 5 4 15 15 22 10 8 19 20 19 27 0
6 8 17 18 22 9 6 14 11 9 11 -4 0 5 13 19 29 14 16 25 32 24 36 -1 4 9 15 21
26 12 10 19 19 15 19 -7 0 4 14 37 51 9 10 14 19 10 19 -3 0 4 8 15 19 12 10
22 22 22 27 0 5 11 22 25 37 14 15 23 27 20 27 -4 0 0 6 7 14 28 29 48 56 41
56 -3 0 4 9 17 20 13 11 20 20 17 20 -4 0 0 8 8 18 24 29 69 88 85 112 8 12
21 28 28 36 6 7 12 17 12 23 0 5 8 15 18 20 9 6 13 11 9 11 -4 0 -3 6 3 13 5
6 24 28 40 47 16 19 32 43 36 53 3 9 10 17 15 17 6 0 8 4 5 8 -3 5 4 15 15 22
10 8 19 20 19 28 0 7 7 15 15 18 8 4 15 12 15 20 0 8 5 14 11 14 5 0 8 4 4 9
-3 6 0 13 8 18 12 8 37 38 67 83 8 12 21 28 28 36 6 7 12 15 12 19 0 6 11 20
38 50 7 8 10 15 6 15 -4 0 3 8 14 19 12 10 19 21 15 25 -3 3 -1 6 5 6 5 0 20
16 32 35 12 20 29 42 37 50 8 8 12 15 9 15 -3 0 2 9 12 19 32 36 47 55 44 58
-1 2 10 17 25 34 16 17 27 35 26 40 -2 5 2 9 7 9 6 0 10 6 10 14 0 8 7 16 15
20 8 3 15 12 15 20 0 7 7 16 15 20 8 3 15 12 15 20 0 7 7 17 16 20 8 3 13 10
10 14 -3 5 4 14 14 22 10 8 17 17 14 22 -3 4 4 8 16 8 12 0 19 -4 16 -8z
m-2056 -2172 c3 -1 9 -2 14 -1 4 1 14 -4 22 -10 8 -6 14 -8 14 -4 0 4 6 2 13
-4 8 -6 17 -8 20 -4 4 3 7 1 7 -6 0 -7 5 -9 10 -6 6 3 10 1 10 -6 0 -7 3 -10
6 -6 6 5 15 0 49 -30 7 -7 17 -13 21 -13 15 0 90 -90 100 -122 4 -10 11 -18
16 -18 5 0 6 -4 3 -10 -3 -5 -1 -10 5 -10 7 0 10 -6 7 -14 -3 -7 -1 -18 3 -22
23 -23 29 -234 8 -234 -4 0 -5 -7 -2 -15 4 -8 1 -15 -6 -15 -6 0 -8 -4 -5 -10
3 -5 1 -10 -5 -10 -7 0 -10 -5 -8 -12 3 -7 -3 -20 -11 -30 -9 -10 -15 -21 -13
-24 1 -2 -9 -15 -23 -28 -13 -13 -22 -25 -20 -28 3 -3 -7 -13 -22 -23 -15 -10
-36 -27 -45 -38 -10 -11 -18 -16 -18 -12 0 4 -9 0 -20 -10 -11 -10 -20 -14
-20 -9 0 5 -6 2 -13 -6 -7 -8 -23 -17 -37 -18 -14 -2 -29 -7 -34 -12 -5 -5
-15 -6 -22 -3 -8 3 -14 1 -14 -4 0 -13 -121 -9 -147 5 -12 7 -29 9 -37 6 -9
-3 -16 -1 -16 6 0 6 -4 9 -9 5 -5 -3 -12 -1 -16 5 -4 6 -10 8 -15 5 -4 -3 -10
2 -14 10 -3 8 -12 15 -21 15 -8 0 -23 7 -32 15 -53 46 -83 75 -77 75 4 0 -5
11 -20 25 -14 13 -27 28 -27 32 -1 5 -10 25 -20 45 -11 21 -19 41 -18 45 1 5
0 11 -1 16 -1 4 -4 12 -5 17 -1 6 -4 11 -5 13 -6 7 -5 139 1 143 4 2 6 13 4
24 -2 11 0 22 6 25 5 4 9 13 9 22 0 8 9 27 20 43 11 15 17 30 13 34 -3 3 -1 6
5 6 7 0 12 5 12 11 0 7 11 22 24 34 14 13 22 26 19 29 -4 3 -1 6 6 6 12 0 28
12 61 44 11 11 20 16 20 11 0 -4 8 -1 18 8 10 10 21 15 24 12 3 -3 11 1 17 9
7 8 19 12 27 9 8 -3 14 0 14 7 0 6 4 9 8 6 4 -2 13 -1 20 3 11 6 148 7 162 1z
m4235 -2 c4 -4 13 -4 21 -1 8 3 14 0 14 -7 0 -7 6 -10 14 -7 8 3 20 -1 26 -8
7 -8 16 -12 21 -9 5 3 9 0 9 -6 0 -6 5 -8 10 -5 6 3 10 1 10 -6 0 -7 3 -10 6
-6 7 6 12 2 81 -63 27 -24 47 -48 45 -53 -1 -4 5 -10 13 -13 8 -3 13 -9 10
-14 -2 -4 3 -16 13 -26 16 -19 19 -26 27 -64 2 -8 4 -16 4 -17 1 -2 0 -5 -1
-6 -2 -2 2 -10 8 -18 12 -16 8 -156 -5 -196 -1 -2 -1 -5 -1 -8 0 -3 -7 -20
-17 -38 -9 -17 -16 -35 -15 -39 1 -5 -3 -8 -10 -8 -6 0 -9 -3 -5 -6 3 -3 -4
-17 -16 -29 -12 -13 -33 -37 -47 -53 -14 -17 -28 -28 -32 -26 -4 2 -13 -5 -21
-16 -7 -11 -17 -17 -20 -13 -4 3 -7 1 -7 -6 0 -7 -5 -9 -10 -6 -6 3 -13 -1
-16 -9 -3 -9 -10 -14 -14 -11 -5 3 -11 1 -15 -5 -4 -6 -11 -8 -16 -5 -5 4 -9
1 -9 -5 0 -7 -8 -9 -19 -5 -11 3 -22 1 -26 -5 -3 -6 -11 -8 -16 -5 -5 4 -9 2
-9 -3 0 -11 -133 -8 -151 4 -8 5 -22 10 -31 11 -36 6 -43 8 -62 25 -10 10 -22
15 -26 13 -4 -2 -20 8 -37 23 -17 15 -40 33 -51 41 -12 8 -19 18 -16 22 2 5
-4 13 -15 18 -11 6 -23 20 -26 32 -4 12 -14 29 -23 40 -9 10 -17 28 -19 40 -2
12 -7 27 -12 33 -4 6 -7 23 -6 39 1 15 -1 27 -4 27 -9 0 -7 92 2 107 4 6 4 18
1 27 -4 10 -1 16 7 16 7 0 9 3 6 7 -4 3 -2 12 4 20 6 7 8 13 5 13 -4 0 5 23
20 50 15 28 31 50 36 50 4 0 8 5 8 10 0 14 55 70 69 70 6 0 11 4 11 9 0 4 21
19 48 32 26 13 49 26 52 29 7 7 31 13 53 14 9 0 17 3 17 6 0 8 147 6 155 -2z"/>
</g>
</svg>
