<?xml version="1.0" standalone="no"?>
<!DOCTYPE svg PUBLIC "-//W3C//DTD SVG 20010904//EN"
 "http://www.w3.org/TR/2001/REC-SVG-20010904/DTD/svg10.dtd">
<svg version="1.0" xmlns="http://www.w3.org/2000/svg"
 width="512.000000pt" height="512.000000pt" viewBox="0 0 512.000000 512.000000"
 preserveAspectRatio="xMidYMid meet">
<metadata>
Created by potrace 1.14, written by Peter Selinger 2001-2017
</metadata>
<g transform="translate(0.000000,512.000000) scale(0.100000,-0.100000)"
fill="#000000" stroke="none">
<path d="M677 4596 c-55 -20 -103 -61 -134 -114 l-28 -47 0 -1875 0 -1875 28
-47 c15 -26 42 -59 60 -72 78 -60 -48 -56 1961 -56 1512 1 1848 3 1879 14 55
20 103 61 134 114 l28 47 0 1875 0 1875 -25 45 c-29 52 -95 105 -148 120 -25
7 -639 10 -1877 10 -1511 -1 -1847 -3 -1878 -14z m3683 -86 c3 -1 12 -3 20 -5
39 -8 46 -11 57 -25 7 -8 13 -11 13 -7 0 4 6 2 14 -5 8 -7 12 -16 9 -21 -2 -4
3 -10 11 -13 9 -3 13 -10 10 -15 -3 -5 -1 -9 4 -9 5 0 8 -10 8 -22 -1 -13 0
-27 3 -33 9 -17 8 -3589 -1 -3601 -5 -7 -8 -16 -6 -20 4 -15 -13 -54 -23 -54
-6 0 -8 -3 -6 -7 3 -5 -1 -14 -9 -21 -8 -7 -14 -9 -14 -5 0 4 -7 -1 -15 -11
-8 -11 -15 -16 -15 -12 0 4 -6 4 -12 -1 -7 -4 -20 -8 -28 -8 -8 0 -19 -3 -25
-6 -15 -8 -3586 -2 -3615 6 -14 4 -31 7 -37 7 -7 1 -13 4 -13 8 0 4 -12 12
-26 18 -14 7 -23 16 -19 21 3 6 -1 14 -10 18 -8 5 -17 26 -21 48 -8 52 -11
3616 -3 3621 4 2 5 15 4 29 -2 14 1 25 6 25 5 0 9 5 9 11 0 13 40 65 40 53 0
-5 7 0 15 10 8 11 15 16 15 12 0 -5 6 -4 13 1 6 6 20 9 29 8 10 -2 20 0 22 3
3 6 3582 8 3596 2z"/>
<path d="M2542 3985 c-7 -8 -9 -15 -5 -15 4 0 0 -5 -9 -11 -10 -5 -18 -15 -18
-20 0 -6 -6 -16 -12 -24 -25 -25 -48 -55 -48 -61 0 -4 -22 -35 -50 -70 -27
-35 -50 -66 -50 -69 0 -3 -10 -16 -22 -31 -13 -14 -23 -29 -23 -33 0 -3 -12
-20 -27 -36 -16 -16 -28 -33 -28 -36 0 -5 -13 -23 -50 -66 -6 -7 -7 -13 -3
-13 4 0 1 -4 -7 -10 -8 -5 -11 -12 -7 -16 3 -4 13 -2 20 4 8 7 17 9 20 5 4 -3
7 -1 7 6 0 7 4 10 9 6 5 -3 12 -1 16 4 3 6 12 8 19 5 8 -3 17 -1 20 5 4 6 13
8 20 5 8 -3 17 -1 20 5 4 6 13 8 21 4 8 -3 15 -1 15 4 0 5 15 8 33 7 23 -2 34
2 35 12 1 7 3 20 4 27 2 14 50 61 67 65 6 1 17 3 24 5 6 1 15 7 20 12 5 7 10
7 15 0 4 -5 13 -11 20 -12 6 -2 17 -4 23 -5 13 -3 66 -50 67 -58 0 -3 1 -8 2
-12 1 -5 3 -14 4 -20 1 -8 14 -12 34 -11 17 1 32 -2 32 -6 0 -8 9 -10 55 -13
14 -1 25 -6 25 -11 0 -5 7 -7 15 -3 8 3 15 1 15 -4 0 -5 7 -7 15 -4 8 4 15 1
15 -7 0 -7 3 -9 7 -6 3 4 12 2 20 -4 7 -6 13 -8 13 -4 0 4 6 4 13 -1 7 -5 5
-2 -5 7 -9 9 -15 19 -12 22 3 3 -3 12 -15 19 -12 7 -21 18 -21 24 0 5 -10 21
-22 34 -13 14 -23 27 -23 30 0 4 -8 14 -18 24 -9 10 -24 31 -32 47 -9 16 -20
29 -26 29 -6 0 -8 4 -4 9 3 6 -2 14 -11 19 -9 5 -16 13 -17 18 -1 9 -11 23
-39 54 -9 10 -14 21 -10 24 3 3 0 6 -6 6 -7 0 -12 4 -12 10 0 10 -20 37 -52
72 -10 10 -15 18 -10 18 4 0 -2 7 -12 15 -11 8 -16 15 -12 15 4 0 1 7 -8 15
-18 18 -18 18 -34 0z"/>
<path d="M2513 3572 c-22 -21 -24 -83 -3 -103 18 -17 68 -18 95 -2 24 14 28
80 6 103 -20 21 -76 22 -98 2z"/>
<path d="M2427 3484 c-4 -4 -21 -9 -39 -11 -51 -6 -56 -7 -115 -30 -10 -3 -27
-8 -37 -10 -11 -2 -25 -8 -33 -14 -7 -6 -13 -8 -13 -4 0 5 -9 0 -20 -10 -11
-10 -20 -14 -20 -10 0 4 -8 1 -18 -8 -10 -10 -22 -14 -25 -10 -4 3 -7 1 -7 -6
0 -7 -4 -9 -10 -6 -5 3 -10 2 -10 -4 0 -5 -10 -13 -22 -17 -13 -4 -30 -15 -39
-25 -9 -11 -20 -19 -25 -19 -5 0 -17 -8 -26 -17 -9 -10 -24 -24 -33 -32 -10
-8 -14 -20 -10 -30 11 -27 15 -111 4 -111 -5 0 -9 -7 -9 -15 0 -9 -7 -18 -15
-21 -8 -4 -15 -11 -15 -17 0 -5 8 -3 18 5 15 14 20 11 55 -24 20 -21 34 -38
31 -38 -4 0 20 -27 52 -59 33 -33 74 -75 93 -95 19 -20 38 -36 43 -36 5 0 29
-14 54 -30 24 -17 44 -27 44 -23 0 4 4 3 8 -3 9 -13 82 -57 82 -49 0 3 10 -3
22 -14 11 -11 25 -18 30 -15 4 3 8 1 8 -4 0 -5 18 -17 40 -28 22 -10 40 -22
40 -26 0 -5 3 -8 8 -8 4 0 8 178 8 395 0 217 -4 395 -8 395 -16 0 -23 5 -49
30 -14 14 -24 28 -22 33 2 4 -1 7 -7 7 -6 0 -8 5 -5 10 7 11 2 13 -8 4z"/>
<path d="M2684 3482 c4 -7 2 -12 -3 -12 -6 0 -11 -5 -11 -11 0 -15 -47 -59
-54 -51 -3 3 -6 0 -6 -7 0 -7 -4 -10 -8 -7 -4 2 -8 -172 -8 -388 1 -314 3
-393 13 -389 7 3 13 9 13 15 0 5 5 6 10 3 6 -3 10 -1 10 5 0 6 5 8 10 5 6 -3
13 1 16 9 3 9 14 16 24 16 10 0 25 6 32 13 18 18 61 42 71 39 4 -1 10 5 13 13
3 8 10 12 15 9 5 -3 9 0 9 5 0 6 3 10 8 9 7 -3 82 40 92 52 7 9 43 24 53 21 5
-1 6 3 3 8 -4 5 28 43 69 84 41 41 75 78 75 82 0 4 16 23 36 42 34 32 37 33
51 16 8 -10 11 -12 7 -3 -4 8 -13 22 -21 31 -8 9 -15 26 -16 38 -1 11 -6 21
-12 21 -5 0 -3 4 5 10 8 5 11 12 8 15 -4 4 -2 18 3 32 6 16 6 31 -1 41 -5 9
-10 14 -10 10 0 -4 -13 6 -30 24 -16 17 -30 28 -30 24 0 -4 -12 5 -26 19 -14
14 -29 23 -34 20 -4 -3 -11 2 -14 11 -4 9 -9 14 -13 10 -3 -3 -15 2 -26 11
-10 10 -21 17 -23 16 -2 -2 -23 6 -46 16 -40 18 -73 31 -90 36 -5 2 -9 3 -10
5 -2 1 -10 3 -18 5 -39 8 -86 18 -100 19 -9 1 -22 6 -29 11 -10 5 -12 4 -7 -3z"/>
<path d="M1435 3441 c2 -9 4 -18 5 -21 1 -3 2 -8 1 -12 0 -5 3 -8 7 -8 4 0 8
-8 9 -17 1 -19 10 -58 13 -58 2 0 10 -36 12 -57 1 -10 6 -18 11 -18 5 0 7 -7
3 -15 -3 -8 -2 -15 2 -15 4 0 8 -8 9 -17 1 -19 10 -58 13 -58 1 0 3 -7 5 -15
2 -8 6 -25 9 -37 3 -13 9 -33 12 -45 3 -13 6 -27 7 -33 2 -5 6 -15 10 -21 4
-7 9 -29 13 -50 3 -22 10 -47 15 -56 5 -10 6 -18 2 -18 -4 0 -2 -5 4 -11 6 -6
9 -19 6 -28 -4 -9 -3 -13 1 -10 4 4 9 19 12 35 3 16 10 32 17 36 6 4 8 10 4
14 -4 4 -2 13 4 21 6 7 8 13 3 13 -5 0 -4 4 3 8 6 4 13 14 15 22 2 8 9 21 16
28 7 8 10 18 7 23 -4 5 -2 9 4 9 5 0 13 10 16 21 6 17 9 19 16 8 5 -8 9 -9 9
-4 0 6 -11 23 -26 38 -14 15 -22 31 -19 36 3 5 1 13 -5 16 -8 5 -8 11 0 20 6
7 10 17 9 21 -4 22 3 36 32 64 18 16 35 30 38 31 49 8 94 4 106 -8 13 -13 15
-12 15 3 0 10 3 15 6 11 4 -3 21 7 38 24 17 16 38 36 47 44 9 8 21 15 28 15 6
0 14 7 17 15 4 8 10 12 15 9 5 -3 9 0 9 5 0 6 5 10 11 9 6 -2 13 2 16 9 2 6
-4 12 -14 12 -140 5 -238 9 -238 11 0 1 -49 4 -110 6 -60 2 -147 5 -191 7 -70
3 -81 1 -79 -12z"/>
<path d="M3530 3450 c-14 -3 -71 -5 -127 -5 -57 1 -103 -2 -103 -5 0 -3 -46
-6 -102 -7 -57 -1 -114 -2 -128 -4 -14 -1 -34 1 -45 5 -11 4 -2 -3 20 -15 22
-13 44 -22 48 -21 4 1 10 -5 13 -13 4 -8 13 -15 20 -15 8 0 17 -7 20 -15 4 -8
11 -15 16 -15 12 0 73 -62 70 -72 -1 -4 5 -5 13 -2 8 4 15 9 15 13 0 6 74 7
101 2 17 -3 69 -63 71 -83 2 -13 7 -28 11 -35 4 -6 3 -14 -2 -18 -6 -3 -8 -12
-4 -20 3 -8 0 -15 -6 -15 -6 0 -11 -6 -11 -14 0 -8 -5 -16 -11 -18 -8 -3 -6
-9 4 -20 9 -8 13 -18 10 -22 -4 -3 -1 -6 5 -6 7 0 11 -3 10 -7 -2 -11 25 -67
36 -74 5 -4 6 -11 2 -17 -3 -6 -2 -13 4 -17 6 -4 8 -11 5 -16 -4 -5 -2 -9 3
-9 5 0 9 -6 10 -12 2 -25 8 -48 15 -54 3 -4 5 3 2 14 -2 12 1 24 6 27 5 4 7
11 4 16 -4 5 -1 9 5 9 7 0 10 6 7 14 -3 8 -3 17 1 20 3 4 8 17 10 29 5 29 10
51 12 55 2 1 4 7 5 12 1 6 3 11 5 13 1 1 3 10 6 20 2 9 6 25 8 35 3 9 5 19 7
22 1 3 3 10 4 15 2 6 4 13 5 18 1 4 3 10 4 15 2 4 8 27 15 52 7 25 15 54 18
65 8 38 11 50 13 50 1 0 3 8 6 18 2 9 6 25 8 35 3 9 5 17 6 17 1 0 3 7 5 15 2
8 6 22 9 30 5 13 -5 16 -61 16 -38 0 -79 -2 -93 -6z"/>
<path d="M2090 3440 c-9 -6 -10 -10 -3 -10 6 0 15 5 18 10 8 12 4 12 -15 0z"/>
<path d="M1770 3215 c-18 -9 -25 -22 -26 -47 -1 -33 22 -85 33 -74 4 3 12 1
20 -5 10 -9 13 -8 13 1 0 7 7 10 17 6 21 -8 49 22 47 52 -1 12 -2 31 -3 41 -2
32 -61 47 -101 26z"/>
<path d="M3284 3219 c-3 -5 -9 -7 -14 -4 -12 8 -20 -9 -24 -50 -4 -41 22 -79
48 -69 9 4 16 1 16 -6 0 -10 3 -10 15 0 8 7 15 9 15 5 0 -5 9 2 19 14 27 31
18 123 -10 106 -5 -4 -9 -3 -9 2 0 11 -49 13 -56 2z"/>
<path d="M1855 3040 c-3 -6 -11 -8 -16 -5 -5 4 -9 2 -9 -3 0 -12 -33 -10 -41
2 -9 11 -51 -12 -44 -25 4 -5 1 -9 -5 -9 -6 0 -8 -4 -5 -10 3 -5 1 -10 -4 -10
-6 0 -10 -3 -9 -7 0 -5 -9 -30 -21 -56 -12 -26 -23 -57 -24 -67 -1 -11 -5 -20
-9 -20 -3 0 -7 -9 -7 -20 -1 -11 -1 -29 -2 -40 0 -11 -4 -20 -9 -20 -4 0 -7
-11 -5 -25 1 -14 -1 -27 -5 -30 -4 -2 -6 -51 -5 -107 3 -121 3 -123 12 -115 3
4 12 2 20 -4 7 -6 13 -8 13 -3 0 5 5 2 10 -6 10 -16 10 -16 84 58 19 17 37 32
41 32 7 0 44 33 116 103 21 21 39 35 39 32 0 -5 52 40 112 98 10 10 24 15 31
11 7 -4 -16 21 -50 57 -35 35 -87 89 -115 119 -69 72 -85 84 -93 70z"/>
<path d="M3183 2981 c-37 -38 -91 -94 -119 -123 l-52 -54 29 -27 c16 -15 29
-24 29 -21 0 4 18 -13 40 -37 22 -24 40 -40 40 -36 0 4 18 -9 39 -30 65 -63
100 -94 108 -96 4 -1 27 -21 51 -44 52 -51 78 -67 87 -53 4 6 11 8 16 5 5 -4
9 -2 9 4 0 6 6 8 14 5 11 -4 13 15 13 105 -1 61 -4 111 -8 111 -4 0 -5 14 -4
30 1 17 0 30 -4 30 -4 0 -8 11 -9 25 -3 47 -5 55 -14 55 -5 0 -7 4 -3 9 3 5 1
12 -5 16 -6 4 -8 11 -4 16 3 5 0 16 -6 24 -7 8 -9 15 -5 15 5 0 1 8 -8 18 -10
10 -14 22 -10 25 3 4 1 7 -6 7 -7 0 -9 5 -6 10 3 6 1 10 -5 10 -6 0 -8 5 -5
10 3 6 1 10 -5 10 -6 0 -8 5 -5 10 3 6 2 10 -4 10 -6 0 -8 7 -5 15 5 13 1 13
-31 -1 -31 -13 -39 -13 -46 -2 -5 7 -9 9 -9 4 0 -5 -6 -3 -14 3 -12 10 -27 -1
-83 -58z"/>
<path d="M2940 2801 c0 -6 4 -13 10 -16 6 -3 7 1 4 9 -7 18 -14 21 -14 7z"/>
<path d="M2129 2748 c-19 -18 -36 -33 -39 -32 -5 1 -31 -22 -105 -92 -24 -23
-46 -40 -48 -38 -2 3 -19 -13 -37 -35 -19 -22 -37 -38 -40 -36 -4 2 -20 -11
-36 -30 -16 -19 -35 -35 -42 -35 -7 0 -15 -7 -18 -15 -4 -8 -13 -15 -20 -15
-12 0 -13 -4 -1 -27 15 -31 15 -55 3 -92 -8 -24 -50 -72 -62 -70 -3 0 -9 -2
-12 -6 -4 -4 0 -5 8 -3 8 2 14 -3 12 -9 -1 -7 3 -13 9 -13 5 0 7 -4 4 -10 -3
-5 -1 -10 4 -10 6 0 10 -3 10 -7 -3 -14 25 -73 34 -73 4 0 5 -5 2 -10 -3 -6 1
-13 9 -16 9 -3 13 -10 11 -15 -3 -5 3 -16 15 -26 11 -10 20 -22 20 -27 0 -5
14 -22 30 -38 17 -15 30 -31 30 -35 0 -7 63 -68 71 -68 3 0 17 -12 31 -27 14
-16 30 -28 37 -28 6 0 11 -5 11 -11 0 -5 5 -7 12 -3 8 5 9 2 5 -9 -9 -23 0
-21 26 6 12 12 29 24 37 26 34 8 80 7 80 -1 0 -5 5 -6 10 -3 6 3 10 2 10 -4 0
-21 30 -3 78 47 28 29 54 52 58 52 4 0 35 28 70 63 34 34 76 72 91 84 l29 22
-1 226 c0 124 3 225 7 225 5 0 8 8 8 18 0 14 -2 15 -10 2 -6 -10 -10 -11 -10
-3 0 7 -3 12 -7 11 -5 -1 -25 8 -45 21 -20 12 -40 22 -44 21 -4 -1 -10 2 -13
7 -8 12 -111 74 -111 68 0 -3 -10 3 -22 14 -11 11 -24 18 -28 16 -4 -3 -13 2
-20 10 -7 8 -19 15 -26 15 -8 0 -14 5 -14 11 0 5 -4 7 -10 4 -9 -6 -14 8 -11
28 2 12 -5 8 -40 -25z"/>
<path d="M2953 2755 c-13 -5 -23 -13 -23 -17 0 -5 -6 -8 -14 -8 -7 0 -19 -7
-26 -15 -7 -8 -16 -12 -21 -9 -5 3 -9 0 -9 -6 0 -6 -4 -9 -8 -6 -5 3 -18 -4
-30 -14 -12 -11 -28 -20 -36 -20 -7 0 -17 -7 -20 -16 -3 -8 -10 -13 -15 -10
-5 3 -14 -1 -21 -9 -7 -8 -16 -13 -20 -10 -4 2 -16 -4 -27 -15 -12 -10 -23
-16 -27 -13 -3 3 -8 -2 -12 -11 -3 -9 -10 -13 -15 -10 -5 3 -9 0 -9 -6 0 -6
-4 -9 -9 -6 -5 3 -14 -1 -21 -9 -7 -8 -9 -15 -4 -15 5 0 9 -101 9 -223 l-1
-224 28 -24 c16 -13 58 -52 93 -87 36 -35 65 -61 65 -58 0 4 27 -21 59 -54 61
-63 70 -67 88 -49 11 11 61 15 93 7 8 -1 24 -13 35 -25 11 -13 25 -23 30 -23
6 0 4 4 -3 8 -9 6 -5 12 15 23 16 7 41 25 57 39 45 40 106 100 101 100 -3 0 9
13 25 29 17 15 30 33 30 39 0 6 6 15 14 19 8 4 16 15 18 23 2 8 6 17 9 20 10
8 63 114 61 123 -1 4 2 7 6 7 16 0 10 40 -7 52 -34 25 -61 110 -39 124 5 3 6
10 3 15 -4 5 -1 9 6 9 12 0 3 9 -91 90 -28 25 -65 58 -81 73 -16 16 -29 26
-29 22 0 -4 -18 12 -40 35 -22 23 -40 39 -40 36 0 -3 -18 13 -40 36 -22 24
-40 39 -40 35 0 -4 -10 2 -22 15 -19 19 -27 22 -45 13z"/>
<path d="M1574 2728 c-4 -13 -25 -40 -47 -60 -22 -21 -37 -38 -34 -38 4 0 -13
-18 -35 -40 -23 -22 -39 -40 -34 -40 4 0 -11 -18 -34 -40 -23 -22 -39 -40 -37
-40 3 0 -11 -17 -31 -39 -36 -37 -110 -120 -152 -170 -22 -26 -26 -36 -11 -26
5 3 12 1 16 -5 4 -6 11 -8 16 -5 5 4 9 1 9 -4 0 -6 3 -10 8 -9 4 1 17 -3 30
-10 12 -7 22 -9 22 -5 0 4 4 2 8 -4 4 -7 17 -14 29 -16 12 -1 28 -9 36 -16 9
-6 25 -13 36 -14 12 -1 21 -5 21 -10 0 -4 5 -5 10 -2 6 3 10 1 10 -6 0 -7 3
-9 7 -6 3 4 12 2 20 -4 7 -6 13 -8 13 -4 0 5 9 0 20 -10 11 -10 20 -15 20 -11
0 4 10 1 23 -6 12 -7 25 -11 30 -10 4 1 7 -3 7 -9 0 -6 7 -9 15 -5 8 3 15 1
15 -5 0 -6 5 -7 10 -4 6 3 10 1 10 -5 0 -6 5 -8 10 -5 6 3 10 1 10 -5 0 -7 7
-10 15 -6 8 3 15 1 15 -5 0 -6 4 -8 9 -5 5 4 11 1 13 -4 2 -6 13 -12 26 -13
12 0 22 -5 22 -10 0 -4 4 -6 9 -3 5 4 11 0 14 -6 2 -7 7 -10 11 -7 3 3 -3 15
-14 27 -11 12 -20 23 -19 24 3 8 -26 58 -33 58 -5 0 -7 4 -3 9 3 5 -2 17 -11
25 -8 9 -13 16 -9 16 3 0 -2 11 -11 25 -9 14 -13 25 -9 25 4 0 2 7 -5 15 -7 9
-21 13 -31 10 -11 -4 -19 -2 -19 4 0 6 -6 11 -13 11 -16 0 -70 52 -75 73 -1 4
-2 8 -3 10 -6 17 -3 67 3 67 5 0 6 4 3 10 -3 5 11 26 32 45 l38 34 1 108 c2
59 5 123 8 141 6 37 1 42 -10 10z"/>
<path d="M3537 2720 c3 -19 5 -86 6 -147 1 -62 5 -113 8 -113 11 0 70 -58 68
-67 -1 -4 0 -10 1 -13 7 -18 7 -70 -1 -70 -5 0 -9 -6 -9 -13 0 -20 -51 -68
-80 -76 -22 -5 -32 -5 -60 3 l-25 7 24 -14 c15 -9 20 -17 12 -21 -6 -4 -11
-16 -11 -27 0 -10 -4 -19 -9 -19 -8 0 -24 -37 -22 -52 1 -5 -3 -8 -9 -8 -5 0
-10 -7 -10 -15 0 -8 -5 -15 -11 -15 -5 0 -7 -4 -4 -10 3 -5 1 -10 -6 -10 -7 0
-9 -3 -6 -7 4 -3 -2 -12 -13 -20 -30 -21 -24 -35 9 -19 16 9 31 12 35 9 3 -4
6 -1 6 6 0 7 4 10 9 6 5 -3 17 2 25 11 9 8 16 12 16 8 0 -3 6 -1 13 5 8 6 17
8 20 4 4 -3 7 -1 7 6 0 7 5 9 10 6 6 -3 10 -2 10 4 0 6 7 8 15 5 8 -4 15 -1
15 6 0 6 4 9 9 5 5 -3 16 2 25 11 9 8 20 12 26 9 5 -3 10 -1 10 5 0 6 5 8 10
5 6 -3 10 -1 10 5 0 6 4 9 9 5 5 -3 12 -1 16 5 4 6 11 8 16 5 5 -4 9 -1 9 6 0
7 3 10 6 6 4 -3 21 1 38 10 17 10 34 18 39 19 4 1 8 2 10 4 1 1 11 3 21 5 10
2 23 10 27 17 5 7 9 9 9 4 0 -5 6 -3 13 3 8 6 17 8 20 4 4 -3 7 -1 7 6 0 7 5
9 10 6 6 -3 10 -1 10 5 0 6 4 9 9 5 5 -3 12 -1 16 5 4 6 11 8 16 5 15 -10 10
4 -8 24 -10 10 -40 44 -68 76 -27 31 -68 75 -90 98 -21 23 -38 43 -37 45 1 1
-11 17 -28 35 -16 17 -48 51 -70 75 -21 23 -37 42 -33 42 3 0 -12 16 -33 37
-21 20 -44 48 -51 62 -11 25 -11 24 -6 -9z"/>
<path d="M3396 2433 c-6 -14 -5 -15 5 -6 7 7 10 15 7 18 -3 3 -9 -2 -12 -12z"/>
<path d="M1574 2393 c-32 -34 -21 -96 19 -110 35 -11 47 -12 47 -2 0 6 5 7 10
4 13 -8 43 22 35 35 -3 5 -1 10 5 10 8 0 9 7 5 18 -4 9 -8 22 -9 27 -3 20 -18
35 -27 30 -5 -4 -9 -2 -9 2 0 19 -55 8 -76 -14z"/>
<path d="M3470 2410 c0 -6 -4 -9 -9 -6 -9 6 -28 -12 -30 -26 -1 -5 -2 -11 -2
-15 -5 -29 22 -93 36 -85 3 1 6 2 8 1 20 -6 38 -5 43 2 3 5 9 7 14 4 11 -7 40
46 36 67 -4 30 -32 58 -63 63 -20 3 -33 1 -33 -5z"/>
<path d="M2547 2025 c-9 -8 -19 -15 -22 -15 -4 0 -37 -29 -73 -65 -37 -35 -98
-93 -135 -128 -57 -54 -66 -67 -55 -78 7 -8 13 -24 12 -36 -1 -25 20 -48 35
-39 5 4 13 1 16 -5 4 -5 13 -8 20 -5 7 2 16 2 20 -2 4 -4 19 -8 33 -8 15 -1
27 -3 27 -4 0 -6 257 -5 261 1 2 4 18 6 34 4 17 -2 30 0 30 5 0 4 8 7 18 5 9
-1 22 0 27 4 6 3 19 6 30 6 16 0 20 6 19 33 0 17 3 32 8 32 25 0 -1 41 -64
101 -40 38 -99 94 -130 125 -32 31 -58 53 -58 48 0 -4 -9 3 -19 15 -17 19 -20
20 -34 6z"/>
<path d="M3288 1899 c-10 -10 -18 -22 -18 -25 0 -3 -7 -12 -15 -20 -8 -9 -15
-12 -15 -8 0 4 -10 -4 -22 -17 -13 -14 -41 -38 -63 -54 -52 -39 -54 -41 -51
-87 2 -21 -2 -38 -7 -38 -6 0 -8 -3 -4 -6 7 -7 -38 -54 -53 -54 -5 0 -10 -5
-10 -11 0 -5 -4 -7 -10 -4 -5 3 -10 2 -10 -3 0 -20 -73 -5 -105 21 -32 25 -49
29 -72 14 -7 -5 -13 -5 -13 -1 0 3 -6 2 -12 -3 -7 -6 -21 -9 -30 -8 -10 2 -18
0 -18 -4 0 -4 -16 -7 -35 -6 -20 1 -38 -1 -40 -5 -3 -4 -21 -6 -40 -4 -21 2
-35 -1 -35 -8 0 -6 3 -9 6 -5 4 3 13 -1 21 -9 8 -8 19 -12 24 -9 5 4 9 1 9 -5
0 -6 4 -9 9 -6 5 3 12 -1 15 -10 4 -9 9 -14 13 -11 3 4 19 -3 34 -14 16 -11
29 -17 29 -13 0 4 9 -1 20 -11 11 -10 20 -15 20 -12 0 4 9 -1 20 -11 12 -9 23
-15 27 -14 3 2 9 -1 12 -6 3 -6 13 -12 21 -14 8 -2 23 -11 34 -20 10 -10 23
-15 28 -12 4 3 8 0 8 -6 0 -6 4 -9 9 -6 5 3 14 -1 21 -9 7 -8 16 -12 21 -9 5
3 9 0 9 -6 0 -6 5 -8 10 -5 6 3 10 1 10 -5 0 -6 4 -9 9 -6 5 3 12 -1 15 -10 3
-8 10 -12 16 -9 5 3 10 1 10 -5 0 -6 5 -8 10 -5 6 3 10 2 10 -3 0 -8 28 -20
47 -20 3 0 9 -6 14 -13 6 -10 11 -6 18 14 6 15 10 31 10 35 -1 4 0 9 1 12 2 3
4 19 6 35 2 17 6 46 10 65 4 19 6 45 6 58 0 12 4 22 9 22 5 0 7 11 5 25 -3 13
0 27 5 31 6 3 8 13 5 21 -3 8 -3 20 1 26 4 7 8 24 9 40 1 15 2 28 4 30 3 4 10
40 14 72 3 17 5 31 6 33 2 1 4 11 5 22 1 11 4 21 5 23 1 1 3 13 5 27 1 14 6
33 10 43 9 21 5 21 -17 -4z"/>
<path d="M1815 1902 c6 -4 11 -18 12 -32 4 -49 9 -75 14 -85 3 -5 4 -20 3 -32
0 -13 3 -23 8 -23 6 0 7 -7 4 -16 -3 -9 -3 -21 1 -27 4 -7 8 -23 9 -37 1 -14
2 -25 4 -25 1 0 3 -11 4 -25 0 -14 4 -29 7 -35 3 -5 4 -20 3 -32 0 -13 2 -23
5 -23 4 0 8 -17 9 -37 1 -35 8 -74 12 -80 2 -2 3 -12 4 -22 0 -11 4 -22 8 -26
3 -4 4 -18 2 -31 -2 -13 0 -24 6 -24 6 0 9 -4 5 -9 -3 -5 -1 -12 5 -16 5 -3
10 -1 10 4 0 6 3 10 8 10 14 -3 72 23 72 33 0 5 4 7 9 4 4 -3 16 3 26 14 10
11 21 17 25 15 4 -3 13 2 20 10 7 8 16 12 21 9 5 -3 9 0 9 7 0 7 3 9 6 6 4 -4
19 2 34 13 16 11 33 20 39 20 6 0 11 5 11 11 0 5 5 7 10 4 6 -3 10 -1 10 5 0
6 4 9 8 6 5 -3 19 4 30 15 12 11 22 17 22 13 0 -4 9 1 20 11 11 10 20 15 20
12 0 -4 15 2 33 13 17 11 40 23 50 26 9 4 17 11 17 16 0 5 5 6 10 3 6 -3 10
-1 10 4 0 6 9 11 19 11 36 0 29 15 -7 17 -21 1 -55 5 -77 8 -22 3 -49 7 -60 8
-11 1 -26 6 -32 10 -7 5 -13 5 -13 1 0 -3 -11 1 -25 10 -14 9 -25 12 -25 7 0
-28 -122 -73 -136 -50 -3 5 -10 7 -15 4 -5 -4 -9 -1 -9 5 0 6 -3 9 -7 7 -10
-4 -57 44 -62 64 -2 7 -5 32 -6 53 -1 22 -7 42 -14 44 -7 2 -21 13 -32 25 -10
11 -19 17 -19 13 0 -4 -14 8 -32 28 -17 19 -34 34 -37 32 -3 -1 -14 5 -23 16
-10 10 -15 18 -12 18 4 0 1 7 -6 15 -7 8 -18 15 -24 15 -7 0 -7 -3 -1 -8z"/>
<path d="M2099 1749 c-34 -25 -34 -83 0 -106 30 -19 71 -26 71 -12 0 6 4 8 9
5 9 -6 28 12 30 27 1 4 1 8 2 10 6 21 5 37 -2 37 -6 0 -7 5 -4 10 7 12 -20 42
-29 33 -3 -4 -6 -2 -6 3 0 16 -47 11 -71 -7z"/>
<path d="M2934 1751 c-8 -9 -14 -20 -13 -25 0 -5 -5 -12 -12 -17 -10 -6 -10
-11 -1 -22 7 -7 9 -17 5 -20 -8 -9 17 -38 28 -31 5 3 9 1 9 -5 0 -14 44 -7 71
10 15 10 23 27 24 52 2 31 -2 41 -23 55 -33 22 -71 23 -88 3z"/>
</g>
</svg>
